<svg width="789" height="678" viewBox="0 0 789 678" fill="none" xmlns="http://www.w3.org/2000/svg">
<path d="M643.306 458.446L714.631 463.769C706.906 466.142 697.2 466.164 689.137 466.589C678.876 467.133 668.593 467.677 658.311 467.819C654.644 467.873 650.988 467.917 647.321 467.95C646.352 467.95 644.372 467.721 643.502 467.993C643.121 468.113 642.849 468.461 642.522 468.69L643.295 458.446H643.306Z" fill="#499FAB"/>
<path d="M145.902 494.392L146.893 507.477C128.623 507.619 109.929 506.476 91.7796 504.494C85.9364 503.852 79.1357 503.558 73.6517 501.435L145.902 494.392Z" fill="#499FAB"/>
<path d="M633.465 548.888L633.683 548.616C635.761 545.927 637.372 542.934 639.494 540.256C648.677 528.662 660.168 519.354 673.584 513.051C661.865 527.812 653.541 542.966 647.796 560.95C647.034 563.324 645.261 567.079 645.413 569.496C641.942 571.989 638.318 576.169 635.663 579.533C632.519 574.155 629.603 569.866 628.079 563.737C629.363 558.566 631.942 553.994 633.476 548.888H633.465Z" fill="#499FAB"/>
<path d="M144.343 464.988L145.148 482.929C137.695 482.613 130.219 482.7 122.766 482.461C105.051 481.895 87.3041 481.133 69.6222 479.913C60.2645 479.26 50.5694 478.912 41.3313 477.225C64.606 472.511 88.7513 471.172 112.407 469.659C119.197 469.223 126.019 468.929 132.82 468.711C136.062 468.603 141.122 469.169 144.125 468.113L144.332 464.999L144.343 464.988Z" fill="#499FAB"/>
<path d="M698.495 575.124C715.383 573.6 730.79 574.417 746.818 580.328C723.576 581.112 702.652 590.474 683.098 602.405C679.714 604.474 675.808 606.379 672.663 608.73C664.927 608.752 654.709 614.468 648.311 618.289C652.424 612.508 656.538 606.444 661.303 601.186C670.117 591.454 681.216 583.931 693.337 578.924C695.818 577.9 698.452 577.193 700.976 576.289L700.911 575.603L698.484 575.124H698.495Z" fill="#499FAB"/>
<path d="M643.638 353.262C653.431 349.637 662.985 348.331 673.398 349.485C689.143 351.237 703.278 359.892 713.016 372.183C718.022 378.497 722.156 386.4 723.538 394.391C726.879 392.573 729.719 391.332 733.614 392.377C736.759 393.226 739.545 395.697 741.133 398.506C741.938 399.921 742.428 401.641 742.972 403.176C745.54 403.263 748.108 404.036 749.958 405.93C751.177 407.171 751.601 408.445 751.916 410.121C750.056 411.166 732.82 410.426 729.131 410.415C710.351 410.361 691.57 410.306 672.778 410.306C663.442 410.306 653.899 409.925 644.585 410.372L643.627 353.251L643.638 353.262Z" fill="#499FAB"/>
<path d="M124.263 118.217C134.469 117.4 145.045 118.543 155.034 120.644C162.303 122.168 169.419 124.313 176.699 125.706C163.195 131.476 150.595 138.628 137.744 145.683C132.957 148.317 128.104 151.779 123.066 153.804C119.235 155.339 114.916 156.21 110.922 157.266L119.638 138.106L102.576 159.857L73.6217 169.48L81.5214 147.479L65.4609 172.637L48.6931 180.312L51.6201 171.189L55.0912 161.359C51.1304 166.508 47.3982 171.777 43.7857 177.177C42.1644 179.593 40.8913 182.946 38.8348 184.96C36.0927 187.66 31.1744 189.707 27.7578 191.677L33.8621 177.765C27.2899 183.698 21.9581 191.024 15.4403 196.946C13.6667 198.557 11.2729 199.853 9.27072 201.203C6.13696 203.315 3.07936 205.536 0 207.735C2.15446 202.89 4.83122 198.231 7.39917 193.604C12.7853 183.894 18.5414 174.738 25.8971 166.378C40.1405 150.168 58.5296 135.896 78.6271 127.829C93.3383 121.918 108.485 119.185 124.241 118.195L124.263 118.217Z" fill="#499FAB"/>
<path d="M90.6616 410.11L91.1948 399.725C92.5005 389.034 97.6799 377.908 104.785 369.853C115.068 358.193 129.496 350.333 145.122 349.386L143.489 436.89L36.9958 436.847L37.1047 436.39L37.3114 435.638C37.8011 433.788 38.3233 432.144 39.2156 430.446C41.6421 425.808 45.8966 422.597 50.9346 421.16C58.1705 419.08 62.6753 422.161 68.7252 425.481C72.4792 421.225 74.0352 415.433 78.6379 412.07C82.8272 409.01 85.8086 409.315 90.6398 410.099L90.6616 410.11Z" fill="#499FAB"/>
<path d="M494.143 600.708C498.517 601.361 502.554 602.428 506.613 604.18C508.767 605.117 510.802 606.271 512.902 607.337C513.163 607.468 514.698 608.35 514.97 608.339C515.34 608.317 515.666 608.099 516.014 607.969C518.299 612.04 520.693 616.417 521.955 620.924C513.762 613.619 506.352 607.588 496.232 603.059C495.449 602.711 494.916 602.014 494.143 601.709L492.533 601.187L494.143 600.708Z" fill="#499FAB"/>
<path d="M585.719 585.576C586.241 585.271 587.003 584.618 587.602 584.792C589.669 585.391 591.671 588.385 593.031 590.007C598.167 596.081 602.737 602.232 606.361 609.352C601.79 605.095 596.97 601.274 591.932 597.573C589.19 595.559 584.946 593.512 582.857 590.976C582.302 590.301 581.258 589.952 580.474 589.593V589.332C581.421 589.549 581.682 589.843 582.563 589.354L590.224 592.325L589.604 591.063C588.581 589.016 587.166 587.35 585.719 585.587V585.576Z" fill="#499FAB"/>
<path d="M528.279 603.2L532.25 599.597C533.904 601.447 536.135 602.776 538.159 604.191C538.67 605.726 539.018 607.141 539.225 608.741L538.877 609.166C538.366 609.797 538.551 609.536 538.148 610.287L539.846 613.216C543.893 609.307 547.734 606.531 552.936 604.343C552.304 606.858 549.497 610.363 547.364 611.833C543.882 614.239 544.786 616.579 543.012 619.736C541.641 622.175 539.704 624.592 537.952 626.78L528.279 603.211V603.2Z" fill="#499FAB"/>
<path d="M585.277 524.373C589.053 526.583 592.698 529.185 596.115 531.917C597.497 533.017 600.467 536.424 601.915 536.838C602.252 538.329 603.492 539.135 604.58 540.169C606.68 542.172 608.781 544.164 610.728 546.309C615.821 551.915 620.119 558.12 624.21 564.478C625.897 567.102 628.051 570.095 629.041 573.035C629.564 574.57 629.466 576.398 629.455 577.999C629.4 584.89 626.909 593.12 624.177 599.466C619.651 585.837 614.852 572.338 607.725 559.808C604.918 554.876 601.566 550.315 598.618 545.481C596.931 542.727 595.244 539.973 593.449 537.295C592.709 536.195 591.915 534.747 590.859 533.942C590.294 533.506 589.847 533.833 589.206 533.975L585.277 524.373Z" fill="#499FAB"/>
<path d="M709.193 545.329C703.208 549.596 696.941 553.211 691.087 557.75C681.566 565.142 672.796 574.363 664.776 583.344C663.296 585.01 660.402 587.611 659.793 589.723C650.043 597.551 641.795 609.351 635.365 619.955C637.475 605.813 638.683 590.594 646.191 578.042C648.106 574.831 650.663 572.131 653.297 569.497C655.397 567.406 666.136 558.85 666.485 556.901L665.636 556.183C678.889 548.344 694.155 546.374 709.182 545.329H709.193Z" fill="#499FAB"/>
<path d="M172.236 468.82C191.55 468.918 211.049 470.017 230.233 472.336C236.805 473.131 243.258 474.622 249.797 475.417L250.156 477.159C225.347 482.166 199.896 482.308 174.674 483.081C174.424 483.636 174.282 483.93 174.249 484.54L172.247 468.82H172.236Z" fill="#499FAB"/>
<path d="M534.898 550.348C552.982 551.349 569.979 554.496 585.789 563.749C588.379 565.262 590.947 566.862 593.395 568.593C595.158 569.845 598.672 573.253 600.642 573.579C602.535 576.17 603.275 579.393 604.091 582.452C605.081 586.164 606.028 589.833 606.811 593.588C603.895 589.702 600.751 586.011 596.681 583.279C591.197 579.589 585.996 576.813 579.87 574.32C577.781 573.46 575.583 572.338 573.319 572.11L572.329 573.002C560.12 564.424 548.739 557.25 534.485 552.536C534.767 551.839 534.8 551.099 534.898 550.359V550.348Z" fill="#499FAB"/>
<path d="M175.535 493.956C190.322 494.228 205.077 495.382 219.767 497.2C227.416 498.147 235.327 498.92 242.66 501.413C236.241 503.307 229.048 504.222 222.411 505.06C207.667 506.922 192.77 507.542 177.918 507.51L175.546 493.956H175.535Z" fill="#499FAB"/>
<path fill-rule="evenodd" clip-rule="evenodd" d="M598.16 91.4943C599.78 84.2935 601.531 77.1797 604.141 70.2616C612.954 46.9432 628.351 29.3291 649.33 16.0914C670.679 2.61416 694.715 -0.42311 719.426 0.0450006L718.664 0.360704C716.356 1.30291 713.987 2.12081 711.616 2.93921C709.495 3.67156 707.373 4.4043 705.291 5.22688C700.014 7.32153 695.002 9.86399 689.969 12.4167C688.725 13.0481 687.479 13.6801 686.228 14.306C685.003 14.9173 683.764 15.5044 682.526 16.0916C679.685 17.439 676.843 18.7864 674.161 20.4241L696.445 17.7788C694.139 19.7538 691.048 21.2032 688.18 22.5483C687.571 22.8343 686.971 23.1155 686.391 23.3961C680.617 26.181 674.698 28.5709 668.782 30.96C663.805 32.9696 658.83 34.9786 653.943 37.2217L673.682 36.6992C673.092 37.161 672.502 37.6278 671.91 38.0957C668.793 40.5622 665.634 43.0616 662.213 45.0381C658.9 46.9586 655.44 48.6519 651.979 50.3459C646.572 52.9921 641.161 55.6398 636.305 59.1576L654.226 55.5542L644.216 66.3208L628.188 71.4809L639.602 71.2523C638.237 72.8416 636.875 74.4125 635.522 75.9739C625.805 87.1823 616.515 97.8994 609.505 111.401C609.907 110.876 610.309 110.35 610.711 109.823C613.95 105.579 617.204 101.315 620.941 97.4991C636.185 81.9753 657.469 71.5026 679.035 68.6287C713.441 64.0455 745.432 78.2304 772.123 99.0559L776.356 102.757C759.697 97.129 742.298 93.3623 724.932 90.5537L744.823 100.384L723.093 101.603C714.432 96.7915 703.812 93.4494 694.367 90.4992L714.562 102.888L691.385 105.348C683.867 101.799 675.771 99.2083 667.773 96.9221L684.041 106.644C671.299 108.266 659.036 111.096 646.631 114.351C632.975 117.944 619.113 121.906 606.926 129.233C609.236 128.564 611.529 127.878 613.816 127.193C621.138 125.001 628.398 122.828 635.968 121.318C667.044 115.124 699.046 119.043 726.858 134.447C743.473 143.657 759.262 158.419 770.252 173.91C777.64 184.328 783.69 195.987 789 207.581C781.655 202.737 774.223 197.348 768.086 191.023C766.173 189.052 764.316 186.96 762.454 184.862C759.33 181.341 756.19 177.803 752.733 174.781L760.285 190.174C758.054 188.857 755.812 187.551 753.549 186.288C753.203 186.095 752.827 185.915 752.446 185.732C751.581 185.318 750.687 184.89 750.046 184.263C748.714 182.954 747.567 180.64 746.531 178.551C746.077 177.634 745.643 176.76 745.225 176.033C741.983 170.405 738.011 163.666 733.669 158.854L741.036 179.571C738.826 178.892 736.758 177.813 734.694 176.735C733.679 176.205 732.664 175.676 731.635 175.195C729.448 174.171 727.201 173.321 724.952 172.471C723.878 172.064 722.802 171.658 721.733 171.232C718.001 162.708 712.647 153.879 707.511 146.139L715.204 168.772L685.118 158.658L673.497 137.582L679.449 157.069C673.671 156.231 666.293 154.685 660.962 152.312C659.089 151.477 657.288 150.353 655.494 149.233C654.339 148.511 653.186 147.791 652.017 147.152C641.974 141.665 629.613 135.362 618.319 133.478C628.471 137.855 637.741 142.46 646.914 148.73C672.267 166.083 694.758 193.614 706.042 222.202C714.758 244.29 718.164 268.926 717.097 292.603C716.532 305.21 714.606 317.729 712.31 330.107C710.993 322.41 709.241 314.648 706.989 307.169C706.526 305.629 705.957 304.065 705.385 302.492C704.466 299.962 703.538 297.411 703.028 294.9C702.566 292.612 702.681 289.783 702.788 287.122C702.838 285.897 702.886 284.707 702.876 283.622C702.845 280.785 702.675 277.958 702.505 275.131C702.433 273.934 702.361 272.736 702.299 271.538L698.415 288.477L687.74 268.719L688.252 244.225C685.542 249.287 683.682 256.287 682.615 261.915L670.08 243.942C670.599 240.981 670.453 237.645 670.314 234.452C670.266 233.36 670.219 232.286 670.2 231.248C670.179 230.124 670.16 229 670.14 227.875C670.023 221.211 669.906 214.535 669.645 207.875L662.822 236.332L646.653 214.037L647.077 182.684L639.689 206.319C638.22 203.743 636.646 201.26 635.071 198.774C634.056 197.173 633.04 195.57 632.051 193.941C631.504 193.042 630.977 192.129 630.451 191.216C628.84 188.423 627.23 185.63 625.032 183.25L629.015 162.534C627.838 163.969 627.181 165.606 626.507 167.288C626.384 167.596 626.259 167.906 626.131 168.216C625.319 170.203 624.56 172.208 623.802 174.212C623.119 176.018 622.436 177.824 621.713 179.614L605.86 144.68L605.947 145.05C606.423 147.009 607.193 148.915 607.958 150.808C608.294 151.641 608.63 152.471 608.939 153.302C610.865 158.506 612.726 163.731 614.358 169.033C620.332 188.4 625.293 208.441 629.189 228.32C634.695 256.406 638.438 284.667 640.962 313.168C641.68 321.278 642.257 329.41 642.703 337.531C642.786 339.052 642.846 340.587 642.905 342.127C643.049 345.844 643.195 349.588 643.672 353.229L644.629 410.349L643.334 458.412L642.562 468.656L633.487 548.845C632.796 551.146 631.892 553.338 630.991 555.526C629.891 558.193 628.795 560.853 628.09 563.694C629.39 568.924 631.711 572.822 634.312 577.187C634.759 577.938 635.214 578.702 635.674 579.49C638.329 576.126 641.963 571.946 645.423 569.453C651.876 564.445 658.176 559.557 665.662 556.139C678.916 548.301 694.182 546.33 709.209 545.285C706.742 547.044 704.228 548.691 701.714 550.339C698.128 552.689 694.544 555.038 691.102 557.706C681.581 565.098 672.811 574.319 664.792 583.3C664.463 583.67 664.065 584.086 663.638 584.532C662.14 586.097 660.282 588.036 659.808 589.679C672.18 581.624 683.921 577.117 698.502 575.081L700.928 575.56L700.993 576.246C700.014 576.596 699.019 576.917 698.023 577.238C696.45 577.746 694.874 578.254 693.355 578.88C681.233 583.888 670.135 591.41 661.321 601.143C657.166 605.727 653.498 610.924 649.908 616.011C649.38 616.759 648.854 617.504 648.329 618.245C654.727 614.424 664.944 608.709 672.681 608.687C674.732 608.454 676.773 608.078 678.817 607.702C680.883 607.322 682.953 606.941 685.042 606.706C696.619 605.421 707.936 607.043 719.11 610.069L714.105 610.429C697.239 612.214 680.265 619.236 666.848 629.523C662.866 632.571 658.786 635.968 655.641 639.887C687.675 646.887 719.981 658.59 746.749 678L39.2465 677.935C40.4505 677.14 41.6531 676.344 42.8557 675.548C50.0112 670.811 57.1658 666.074 64.5996 661.768C85.3281 649.75 107.069 639.789 129.495 631.417C141.573 626.911 153.781 622.665 166.251 619.377C155.773 582.832 150.582 545.176 146.904 507.433L145.914 494.348L145.163 482.885L144.358 464.944L143.52 436.847L145.153 349.343C145.83 343.481 146.121 337.543 146.411 331.607C146.634 327.059 146.856 322.511 147.253 318.001C149.527 292.015 152.671 265.834 157.22 240.153C160.343 222.506 164.314 204.958 168.427 187.518C169.079 184.749 169.796 181.946 170.518 179.124C172.402 171.763 174.319 164.272 175.184 156.906C173.193 161.913 171.322 166.965 169.548 172.048C169.291 172.782 169.044 173.518 168.796 174.254C167.721 177.448 166.649 180.631 164.88 183.534L156.904 157.668L161.006 191.012C157.285 196.869 152.41 203.107 147.285 207.799C146.718 205.075 146.323 202.174 145.923 199.241C145.204 193.96 144.471 188.577 142.693 183.936L143.085 214.124L125.697 236.746C125.536 233.595 124.889 230.355 124.255 227.18C124.03 226.055 123.807 224.937 123.608 223.835C123.42 222.78 123.258 221.714 123.095 220.646C122.695 218.007 122.292 215.355 121.486 212.829L119.332 244.323L107.406 262.601L103.859 237.301C103.735 238.978 103.587 240.66 103.439 242.342C103.157 245.552 102.874 248.765 102.76 251.965C102.679 254.264 102.626 256.563 102.574 258.865C102.535 260.584 102.495 262.304 102.444 264.027C102.43 264.504 102.429 265.009 102.429 265.527C102.427 266.934 102.426 268.43 102.139 269.688C101.659 271.783 100.1 274.214 98.6512 276.474C97.9322 277.595 97.2403 278.674 96.7207 279.649C95.9457 281.104 95.2334 282.583 94.5218 284.061C93.455 286.276 92.3897 288.489 91.1169 290.611L89.7894 270.406L78.7124 331.206C76.5579 320.32 74.4688 309.575 73.5003 298.493C71.7811 278.865 73.3698 259.03 78.288 239.946C81.7918 226.36 88.0919 213.493 95.5455 201.659C103.358 189.26 113.031 176.871 123.434 166.551C139.908 150.189 159.08 136.799 179.047 125.085C170.484 122.082 161.874 119.922 153.115 117.725C152.381 117.54 151.645 117.356 150.909 117.171C136.099 113.437 121.453 110.062 106.372 107.547L121.726 93.0575L98.8316 106.186L75.0237 102.235C77.1867 100.82 79.2762 99.3101 81.3651 97.8008C82.2815 97.1387 83.1979 96.4766 84.1203 95.8226C84.623 95.4669 85.1352 95.115 85.6497 94.7615C87.6074 93.4162 89.5994 92.0474 91.2366 90.3577C89.5085 91.0363 87.7324 91.7038 85.9362 92.3789C79.5781 94.7685 72.9691 97.2523 67.3525 100.656L43.9472 99.9485L63.4026 90.8149C45.9384 93.1228 28.0607 96.9004 11.5867 103.204L13.8717 101.07C19.9434 95.6158 27.0488 91.0109 34.0454 86.8523C55.5682 74.05 78.9844 66.1248 104.316 67.5292C127.003 68.7811 147.253 77.4574 164.053 92.8289C169.285 97.6146 174.017 103 178.708 108.339C179.597 109.352 180.486 110.363 181.376 111.368C175.13 98.5442 164.238 87.7232 154.086 77.9147L153.603 77.4483C147.951 71.9947 142.261 66.5034 136.241 61.4546L154.097 61.0083L112.651 36.1222L130.267 37.7551L93.1734 18.2033L113.586 21.6434C98.8751 12.4663 83.598 6.17399 67.4069 0.16475C92.0853 -0.815016 116.546 3.74634 137.928 16.6684C159.233 29.5469 178.144 48.4999 188.133 71.6224C190.679 77.5119 192.333 83.7171 193.867 89.944C194.259 82.1386 196.174 76.2164 200.015 69.3798C209.188 53.0721 227.262 41.8266 244.933 36.8733C276.118 28.1316 309.262 35.6105 336.998 51.2106C327.825 49.926 317.684 50.4268 308.533 51.5589C307.433 51.6941 306.277 52.0283 305.125 52.3613C303.68 52.7794 302.241 53.1955 300.927 53.2137C298.705 53.2423 296.299 52.8506 293.948 52.4678C292.73 52.2696 291.527 52.0737 290.372 51.94C285.106 51.3086 279.85 50.9493 274.562 50.6445L292.037 56.1747C290.431 56.6743 288.817 57.1436 287.202 57.613C284.594 58.3713 281.985 59.1301 279.404 60.0176C278.541 60.3142 277.581 60.7517 276.589 61.2038C274.742 62.0458 272.784 62.9383 271.134 63.0658C269.275 63.2077 267.19 62.9446 265.186 62.6917C264.269 62.576 263.37 62.4625 262.516 62.3908C256.347 61.8792 250.101 61.4764 243.921 61.7921L262.44 67.0393C242.027 76.641 222.615 87.7559 206.163 103.41C208.105 102.112 209.994 100.73 211.883 99.3486C214.366 97.533 216.848 95.7176 219.449 94.0917C235.227 84.2069 253.812 78.0235 272.527 78.1868C302.613 78.459 328.859 91.7076 352.112 109.822C359.729 115.755 367.171 122.048 373.961 128.917L329.337 115.625C326.973 115.029 325.211 113.765 323.329 112.414C322.907 112.111 322.479 111.804 322.036 111.499C319.305 109.626 316.552 107.841 313.734 106.11L324.06 119.435L301.884 116.18C299.204 114.098 296.389 112.387 293.529 110.649C292.755 110.179 291.978 109.706 291.199 109.224C290.593 108.848 289.988 108.47 289.383 108.091C286.111 106.045 282.834 103.995 279.317 102.387L296.564 118.357L271.167 119.163L252.811 105.882L262.408 119.108C255.859 118.962 249.301 119.077 242.742 119.193L241.984 119.206C234.911 119.337 227.577 119.479 220.613 120.741C222.254 120.859 223.901 120.96 225.551 121.062C230.03 121.337 234.527 121.614 238.948 122.211C259.328 124.976 278.109 131.867 294.931 143.896C318.054 160.422 334.19 184.11 343.004 211.011C346.508 221.723 348.706 232.772 350.556 243.865C346.736 239.358 342.819 234.906 338.706 230.66C337.915 229.845 337.02 229.004 336.103 228.143C334.131 226.29 332.057 224.342 330.698 222.343C329.891 221.16 329.209 219.789 328.534 218.432C328.116 217.592 327.7 216.757 327.259 215.975C326.691 214.956 326.126 213.937 325.562 212.918C322.792 207.911 320.028 202.917 316.792 198.186L321.764 216.878L304.594 203.053C302.734 201.644 301.728 199.632 300.711 197.598C300.455 197.085 300.198 196.57 299.926 196.064C299.564 195.39 299.202 194.716 298.841 194.042C297.006 190.623 295.173 187.207 293.31 183.806C293.048 183.325 292.79 182.832 292.531 182.337C291.575 180.509 290.595 178.635 289.251 177.111L294.725 197.076L269.948 180.66C268.775 177.302 267.178 174.147 265.578 170.987C265.176 170.192 264.773 169.397 264.377 168.598C262.953 165.741 261.573 162.86 260.193 159.98C259.307 158.129 258.42 156.278 257.522 154.434L263.082 177.492C252.644 171.788 243.155 164.512 233.661 157.232C225.993 151.353 218.322 145.471 210.146 140.413C209.703 140.138 209.26 139.862 208.817 139.586C204.96 137.179 201.074 134.755 196.838 133.076C200.694 136.375 204.859 139.346 209.015 142.31C211.098 143.796 213.178 145.28 215.216 146.803C223.595 153.063 231.973 160.215 238.839 168.14C262.832 195.835 279.371 230.802 282.059 267.652C282.744 277.134 282.364 286.67 281.656 296.141L281.863 297.459C284.451 295.755 286.91 293.532 289.313 291.361C290.334 290.438 291.346 289.523 292.353 288.662C297.108 284.602 302.015 280.933 307.26 277.526C341.503 255.252 384.853 246.946 424.874 255.165C446.941 259.694 467.31 268.61 485.928 281.303C490.716 284.569 495.242 288.096 499.388 292.146C499.53 292.285 499.769 292.53 500.073 292.842C501.583 294.391 504.701 297.591 505.634 297.655C505.771 297.662 505.893 297.578 506.015 297.495C506.076 297.453 506.137 297.412 506.199 297.382L506.406 296.969C502.326 249.668 517.712 204.337 548.135 168.129C555.937 158.843 565.034 150.319 574.62 142.895C577.003 141.044 579.495 139.27 581.997 137.582C582.409 137.305 582.855 137.031 583.309 136.753C584.44 136.06 585.624 135.334 586.469 134.425C585.085 134.484 583.266 135.651 581.792 136.596C581.356 136.876 580.949 137.136 580.594 137.343C570.574 143.168 561.895 150.247 553.135 157.393C549.224 160.584 545.296 163.788 541.226 166.899C537.879 169.458 534.423 171.842 530.964 174.227C528.89 175.658 526.815 177.089 524.763 178.558L528.636 158.103L528.451 158.386C526.899 160.847 525.785 163.72 524.686 166.555C524.098 168.071 523.514 169.577 522.869 171.003C522.578 171.65 522.25 172.477 521.89 173.382C520.841 176.026 519.527 179.336 518.092 180.779C516.6 182.272 514.38 183.544 512.276 184.749C511.249 185.337 510.25 185.909 509.377 186.484C507.745 187.55 506.134 188.679 504.519 189.811C501.351 192.031 498.169 194.261 494.796 196.042L501.227 173.975C498.578 178.213 496.082 182.587 493.589 186.954C492.15 189.476 490.712 191.995 489.247 194.485C488.842 195.17 488.444 195.904 488.038 196.653C487.055 198.464 486.029 200.356 484.774 201.812C483.922 202.803 482.73 203.675 481.566 204.527C480.902 205.012 480.248 205.491 479.671 205.981C478.111 207.307 476.581 208.683 475.049 210.062C472.317 212.519 469.579 214.982 466.657 217.172L472.25 196.39C469.394 200.693 466.823 205.256 464.266 209.793C463.472 211.202 462.68 212.609 461.881 214.004C461.469 214.725 461.066 215.466 460.661 216.213C459.683 218.013 458.69 219.841 457.528 221.472C455.94 223.698 453.924 225.755 451.934 227.784C450.898 228.841 449.868 229.891 448.91 230.954C446.772 233.327 444.725 235.792 442.678 238.256C440.996 240.281 439.315 242.305 437.583 244.279C444.21 205.524 461.391 167.542 494.208 144.19C512.521 131.16 532.738 123.496 555.208 122.135C558.33 121.946 561.476 121.972 564.618 121.999C568.177 122.029 571.732 122.059 575.24 121.776C561.094 119.397 546.455 119.175 532.075 118.956C530.461 118.932 528.85 118.907 527.244 118.88L538.342 108.124L520.301 118.107L493.011 118.031C497.788 113.458 502.38 108.897 506.276 103.53C503.978 105.13 501.709 106.763 499.44 108.394C498.205 109.282 496.97 110.17 495.732 111.053C495.407 111.284 495.078 111.524 494.743 111.766C492.767 113.202 490.622 114.759 488.398 115.559C486.302 116.32 483.758 116.516 481.385 116.699C480.665 116.754 479.961 116.808 479.29 116.877C477.703 117.043 476.121 117.229 474.539 117.416C472.174 117.695 469.81 117.974 467.43 118.183L478.496 105.838C476.488 106.987 474.443 108.324 472.374 109.679C468.736 112.059 465.02 114.491 461.282 116.038C458.457 117.206 455.003 117.898 451.688 118.562C450.088 118.883 448.52 119.197 447.071 119.555C436.615 122.124 426.093 124.813 415.995 128.59C443.317 101.669 478.333 78.4808 518.016 78.7203C532.989 78.8074 548.396 81.9535 561.573 89.2908C567.982 92.8615 573.586 97.3685 579.146 102.104C576.905 98.6313 573.782 95.8444 570.714 93.1228C557.874 81.7249 542.031 73.7452 526.057 67.7251C526.722 67.514 527.389 67.3049 528.056 67.0956C532.206 65.7943 536.384 64.4842 540.312 62.6085L519.485 63.8822C514.744 61.2378 509.266 59.6247 503.892 58.0426C501.656 57.3842 499.438 56.7312 497.299 56.0114C498.369 55.6326 499.436 55.2679 500.497 54.9052C505.077 53.3396 509.556 51.8088 513.805 49.3164C504.992 50.2635 495.993 51.4174 487.462 53.8886C483.414 52.0379 478.54 51.5045 474.154 51.1126C466.853 50.4594 459.683 50.5248 452.36 50.786C462.24 45.8981 472.196 41.3041 482.761 38.0491C502.543 31.9527 525.176 30.6899 544.991 37.4068C566.981 44.853 583.706 61.3131 593.803 81.9644L598.16 91.4943ZM181.812 210.695L182.465 146.139L182.422 146.128L164.229 350.203C177.144 352.337 189.745 362.602 197.155 372.999C200.071 377.092 202.138 381.664 204.043 386.302C211.115 383.602 217.905 381.653 225.522 383.624C229.037 384.538 232.344 385.877 235.565 387.532C237.589 377.854 239.809 368.383 243.171 359.053C245.38 352.914 248.34 347.111 251.299 341.309C258.383 327.407 266.957 314.137 278.393 303.403C276.739 299.288 274.89 295.347 272.779 291.439C272.337 290.622 271.75 289.729 271.144 288.807C270.005 287.073 268.798 285.235 268.35 283.6C267.834 281.695 267.885 279.484 267.933 277.432L267.933 277.429C267.944 276.973 267.954 276.524 267.958 276.089C267.965 275.116 267.977 274.143 267.989 273.17V273.159C268.036 269.332 268.083 265.5 267.806 261.675L263.203 276.513L252.779 261.316L253.53 230.726L247.458 254.36C247.005 253.813 246.55 253.267 246.095 252.722C242.936 248.933 239.778 245.146 237.143 240.959C237.154 234.819 236.915 228.701 236.653 222.572C236.618 221.744 236.591 220.914 236.565 220.083C236.468 217.066 236.371 214.035 235.859 211.065C234.565 215.872 233.931 220.972 233.299 226.048C232.911 229.168 232.524 232.279 231.985 235.309C231.741 235.075 231.468 234.827 231.182 234.566L231.182 234.566L231.181 234.565C230.026 233.514 228.659 232.269 228.101 231.031C227.425 229.517 227.13 227.533 226.859 225.712C226.764 225.071 226.671 224.451 226.567 223.878C225.816 219.741 225.011 215.626 224.01 211.544C221.278 200.364 217.546 189.543 213.292 178.853L213.357 179.517C213.642 182.381 214.273 185.179 214.904 187.981L214.905 187.982C215.19 189.247 215.475 190.513 215.729 191.785L215.805 192.168C217.434 200.359 219.072 208.593 219.907 216.9C224.575 263.058 213.662 312.286 187.797 351.074L199.614 291.722C196.388 295.114 193.746 299.056 191.126 302.964C190.468 303.947 189.811 304.927 189.146 305.896C189.141 305.109 189.141 304.32 189.141 303.53C189.142 301.358 189.143 299.179 189.016 297.023C188.979 296.45 188.918 295.872 188.857 295.292C188.723 294.009 188.588 292.716 188.7 291.449C188.905 289.163 189.51 286.83 190.1 284.551C190.325 283.684 190.548 282.825 190.746 281.978C191.173 280.158 191.624 278.336 192.075 276.51C193.324 271.456 194.579 266.377 195.37 261.251C194.228 262.723 193.402 264.484 192.598 266.2C192.391 266.642 192.185 267.08 191.975 267.51C190.191 271.168 188.428 274.826 186.709 278.506C186.44 275.723 186.273 272.94 186.106 270.155V270.154L186.106 270.153L186.106 270.151C185.989 268.198 185.871 266.244 185.719 264.288C185.66 263.513 185.556 262.66 185.448 261.778C185.198 259.724 184.928 257.512 185.164 255.753C185.473 253.459 186.589 250.95 187.592 248.697C187.826 248.17 188.055 247.657 188.265 247.164C189.299 244.748 190.372 242.352 191.446 239.955L191.446 239.954C192.699 237.155 193.952 234.358 195.142 231.531C191.018 235.668 187.558 239.99 184.141 244.715C184.023 242.824 183.93 240.931 183.837 239.036L183.837 239.034L183.837 239.03L183.837 239.027C183.697 236.19 183.558 233.35 183.336 230.519C183.268 229.65 183.156 228.726 183.042 227.783C182.791 225.711 182.529 223.546 182.694 221.668C182.788 220.542 183.31 219.387 183.806 218.289C183.995 217.871 184.181 217.46 184.337 217.063C187.482 209.106 191.518 201.344 195.664 193.854L181.812 210.695ZM259.361 446.606L259.351 446.601L259.341 446.579L259.361 446.606ZM259.361 446.606C260.616 447.32 261.727 448.605 262.742 449.779L262.744 449.781L262.755 449.793L262.918 449.981C262.996 450.072 263.075 450.162 263.152 450.251C263.268 450.384 263.383 450.514 263.497 450.64C264.655 451.918 265.796 453.213 266.937 454.508C268.585 456.377 270.233 458.247 271.93 460.067C278.415 467.002 285.042 473.849 291.647 480.664C297.775 486.991 304.057 493.14 310.339 499.29L310.34 499.291C313.528 502.411 316.715 505.531 319.883 508.675L316.042 511.08L310.427 514.401L259.361 446.606ZM266.468 449.039L266.499 449.05L323.692 506.378L328.011 503.362L330.068 501.849C327.284 499.51 324.394 497.315 321.503 495.119L321.5 495.116L321.498 495.115L321.481 495.101C319.227 493.389 316.973 491.677 314.769 489.896C304.203 481.372 293.79 472.521 283.508 463.649C279.373 460.089 275.281 456.497 271.19 452.893C270.848 452.592 270.467 452.213 270.06 451.809C268.95 450.707 267.657 449.423 266.499 449.05L266.479 449.029L266.468 449.039ZM284.006 452.659L283.975 452.654L283.965 452.632L284.006 452.659ZM284.006 452.659L285.02 452.828C287.325 453.508 289.955 455.186 292.395 456.742C293.548 457.478 294.659 458.187 295.673 458.75C303.725 463.235 311.864 467.622 320.014 471.922C326.205 475.199 332.418 478.487 338.697 481.579C340.094 482.267 341.518 482.925 342.945 483.585C345.938 484.968 348.943 486.357 351.743 488.045C351.835 488.1 351.906 488.141 351.963 488.173C352.001 488.195 352.032 488.213 352.059 488.229C352.07 488.236 352.081 488.242 352.09 488.248C352.112 488.263 352.131 488.276 352.146 488.289C352.157 488.298 352.167 488.308 352.175 488.318C352.21 488.359 352.231 488.41 352.272 488.508C352.309 488.595 352.36 488.719 352.45 488.905L350.579 490.135L345.628 492.868L284.006 452.659ZM277.664 453.078L277.698 453.088C291.412 465.262 305.887 476.827 320.405 488.034C322.022 489.282 323.624 490.61 325.233 491.945L325.24 491.95C328.361 494.537 331.508 497.147 334.845 499.236L339.578 496.613L340.851 495.611C340.072 494.351 337.811 493.142 336.013 492.18C335.449 491.878 334.931 491.601 334.518 491.354C330.536 488.97 326.597 486.521 322.712 483.995C315.117 479.075 307.5 474.034 300.069 468.853C296.93 466.669 293.862 464.371 290.794 462.073L290.786 462.068L290.784 462.066L290.779 462.063C288.758 460.549 286.736 459.034 284.694 457.553C284.272 457.249 283.808 456.895 283.318 456.52L283.316 456.519C281.568 455.182 279.477 453.584 277.698 453.088L277.675 453.067L277.664 453.078ZM527.354 589.266C528.304 589.37 529.278 589.465 530.266 589.562C534.749 590 539.508 590.466 543.61 591.911C539.497 593.62 535.558 596.636 532.25 599.586L528.279 603.189C527.452 601.546 526.559 600.054 525.504 598.552L527.354 589.255V589.266ZM573.914 608.11C578.337 608.209 580.853 609.846 584.288 612.081C584.622 612.298 584.964 612.52 585.318 612.748C576.58 611.986 569.17 613.357 560.802 615.643L552.01 618.855L560.53 608.448L573.914 608.121V608.11ZM564.839 600.109L551.695 595.21V595.199C546.874 597.681 542.196 600.533 538.159 604.18C538.67 605.704 539.018 607.13 539.225 608.731L538.877 609.155L538.786 609.266L538.709 609.362C538.583 609.516 538.525 609.588 538.475 609.665C538.448 609.707 538.424 609.751 538.392 609.812C538.376 609.842 538.358 609.877 538.337 609.917L538.304 609.98C538.264 610.058 538.214 610.153 538.148 610.276L539.845 613.205C543.893 609.297 547.734 606.532 552.935 604.333L553.367 604.147C557.183 602.508 560.718 600.99 564.839 600.109ZM569.801 621.457L572.304 621.293C574.747 621.395 577.643 622.791 579.92 623.888C580.087 623.968 580.25 624.047 580.41 624.124C588.342 627.934 595.013 632.278 600.682 639.103L566.276 642.968L539.377 646.789C545.656 634.509 557.288 626.355 569.801 621.457ZM534.481 552.525L534.485 552.526C534.707 551.974 534.773 551.395 534.84 550.811C534.857 550.66 534.874 550.509 534.894 550.358L552.424 465.837V465.826L552.426 465.826L553.229 461.319L556.254 447.505L567.364 450.444L569.899 443.433C566.869 442.129 563.572 441.25 560.34 440.388C559.912 440.273 559.485 440.16 559.06 440.045C558.648 439.934 558.239 439.823 557.832 439.71L564.382 411.591L556.33 409.054L549.91 437.783L536.918 434.582L534.894 441.06L547.984 444.5L547.924 444.682C547.302 446.539 546.671 448.421 545.775 450.161C539.617 462.092 529.639 473.131 519.65 481.981C516.201 485.04 512.49 488.295 508.562 490.712C505.818 492.395 502.106 493.514 498.736 494.529C497.789 494.815 496.869 495.092 496.005 495.372C455.397 508.479 398.695 504.124 360.764 484.79L357.053 486.488L266.696 436.618L442.513 436.662C426.687 433.915 411.691 429.132 396.429 424.265L396.428 424.265L395.942 424.11C391.208 422.602 386.453 421.152 381.698 419.702L381.691 419.699L381.675 419.694C377.202 418.33 372.729 416.966 368.272 415.553L367.479 415.301C364.151 414.241 360.813 413.178 357.456 412.189C356.711 411.969 355.938 411.773 355.16 411.575C353.096 411.05 350.985 410.514 349.208 409.479L439.88 409.577L440.174 409.598H553.925C553.906 409.205 553.887 408.812 553.868 408.419L553.837 407.788C553.416 399.098 553 390.506 551.423 381.915C547.375 359.87 537.767 338.478 524.862 320.211C520.792 314.452 516.658 308.966 511.728 303.893C512.59 301.511 513.682 299.107 514.775 296.698C516.236 293.481 517.7 290.256 518.627 287.062C519.048 285.612 519.035 283.715 519.024 282C519.02 281.411 519.016 280.844 519.03 280.324C519.103 277.664 519.113 274.991 519.123 272.316V272.315C519.138 268.267 519.153 264.217 519.389 260.206L523.621 279.442L535.232 259.106C534.115 253.423 533.916 247.483 533.718 241.572C533.598 237.983 533.478 234.404 533.153 230.9L539.094 253.75L554.132 233.458L549.812 206.711C551.806 210.464 553.224 214.553 554.644 218.646C555.843 222.105 557.044 225.566 558.593 228.831L572.989 184.024C572.39 188.98 571.578 193.937 570.766 198.896C569.585 206.102 568.404 213.314 567.875 220.536C565.155 257.484 571.041 297.698 588.789 330.531L588.97 330.866C591.484 335.515 594.15 340.443 597.2 344.727C597.068 339.652 596.805 334.597 596.541 329.533L596.481 328.398C596.438 327.566 596.41 326.725 596.381 325.881L596.381 325.876V325.875C596.31 323.758 596.238 321.619 595.927 319.558C595.695 318.031 595.28 316.513 594.866 314.997L594.865 314.996C594.618 314.092 594.371 313.189 594.164 312.286C593.24 308.322 592.259 304.379 591.279 300.437L591.278 300.432C590.549 297.502 589.82 294.572 589.115 291.635C589.506 292.103 589.896 292.574 590.286 293.044C593.348 296.737 596.419 300.441 600.116 303.511C600.114 303.099 600.111 302.686 600.107 302.273C600.105 301.972 600.102 301.671 600.099 301.37C600.061 297.39 600.023 293.408 600.595 289.457L587.766 261.588L601.487 276.709L603.337 253.173C600.007 249.852 597.914 246.148 595.645 242.131C595.497 241.869 595.348 241.605 595.198 241.34C592.695 236.909 590.236 232.457 588.07 227.852L604.044 245.553L606.96 221.266C599.92 213.231 593.489 202.302 589.463 192.362C591.041 194.255 592.602 196.254 594.181 198.274C598.348 203.608 602.635 209.096 607.678 213.21L607.711 213.188L608.396 168.815C608.811 171.299 609.228 173.786 609.646 176.276L609.647 176.282L609.648 176.286C612.248 191.771 614.867 207.371 616.873 222.898C621.008 255.013 623.151 287.291 624.228 319.623C624.533 328.768 624.762 337.912 624.87 347.068C624.88 347.817 624.89 348.568 624.901 349.319C624.978 354.786 625.056 360.29 624.587 365.727L622.89 410.11L617.896 459L616.916 468.221L616.915 468.221C614.075 486.049 611.007 503.823 606.351 521.281C606.042 522.444 605.74 523.62 605.438 524.8C604.398 528.855 603.344 532.967 601.911 536.838C600.947 536.562 599.308 534.959 597.912 533.593C597.212 532.909 596.573 532.284 596.112 531.917C592.695 529.184 589.05 526.583 585.274 524.373L589.202 533.974L600.638 573.579C602.375 575.955 603.141 578.863 603.886 581.688C603.953 581.943 604.02 582.198 604.087 582.451C605.078 586.163 606.024 589.832 606.808 593.588C603.892 589.701 600.747 586.011 596.677 583.278C591.193 579.588 585.992 576.812 579.866 574.319C579.472 574.157 579.073 573.985 578.671 573.812C576.945 573.067 575.152 572.295 573.316 572.109L572.332 572.996C577.03 576.892 581.739 580.929 585.72 585.565C585.812 585.677 585.904 585.789 585.996 585.901C587.346 587.542 588.647 589.124 589.605 591.04L590.225 592.303L582.565 589.331C581.018 588.387 579.113 587.717 577.33 587.089L577.324 587.087L577.305 587.08C577.172 587.033 577.04 586.987 576.909 586.941C576.783 586.896 576.658 586.852 576.534 586.808C576.37 586.749 576.207 586.69 576.047 586.631C568.191 583.757 559.888 582.397 551.553 582.124C544.176 581.243 535.732 582.484 528.453 583.823C528.859 579.249 529.898 574.609 530.92 570.047C531.265 568.507 531.608 566.975 531.924 565.458C532.261 563.83 532.549 562.195 532.838 560.561C533.314 557.865 533.79 555.17 534.481 552.514V552.525ZM240.658 437.021L249.787 475.406L250.146 477.148C228.202 481.577 205.756 482.2 183.411 482.819H183.403C180.488 482.9 177.574 482.981 174.664 483.07L174.638 483.127C174.404 483.646 174.271 483.94 174.239 484.529L172.237 468.809L168.548 438.012L168.962 437.195L240.669 437.01L240.658 437.021ZM174.664 483.081C174.413 483.636 174.283 483.93 174.239 484.54V484.551L175.534 493.967L177.906 507.521L206.132 610.461C214.012 608.614 222.234 607.59 230.287 606.588L230.288 606.588C230.964 606.504 231.639 606.42 232.312 606.336C248.057 604.354 263.769 602.928 279.623 602.079L250.146 477.159C228.192 481.588 205.752 482.21 183.408 482.83L183.403 482.83L183.39 482.831C180.479 482.911 177.57 482.992 174.664 483.081ZM249.406 438.458C265.282 463.442 283.377 486.913 302.169 509.752C303.648 511.55 305.107 513.346 306.56 515.134C313.659 523.87 320.612 532.426 329.012 540.18C338.61 549.03 349.969 557.184 361.634 563.03C384.18 574.33 411.35 575.919 435.212 567.94C463.22 558.577 487.191 535.4 502.262 510.416C504.653 506.447 506.649 502.249 508.643 498.057L508.653 498.037C509.505 496.245 510.357 494.454 511.239 492.683C525.177 483.985 536.505 471.748 545.21 457.879L519.508 585.673L517.691 586.425L514.568 587.894C513.697 587.273 512.855 586.613 512.013 585.953L512.01 585.95L512.005 585.947C510.8 585.002 509.594 584.056 508.301 583.224C503.48 580.121 498.486 577.911 493.078 576.083C502.73 583.082 512.795 596.494 516.016 607.958C515.896 607.999 515.779 608.053 515.661 608.107C515.438 608.21 515.214 608.313 514.971 608.328C514.737 608.337 513.65 607.737 513.138 607.454C513.03 607.395 512.947 607.349 512.904 607.326C512.247 606.995 511.595 606.652 510.943 606.31L510.934 606.305C509.512 605.558 508.089 604.81 506.614 604.169C502.545 602.406 498.519 601.35 494.144 600.696C486.433 599.189 478.34 599.797 470.533 600.384L469.27 600.479C484.972 603.647 500.51 609.525 512.109 620.978L511.681 620.862C504.997 619.056 497.957 617.153 491.011 617.004C485.625 616.895 480.587 617.842 475.353 618.953L492.958 623.993C506.223 628.783 515.112 637.078 521.075 649.761L508.246 651.829C492.044 642.75 475.048 635.707 457.584 629.436C403.331 609.939 345.682 601.132 288.121 602.112L249.395 438.447L249.406 438.458Z" fill="#499FAB"/>
<path d="M553.227 461.309L617.893 458.99L616.914 468.211L552.421 465.827L553.227 461.309Z" fill="#499FAB"/>
<path d="M438.297 459.915C450.789 459.469 463.302 459.763 475.772 460.514C484.553 461.047 493.334 461.668 502.017 463.126C484.455 466.773 466.893 467.089 449.048 467.361C434.238 467.1 419.429 466.741 404.653 465.608C398.309 465.119 391.312 464.879 385.252 463.028L438.297 459.915Z" fill="#499FAB"/>
<path d="M600.679 399.267C600.2 395.587 599.787 392.169 600.548 388.49C601.506 383.841 603.737 380.553 607.752 377.973C611.07 375.829 615.042 375.176 618.894 376.079L619.601 376.253L620.004 374.218C620.635 371.082 622.811 368.328 624.596 365.726L622.898 410.11L567.306 410.284L569.374 406.267C572.257 401.281 577.927 398.102 583.345 396.676C589.363 395.087 595.358 396.208 600.69 399.278L600.679 399.267Z" fill="#499FAB"/>
<path d="M281.605 296.142L281.811 297.459C285.5 295.031 288.928 291.548 292.301 288.663C297.056 284.602 301.963 280.934 307.208 277.526C341.451 255.253 384.801 246.947 424.822 255.166C446.889 259.694 467.259 268.61 485.876 281.304C490.664 284.57 495.19 288.097 499.336 292.146C500.185 292.974 504.461 297.579 505.582 297.655C505.789 297.666 505.963 297.47 506.148 297.383L506.354 296.969L508.52 313.473L511.719 303.882C516.648 308.955 520.783 314.442 524.852 320.2C537.757 338.468 547.376 359.859 551.413 381.904C553.1 391.092 553.448 400.28 553.916 409.588H440.165L439.871 409.566L349.198 409.468C351.647 410.894 354.737 411.384 357.446 412.179C361.059 413.246 364.66 414.41 368.262 415.543C377.467 418.46 386.727 421.171 395.933 424.099C411.362 429.009 426.509 433.875 442.504 436.651L266.687 436.608C263.912 435.41 260.887 432.776 258.341 431.066C255.827 429.368 252.998 428.018 250.746 425.972C248.744 424.154 247.242 422.096 245.947 419.745C247.862 419.429 250.909 419.429 252.389 418.101C253.303 417.274 253.52 416.359 253.64 415.194C253.814 413.463 253.238 412.799 252.193 411.569C249.288 409.947 243.717 410.6 240.376 410.568L236.6 403.992L234.402 399.703C232.966 396.971 231.628 393.041 229.495 390.852C227.863 390.482 226.307 390.395 224.794 391.299C223.728 391.941 223.075 393.03 222.934 394.249C222.738 395.925 223.924 397.667 224.707 399.104C226.818 402.969 228.886 406.844 230.942 410.731C228.32 410.731 223.314 410.132 221.367 411.95C220.572 412.69 220.464 413.888 220.551 414.911C220.649 416.174 221.029 417.306 222.02 418.155C224.207 420.006 231.649 419.309 234.609 419.309C235.871 421.824 237.547 424.556 238.156 427.3L240.659 437.043L168.952 437.228L168.539 438.045L164.263 350.236C177.178 352.369 189.79 362.635 197.189 373.032C200.105 377.125 202.172 381.697 204.077 386.335C211.149 383.635 217.939 381.686 225.556 383.657C229.06 384.56 232.368 385.91 235.599 387.565C237.623 377.876 239.843 368.416 243.205 359.086C245.414 352.946 248.374 347.144 251.333 341.342C258.417 327.44 266.991 314.169 278.427 303.435L279.603 307.104C280.386 304.361 281.354 301.563 281.387 298.7C281.387 297.84 281.496 297.023 281.594 296.163L281.605 296.142Z" fill="#499FAB"/>
</svg>
