<svg width="190" height="64" viewBox="0 0 190 64" fill="none" xmlns="http://www.w3.org/2000/svg">
<g clip-path="url(#clip0_1_978)">
<path d="M57.6228 18.4948C57.6228 28.7144 49.3562 36.9935 39.161 36.9935C39.149 36.9935 39.1289 36.9935 39.1129 36.9935C38.9369 36.9935 38.7608 36.9935 38.5888 36.9815C38.5728 36.9735 38.5568 36.9655 38.5488 36.9454C37.2083 34.592 35.6118 32.9322 32.963 32.1704C32.4228 32.014 32.0387 31.8938 31.8066 31.8015C30.0461 31.1039 27.3332 30.0415 26.2489 28.4097C25.0205 26.5654 23.452 25.09 21.5274 23.9754C21.2113 22.9571 20.9832 21.8986 20.8472 20.8081C20.7511 20.0504 20.7031 19.2766 20.7031 18.4948C20.7031 18.4186 20.7031 18.3464 20.7031 18.2702C20.7031 18.1861 20.7031 18.1019 20.7031 18.0177C20.7031 17.9255 20.7031 17.8332 20.7151 17.745C21.1033 7.87822 29.2138 0 39.157 0C49.1001 0 57.6188 8.28316 57.6188 18.4948H57.6228Z" fill="#F38218"/>
<path d="M15.7976 36.2926C15.5535 36.7096 15.2894 37.1386 15.1654 37.5676C14.5772 39.6564 16.0337 41.7412 17.4021 43.1485C17.4301 43.1806 17.4501 43.2167 17.4541 43.2608C18.0583 48.6452 18.0263 54.0216 17.3741 59.3901H19.0666C19.8509 55.2124 20.4191 51.0067 20.7672 46.7649C20.7672 46.7408 20.7752 46.7288 20.7872 46.7288C20.8192 46.7248 20.8472 46.7288 20.8552 46.7448C22.6838 50.2208 24.2443 53.5726 25.7207 57.5338C26.0048 58.2995 26.2129 58.921 26.3369 59.3941H28.2655L26.3529 52.9231L26.2249 52.4981C25.3286 49.7558 24.7084 47.4464 23.52 45.5541C23.408 45.3736 23.304 44.9727 23.34 44.7642C23.488 43.8221 24.8645 44.3673 25.4767 44.4916C26.7971 44.7602 28.1535 44.8003 29.4939 44.7562C29.5259 44.7562 29.558 44.7642 29.582 44.7883C30.9784 45.9951 32.3308 47.679 32.863 49.4631C33.3591 51.1269 33.8353 52.7948 34.2954 54.4707C34.3835 54.7994 34.4395 55.1322 34.4635 55.465C34.5435 56.772 34.5875 58.083 34.5995 59.3901H35.932C35.948 57.638 35.984 55.7977 36.3761 54.1179C36.3761 54.1058 36.3881 54.1018 36.4001 54.1018C36.4121 54.1018 36.4201 54.1098 36.4201 54.1219C36.5041 55.8779 36.6042 57.634 36.6522 59.3901H38.0726C38.0766 59.1575 38.0846 58.921 38.0926 58.6844C38.1407 56.8802 38.2167 55.2725 38.3207 53.8533C38.3647 53.2479 38.4568 52.5983 38.6208 51.9128C38.7849 51.2192 38.8969 50.5897 38.3847 50.0084C37.6205 49.1464 36.9123 48.2884 36.3401 47.2821C36.024 46.7248 35.968 46.3559 36.12 45.6944C36.4761 44.1187 36.8523 42.4789 37.0003 40.8712C37.0043 40.8111 37.0163 40.8111 37.0283 40.8712C37.1804 41.5127 37.2644 42.2825 37.3804 42.8117C37.8086 44.7522 38.5128 46.5884 39.4931 48.3205C39.6571 48.6131 39.6171 48.9379 39.6371 49.2626C39.7412 51.0668 40.3854 52.6545 41.5697 54.0297C41.5858 54.0497 41.6178 54.0457 41.6298 54.0216C42.514 51.9849 41.9979 49.7478 40.3494 48.2884C40.2733 48.2242 40.2013 48.116 40.1293 47.9676C39.097 45.7906 38.4648 43.5334 38.2407 41.196C38.1767 40.5505 38.1927 39.8248 37.9606 39.2234C36.8923 36.4931 35.0877 34.2319 32.1988 33.41C30.5983 32.9569 29.0618 32.2433 27.5973 31.4615C26.665 30.9643 25.7768 30.3268 25.1566 29.4649C23.328 26.9109 21.2593 25.1108 18.2144 24.1806C18.1824 24.1726 18.1584 24.1526 18.1343 24.1285C15.1094 20.6364 12.0164 17.2045 8.85942 13.8287C8.32725 13.2594 7.75106 12.7181 7.19089 12.1689C7.16288 12.1448 7.17888 12.0967 7.2149 12.0927C8.04716 11.9684 8.34725 11.0062 8.41127 10.2845C8.41127 10.2444 8.39527 10.2244 8.35926 10.2204C7.90311 10.1642 7.24691 10.1402 6.79076 10.3687C6.61871 10.4529 6.46266 10.6453 6.2906 10.7776C6.25459 10.8057 6.23059 10.7977 6.21858 10.7496C6.14656 10.4409 5.9745 10.2163 5.70242 10.068C5.67041 10.052 5.6544 10.0239 5.6464 9.99182C5.53837 9.31025 5.54237 8.62867 5.6544 7.9471C5.66241 7.88696 5.6304 7.82682 5.57438 7.80276C5.27028 7.68248 4.76612 7.64239 4.58206 7.99521C4.56606 8.02728 4.56206 8.05535 4.57006 8.09143C4.62208 8.31194 4.74212 9.82343 4.18194 9.5909C3.60175 9.35034 4.0499 7.95511 3.71779 7.93507C3.33367 7.91101 3.06959 7.86691 2.7975 8.17963C2.77349 8.2077 2.76549 8.23977 2.77349 8.27586C2.8055 8.41217 2.87753 8.5124 2.88153 8.65273C2.88953 9.20601 2.91354 9.75929 2.95355 10.3126C2.96155 10.4128 2.92154 10.5291 2.84151 10.6614C2.82551 10.6894 2.8015 10.6975 2.76949 10.6894C2.27734 10.5491 1.77318 10.513 1.26102 10.5852C1.18899 10.5972 1.16899 10.6333 1.205 10.6975C1.44907 11.1545 1.74117 11.5795 2.07727 11.9724C2.09728 11.9965 2.11328 12.0285 2.12129 12.0606L2.25733 12.678C2.26533 12.7061 2.26133 12.7342 2.25333 12.7622C2.06927 13.3195 1.89322 13.8848 1.73316 14.4501C1.61713 14.8511 1.31303 15.1718 1.34104 15.6048C1.37305 16.0779 1.24101 16.6552 1.45308 17.0642C1.46908 17.0963 1.49309 17.1163 1.5251 17.1243C2.1573 17.3087 2.52541 16.8557 2.88553 16.4347C3.27765 15.9777 3.70579 15.677 4.00588 15.1117C4.02589 15.0756 4.0539 15.0676 4.08991 15.0876C4.25796 15.1838 4.43002 15.1878 4.60207 15.0956C4.63408 15.0796 4.66209 15.0836 4.6861 15.1117C5.43833 15.9255 6.04653 16.984 6.62671 17.9262C9.72769 22.9859 12.6366 28.1618 15.6376 33.2817C16.2377 34.304 16.4138 35.2462 15.8016 36.3007L15.7976 36.2926Z" fill="white"/>
<path d="M0.000379304 63.9797C0.0804046 64.3285 11.9241 60.0546 29.0015 60.0346C46.211 60.0145 58.1467 64.3285 58.2228 63.9797C58.3068 63.6189 45.6148 58.3667 29.0015 58.3868C12.5123 58.4108 -0.079646 63.6189 0.000379304 63.9797Z" fill="white"/>
<path d="M69.0451 13.4907C69.2491 13.4265 69.4452 13.3984 69.6292 13.3984C69.8653 13.3984 70.2214 13.4826 70.7096 13.655C71.2257 13.8435 71.982 14.056 72.9823 14.2885C73.8426 14.493 74.4508 14.6974 74.8109 14.8979C75.155 15.0863 75.4191 15.367 75.6071 15.7439C75.8112 16.0726 75.9112 16.4575 75.9112 16.8945C75.9112 17.3315 75.7872 18.0131 75.5351 18.8911C75.3791 19.4885 75.247 19.8935 75.135 20.114C75.0269 20.3345 74.8669 20.5349 74.6668 20.7234C74.3067 21.0201 73.9546 21.1684 73.6105 21.1684C73.3304 21.1684 73.0623 21.0602 72.8142 20.8396C72.5021 20.543 72.3461 20.2062 72.3461 19.8293C72.3461 19.6248 72.4021 19.2279 72.5102 18.6305C72.6182 18.1615 72.6742 17.8487 72.6742 17.6924C72.6742 17.52 72.6422 17.4278 72.5822 17.4117C72.5021 17.3636 72.162 17.2794 71.5498 17.1551C71.2818 17.091 71.0577 17.0629 70.8696 17.0629C70.6976 17.0629 70.5815 17.119 70.5175 17.2273C70.4375 17.3195 70.3375 17.5561 70.2134 17.9329C70.0414 18.4501 69.8613 18.9112 69.6733 19.3201C69.5932 19.4925 69.4772 19.7531 69.3211 20.0939C69.3852 20.142 69.4852 20.2503 69.6252 20.4227C69.7493 20.5309 70.5415 21.2285 71.994 22.5115C73.3544 23.6862 74.1507 24.4239 74.3867 24.7206C74.7469 25.1737 74.9269 25.9114 74.9269 26.9297C74.9269 27.5111 74.8789 28.2929 74.7869 29.2792C74.6468 30.7185 74.5148 31.6767 74.3867 32.1458C74.2467 32.6309 73.9866 32.9998 73.6145 33.2483C73.1143 33.6252 72.6382 33.8136 72.186 33.8136C71.8739 33.8136 71.4818 33.7495 71.0137 33.6252C70.4055 33.5009 69.3892 33.3045 67.9647 33.0399C67.3845 32.9316 66.9324 32.8354 66.6043 32.7592C66.2922 32.679 65.9961 32.5868 65.712 32.4786C65.4159 32.3543 65.2038 32.23 65.0798 32.1017C64.9558 31.9934 64.8437 31.821 64.7517 31.5845C64.6437 31.3479 64.5796 31.1074 64.5636 30.8548C64.5316 30.6062 64.5156 30.2695 64.5156 29.8445V29.1388C64.5156 28.4813 64.5236 28.1044 64.5396 28.0122C64.5716 27.6033 64.7437 27.2465 65.0558 26.9297C65.3679 26.613 65.704 26.4606 66.0641 26.4606C66.2042 26.4606 66.3082 26.4767 66.3682 26.5088C66.7763 26.6812 67.0804 26.9257 67.2845 27.2384C67.4886 27.5672 67.6446 28.0443 67.7527 28.6698C67.8327 29.203 67.8927 29.4917 67.9407 29.5398C67.9887 29.5879 68.3248 29.632 68.949 29.6801C69.5892 29.7442 70.1134 29.7723 70.5215 29.7723C70.7576 29.7723 70.8816 29.7643 70.8976 29.7482C70.9897 29.64 71.0937 29.1148 71.2017 28.1726C71.2337 27.8438 71.2858 27.3667 71.3658 26.7413C71.2097 26.5849 70.8896 26.2802 70.4055 25.8232C69.8413 25.2739 69.1931 24.7206 68.4609 24.1553C67.6966 23.5619 67.0244 22.9646 66.4442 22.3712C65.8641 21.7778 65.5359 21.3208 65.4599 21.008C65.4119 20.8517 65.3879 20.6713 65.3879 20.4668C65.3879 19.9977 65.764 18.9713 66.5123 17.3877C67.2165 15.8681 67.5806 15.0623 67.6126 14.9661C67.7206 14.6694 67.9247 14.3727 68.2208 14.072C68.5169 13.7593 68.793 13.5628 69.0411 13.4866L69.0451 13.4907Z" fill="white"/>
<path d="M82.4305 14.5253C82.6345 14.4772 82.8386 14.4531 83.0386 14.4531C83.6028 14.4531 84.103 14.6095 84.5391 14.9222C84.9753 15.251 85.2954 15.704 85.4994 16.2854C85.7795 17.1474 86.0076 18.6909 86.1796 20.9121C86.2117 21.4613 86.2277 21.9465 86.2277 22.3674C86.2277 24.1836 86.1116 26.1482 85.8755 28.2651C85.6275 30.3659 85.3754 31.6088 85.1233 32.0017C84.9673 32.2383 84.7392 32.4387 84.4431 32.6111C84.163 32.7835 83.8869 32.8677 83.6228 32.8677C83.3868 32.8677 83.1227 32.7835 82.8266 32.6111C82.5305 32.4387 82.3104 32.2423 82.1704 32.0258C81.9823 31.7291 81.8903 31.1798 81.8903 30.382C81.8903 29.7886 81.9623 28.6299 82.1024 26.9059C82.1504 26.4689 82.2664 24.9334 82.4545 22.3033C82.4865 22.0387 82.5185 21.6297 82.5465 21.0805C82.4064 21.0965 82.1144 21.1286 81.6782 21.1727C81.038 21.2368 80.6619 21.2649 80.5539 21.2649C80.4298 21.2649 80.3418 21.297 80.2978 21.3571C80.2498 21.4373 80.2138 21.6057 80.1817 21.8743C80.1657 21.9665 80.1577 22.4917 80.1577 23.4499C80.1577 24.0593 80.1737 25.2741 80.2058 27.0903C80.2378 29.0789 80.2538 30.1775 80.2538 30.378C80.2538 31.3161 80.2298 31.8814 80.1817 32.0699C80.0897 32.3505 79.8857 32.6031 79.5736 32.8236C79.2775 33.0441 78.9734 33.1524 78.6573 33.1524C77.921 33.1524 77.4049 32.7514 77.1088 31.9536C76.7967 31.1718 76.6406 29.8327 76.6406 27.9363C76.6406 27.4031 76.6486 26.918 76.6646 26.4809C76.7127 25.2902 76.7887 24.2117 76.9007 23.2374C77.0087 22.3434 77.2048 21.0845 77.4849 19.4567C77.765 17.8129 77.953 16.8707 78.0491 16.6382C78.4092 15.7441 79.8696 15.0425 82.4345 14.5253H82.4305ZM82.9226 16.9429V16.8707C82.9226 16.7625 82.9146 16.6823 82.8986 16.6342C82.8986 16.5861 82.8826 16.55 82.8506 16.5179C82.8186 16.4858 82.7586 16.4698 82.6625 16.4698C82.5065 16.4698 82.0463 16.562 81.2781 16.7504C81.01 16.8146 80.6139 16.9068 80.0817 17.0311V19.4046C80.1617 19.3885 80.3098 19.3645 80.5259 19.3324C80.5899 19.3164 81.034 19.2683 81.8623 19.1921C82.0503 19.16 82.3304 19.1199 82.7065 19.0758C82.7225 18.9515 82.7626 18.6829 82.8226 18.278C82.8866 17.6686 82.9146 17.2195 82.9146 16.9389L82.9226 16.9429Z" fill="white"/>
<path d="M88.8535 13.5637C88.9776 13.5317 89.4017 13.5156 90.1179 13.5156C90.7101 13.5156 91.1823 13.5236 91.5264 13.5397C92.9348 13.5718 93.7991 13.6479 94.1272 13.7762C94.4393 13.8845 94.6114 14.1691 94.6434 14.6222C94.6434 14.6382 94.6514 14.6783 94.6674 14.7385V14.8547C94.6674 15.0752 94.5513 15.2757 94.3153 15.4641C94.1112 15.6365 93.8231 15.7207 93.447 15.7207C93.0709 15.7207 92.7828 15.7047 92.5307 15.6726C92.2186 15.6566 91.7665 15.6165 91.1703 15.5563C91.1703 15.6646 91.1943 15.8851 91.2423 16.2139C91.3063 16.6669 91.3343 17.4688 91.3343 18.6114V20.4196H92.3666C93.2709 20.4196 93.9071 20.5198 94.2672 20.7243C94.6114 20.9288 94.7834 21.2896 94.7834 21.8068C94.7834 22.1356 94.6834 22.4042 94.4793 22.6046C94.2752 22.8252 93.9952 22.9494 93.635 22.9815C93.415 22.9976 93.1429 23.0136 92.8148 23.0296C92.4867 23.0457 92.2066 23.0617 91.9705 23.0777C91.8785 23.0777 91.7224 23.0858 91.5024 23.1018C91.4864 23.6671 91.4544 24.8097 91.4103 26.5297C91.3623 28.1254 91.3183 29.6529 91.2703 31.1123C91.2383 31.9583 91.0902 32.5757 90.8262 32.9686C90.5781 33.3615 90.178 33.554 89.6298 33.554C89.2857 33.554 89.0136 33.4898 88.8095 33.3655C88.6055 33.2412 88.4014 32.9967 88.2013 32.6358C87.6532 31.7137 87.273 28.7749 87.053 23.8275C86.9889 21.9632 86.9609 20.8045 86.9609 20.3514C86.9609 18.8961 87.085 17.549 87.3371 16.3101C87.5251 15.3398 87.7212 14.6663 87.9212 14.2894C88.1253 13.9286 88.4374 13.688 88.8575 13.5597L88.8535 13.5637Z" fill="white"/>
<path d="M101.321 14.5253C101.525 14.4772 101.729 14.4531 101.929 14.4531C102.493 14.4531 102.994 14.6095 103.43 14.9222C103.866 15.251 104.186 15.704 104.39 16.2854C104.67 17.1474 104.898 18.6909 105.07 20.9121C105.102 21.4613 105.118 21.9465 105.118 22.3674C105.118 24.1836 105.002 26.1482 104.766 28.2651C104.518 30.3659 104.266 31.6088 104.014 32.0017C103.858 32.2383 103.63 32.4387 103.334 32.6111C103.054 32.7835 102.778 32.8677 102.513 32.8677C102.277 32.8677 102.013 32.7835 101.717 32.6111C101.421 32.4387 101.201 32.2423 101.061 32.0258C100.873 31.7291 100.781 31.1798 100.781 30.382C100.781 29.7886 100.853 28.6299 100.993 26.9059C101.041 26.4689 101.157 24.9334 101.345 22.3033C101.377 22.0387 101.409 21.6297 101.437 21.0805C101.297 21.0965 101.005 21.1286 100.569 21.1727C99.9286 21.2368 99.5525 21.2649 99.4445 21.2649C99.3204 21.2649 99.2324 21.297 99.1884 21.3571C99.1404 21.4373 99.1044 21.6057 99.0724 21.8743C99.0564 21.9665 99.0484 22.4917 99.0484 23.4499C99.0484 24.0593 99.0644 25.2741 99.0964 27.0903C99.1284 29.0789 99.1444 30.1775 99.1444 30.378C99.1444 31.3161 99.1204 31.8814 99.0724 32.0699C98.9803 32.3505 98.7763 32.6031 98.4642 32.8236C98.1681 33.0441 97.864 33.1524 97.5479 33.1524C96.8117 33.1524 96.2955 32.7514 95.9994 31.9536C95.6873 31.1718 95.5312 29.8327 95.5312 27.9363C95.5312 27.4031 95.5393 26.918 95.5553 26.4809C95.6033 25.2902 95.6793 24.2117 95.7913 23.2374C95.8994 22.3434 96.0954 21.0845 96.3755 19.4567C96.6556 17.8129 96.8437 16.8707 96.9397 16.6382C97.2998 15.7441 98.7603 15.0425 101.325 14.5253H101.321ZM101.813 16.9429V16.8707C101.813 16.7625 101.805 16.6823 101.789 16.6342C101.789 16.5861 101.773 16.55 101.741 16.5179C101.709 16.4858 101.649 16.4698 101.553 16.4698C101.397 16.4698 100.937 16.562 100.169 16.7504C99.9006 16.8146 99.5045 16.9068 98.9723 17.0311V19.4046C99.0524 19.3885 99.2004 19.3645 99.4165 19.3324C99.4805 19.3164 99.9246 19.2683 100.753 19.1921C100.941 19.16 101.221 19.1199 101.597 19.0758C101.613 18.9515 101.653 18.6829 101.713 18.278C101.777 17.6686 101.805 17.2195 101.805 16.9389L101.813 16.9429Z" fill="white"/>
<path d="M108.008 12.95C108.524 12.7776 109.345 12.6934 110.469 12.6934H110.705C112.174 12.6934 113.206 12.8337 113.798 13.1143C114.374 13.411 114.75 13.9443 114.922 14.71C115.299 16.3538 115.487 18.162 115.487 20.1386C115.487 21.0006 115.439 21.618 115.347 21.9949C115.158 22.6845 114.346 23.5224 112.91 24.5087C112.314 24.9016 112.018 25.1181 112.018 25.1662C112.018 25.2464 112.37 25.5832 113.074 26.1765C114.37 27.3192 115.231 28.1491 115.655 28.6663C116.091 29.1995 116.311 29.6606 116.311 30.0535C116.311 30.4745 116.139 30.8353 115.795 31.136C115.451 31.4487 115.058 31.6051 114.622 31.6051C114.418 31.6051 114.202 31.557 113.966 31.4648C113.81 31.3846 113.154 30.7672 111.997 29.6085C111.605 29.2316 111.029 28.6703 110.261 27.9166C110.277 28.1852 110.317 28.6984 110.377 29.4682C110.441 30.2219 110.469 30.8794 110.469 31.4407C110.469 32.1624 110.377 32.6555 110.189 32.9201C109.737 33.5456 109.165 33.8583 108.476 33.8583C108.18 33.8583 107.896 33.7942 107.632 33.6699C107.224 33.4654 106.952 33.1928 106.812 32.848C106.672 32.5192 106.544 31.8216 106.436 30.7591C106.388 30.2259 106.328 29.5443 106.248 28.7144C106.168 27.8845 106.116 27.2911 106.084 26.9303C106.052 26.5694 106.012 25.9841 105.968 25.1702C105.92 24.3563 105.888 23.37 105.876 22.2114C105.86 21.4576 105.852 20.5676 105.852 19.5332C105.852 18.17 105.924 17.0835 106.064 16.2696C106.236 15.1871 106.456 14.4214 106.72 13.9683C106.984 13.5153 107.416 13.1785 108.008 12.958V12.95ZM111.645 15.4878C111.581 15.4237 111.237 15.3635 110.613 15.2994C110.409 15.2673 110.105 15.2272 109.697 15.1831C109.713 15.2753 109.745 15.4557 109.789 15.7244C109.853 15.993 109.921 17.2359 110.001 19.461C110.017 20.1666 110.041 21.2331 110.073 22.6564C110.509 22.2475 111.165 21.63 112.042 20.8001C112.01 20.2228 111.957 19.3447 111.877 18.17C111.797 16.4621 111.721 15.572 111.641 15.4918L111.645 15.4878Z" fill="white"/>
<path d="M117.992 14.9937C118.196 14.8534 118.42 14.7812 118.672 14.7812C118.984 14.7812 119.281 14.8895 119.565 15.11C120.129 15.5791 120.485 16.5293 120.645 17.9526C120.737 18.8627 120.825 20.4664 120.901 22.7677C120.981 25.053 121.017 26.9334 121.017 28.4048V29.2026C120.985 30.5016 120.925 31.3476 120.829 31.7405C120.737 32.1334 120.501 32.5062 120.125 32.8671C119.845 33.1357 119.477 33.268 119.024 33.268C118.728 33.268 118.516 33.2439 118.392 33.1958C118.268 33.1317 118.088 32.9753 117.852 32.7267C117.492 32.3178 117.272 31.953 117.196 31.6242C117.072 31.1391 117.008 28.7496 117.008 24.4596V22.884C117.008 19.7527 117.072 17.7241 117.196 16.7979C117.32 15.8758 117.588 15.2704 117.992 14.9897V14.9937Z" fill="white"/>
<path d="M130.142 13.7284C130.378 13.6803 130.994 13.6562 131.995 13.6562H132.559C133.871 13.6723 134.668 13.7565 134.952 13.9128C135.42 14.1614 135.656 14.4982 135.656 14.9232C135.656 15.2199 135.524 15.5045 135.256 15.7691C135.068 15.9415 134.896 16.0498 134.74 16.0979C134.6 16.13 134.263 16.146 133.731 16.146H132.607C132.591 16.3184 132.559 16.6552 132.515 17.1563C132.467 17.7217 132.443 18.307 132.443 18.9164V19.622H133.427C134.163 19.622 134.692 19.7223 135.02 19.9268C135.332 20.1312 135.488 20.468 135.488 20.9371C135.488 21.314 135.276 21.6106 134.856 21.8312C134.448 22.0517 133.903 22.1599 133.215 22.1599H132.463C132.447 22.6771 132.423 23.6874 132.391 25.1909C132.375 25.6279 132.367 26.2814 132.367 27.1394C132.367 28.1417 132.383 28.9316 132.415 29.5129C132.431 29.7815 132.455 30.1945 132.487 30.7598C132.831 30.7598 133.331 30.7518 133.987 30.7357C134.644 30.7197 135.136 30.7117 135.464 30.7117C135.544 30.8039 135.66 30.9402 135.816 31.1126C136.052 31.3933 136.168 31.6779 136.168 31.9586C136.168 32.3675 135.956 32.6802 135.536 32.8967C135.3 33.021 134.692 33.1533 133.707 33.2977C132.723 33.442 131.919 33.5102 131.291 33.5102C131.243 33.5102 131.183 33.5021 131.102 33.4861H130.938C130.406 33.438 129.97 33.3297 129.626 33.1573C129.298 32.9849 129.01 32.7484 128.758 32.4517C128.522 32.123 128.342 31.6378 128.218 30.9963C128.094 30.3549 127.998 29.6172 127.937 28.7872C127.873 27.9413 127.829 26.8227 127.797 25.4275C127.781 24.9423 127.773 24.2768 127.773 23.4309C127.773 20.1874 128.038 17.5813 128.57 15.6088C128.758 14.9031 128.946 14.434 129.134 14.1975C129.322 13.977 129.658 13.8206 130.142 13.7284Z" fill="white"/>
<path d="M145.87 13.0465C146.166 12.9062 146.37 12.834 146.478 12.834C146.586 12.834 146.758 12.9262 146.994 13.1146C147.29 13.3632 147.438 13.7722 147.438 14.3375C147.438 15.3879 146.806 17.7133 145.538 21.3136C145.365 21.7827 145.117 22.4883 144.785 23.4265C144.877 23.6951 145.057 24.2163 145.325 25.0021C145.514 25.5835 146.006 26.8263 146.802 28.7388C147.41 30.1621 147.718 31.1042 147.718 31.5573C147.718 31.8059 147.646 32.0584 147.506 32.311C147.398 32.4995 147.202 32.6799 146.922 32.8523C146.654 33.0086 146.422 33.0888 146.218 33.0888C145.75 33.0888 145.301 32.8443 144.881 32.3591C144.473 31.874 143.965 31.004 143.357 29.7531C143.201 29.4404 142.973 28.9713 142.677 28.3418C142.569 28.6225 142.333 29.2038 141.972 30.0819C141.408 31.5052 140.996 32.4554 140.728 32.9244C140.48 33.3775 140.172 33.6902 139.812 33.8626C139.468 34.035 139.148 34.1192 138.851 34.1192C138.195 34.1192 137.639 33.7744 137.187 33.0848C136.983 32.8042 136.883 32.4834 136.883 32.1226C136.883 31.7136 137.031 31.0521 137.327 30.126C138.047 27.9169 138.859 25.82 139.764 23.8314C139.888 23.5828 140.068 23.198 140.304 22.6808C140.18 22.2718 139.92 21.4459 139.532 20.191C138.703 17.5449 138.287 15.7888 138.287 14.9308C138.287 14.7905 138.303 14.6422 138.335 14.4858C138.415 14.157 138.547 13.9005 138.735 13.712C139.031 13.4755 139.368 13.3592 139.744 13.3592C140.228 13.3592 140.62 13.5316 140.916 13.8764C141.276 14.2974 141.816 15.42 142.533 17.2362C142.581 17.3444 142.641 17.5088 142.721 17.7293C142.829 17.5248 143.041 17.1279 143.353 16.5305C143.821 15.6685 144.289 14.9108 144.761 14.2533C145.245 13.5957 145.614 13.1948 145.862 13.0545L145.87 13.0465Z" fill="white"/>
<path d="M150.021 13.796C150.209 13.7158 150.889 13.6797 152.062 13.6797H152.906C154.627 13.7118 155.695 13.82 156.119 14.0084C156.511 14.1808 156.783 14.3613 156.939 14.5497C157.111 14.7381 157.259 15.0268 157.383 15.4197C157.679 16.2657 157.828 17.8413 157.828 20.1426C157.828 22.039 157.711 23.2338 157.475 23.7349C157.319 24.0637 156.959 24.5167 156.395 25.0981C155.815 25.6634 155.255 26.1245 154.707 26.4853C154.534 26.5936 154.298 26.7419 154.002 26.9303C153.706 27.1188 153.534 27.227 153.486 27.2591L153.066 27.5397C153.082 27.9006 153.106 28.6343 153.138 29.7488C153.154 30.1698 153.162 30.6429 153.162 31.1601C153.162 31.7254 153.07 32.1945 152.882 32.5714C152.462 33.3371 151.874 33.722 151.125 33.722C150.749 33.722 150.397 33.6058 150.069 33.3692C149.649 33.0725 149.381 32.6636 149.273 32.1464C149.149 31.6292 149.037 30.4304 148.945 28.5541C148.853 26.5976 148.749 24.8174 148.641 23.2218C148.533 21.8586 148.477 20.3872 148.477 18.8035C148.477 17.0034 148.549 15.8888 148.689 15.4678C148.893 14.7622 149.337 14.2089 150.025 13.8L150.021 13.796ZM154.03 16.6866C153.89 16.6385 153.662 16.6145 153.35 16.6145C153.178 16.6145 153.062 16.6385 152.998 16.6866C152.934 16.7348 152.89 16.843 152.858 17.0154C152.81 17.2359 152.786 17.6809 152.786 18.3545C152.786 19.3247 152.818 20.3912 152.878 21.5499C152.958 22.7086 153.026 23.334 153.09 23.4302H153.114C153.206 23.4302 153.402 23.33 153.698 23.1255C153.994 22.9211 154.174 22.7567 154.238 22.6324C154.318 22.5081 154.354 21.9107 154.354 20.8483C154.354 20.299 154.346 19.87 154.33 19.5573C154.298 18.1941 154.274 17.3802 154.258 17.1156C154.226 16.8671 154.15 16.7227 154.022 16.6947L154.03 16.6866Z" fill="white"/>
<path d="M160.923 13.7284C161.16 13.6803 161.776 13.6562 162.776 13.6562H163.34C164.653 13.6723 165.449 13.7565 165.733 13.9128C166.201 14.1614 166.437 14.4982 166.437 14.9232C166.437 15.2199 166.305 15.5045 166.037 15.7691C165.849 15.9415 165.677 16.0498 165.521 16.0979C165.381 16.13 165.045 16.146 164.513 16.146H163.388C163.372 16.3184 163.34 16.6552 163.296 17.1563C163.248 17.7217 163.224 18.307 163.224 18.9164V19.622H164.208C164.945 19.622 165.473 19.7223 165.801 19.9268C166.113 20.1312 166.269 20.468 166.269 20.9371C166.269 21.314 166.057 21.6106 165.637 21.8312C165.229 22.0517 164.685 22.1599 163.996 22.1599H163.244C163.228 22.6771 163.204 23.6874 163.172 25.1909C163.156 25.6279 163.148 26.2814 163.148 27.1394C163.148 28.1417 163.164 28.9316 163.196 29.5129C163.212 29.7815 163.236 30.1945 163.268 30.7598C163.612 30.7598 164.112 30.7518 164.769 30.7357C165.425 30.7197 165.917 30.7117 166.245 30.7117C166.325 30.8039 166.441 30.9402 166.597 31.1126C166.833 31.3933 166.949 31.6779 166.949 31.9586C166.949 32.3675 166.737 32.6802 166.317 32.8967C166.081 33.021 165.473 33.1533 164.489 33.2977C163.504 33.442 162.7 33.5102 162.072 33.5102C162.024 33.5102 161.964 33.5021 161.884 33.4861H161.72C161.188 33.438 160.751 33.3297 160.407 33.1573C160.079 32.9849 159.791 32.7484 159.539 32.4517C159.303 32.123 159.123 31.6378 158.999 30.9963C158.875 30.3549 158.779 29.6172 158.719 28.7872C158.655 27.9413 158.611 26.8227 158.579 25.4275C158.563 24.9423 158.555 24.2768 158.555 23.4309C158.555 20.1874 158.819 17.5813 159.351 15.6088C159.539 14.9031 159.727 14.434 159.915 14.1975C160.103 13.977 160.439 13.8206 160.923 13.7284Z" fill="white"/>
<path d="M169.836 12.95C170.353 12.7776 171.173 12.6934 172.297 12.6934H172.533C174.002 12.6934 175.034 12.8337 175.626 13.1143C176.202 13.411 176.579 13.9443 176.751 14.71C177.127 16.3538 177.315 18.162 177.315 20.1386C177.315 21.0006 177.267 21.618 177.175 21.9949C176.987 22.6845 176.174 23.5224 174.738 24.5087C174.142 24.9016 173.846 25.1181 173.846 25.1662C173.846 25.2464 174.198 25.5832 174.902 26.1765C176.198 27.3192 177.059 28.1491 177.483 28.6663C177.919 29.1995 178.139 29.6606 178.139 30.0535C178.139 30.4745 177.967 30.8353 177.623 31.136C177.279 31.4487 176.887 31.6051 176.45 31.6051C176.246 31.6051 176.03 31.557 175.794 31.4648C175.638 31.3846 174.982 30.7672 173.826 29.6085C173.434 29.2316 172.857 28.6703 172.089 27.9166C172.105 28.1852 172.145 28.6984 172.205 29.4682C172.269 30.2219 172.297 30.8794 172.297 31.4407C172.297 32.1624 172.205 32.6555 172.017 32.9201C171.565 33.5456 170.993 33.8583 170.305 33.8583C170.008 33.8583 169.724 33.7942 169.46 33.6699C169.052 33.4654 168.78 33.1928 168.64 32.848C168.5 32.5192 168.372 31.8216 168.264 30.7591C168.216 30.2259 168.156 29.5443 168.076 28.7144C167.996 27.8845 167.944 27.2911 167.912 26.9303C167.88 26.5694 167.84 25.9841 167.796 25.1702C167.748 24.3563 167.716 23.37 167.704 22.2114C167.688 21.4576 167.68 20.5676 167.68 19.5332C167.68 18.17 167.752 17.0835 167.892 16.2696C168.064 15.1871 168.284 14.4214 168.548 13.9683C168.812 13.5153 169.244 13.1785 169.836 12.958V12.95ZM173.47 15.4878C173.405 15.4237 173.061 15.3635 172.437 15.2994C172.233 15.2673 171.929 15.2272 171.521 15.1831C171.537 15.2753 171.569 15.4557 171.613 15.7244C171.677 15.993 171.745 17.2359 171.825 19.461C171.841 20.1666 171.865 21.2331 171.897 22.6564C172.333 22.2475 172.989 21.63 173.866 20.8001C173.834 20.2228 173.782 19.3447 173.702 18.17C173.622 16.4621 173.546 15.572 173.466 15.4918L173.47 15.4878Z" fill="white"/>
<path d="M182.048 13.6788C182.596 13.6307 183.885 13.5946 185.917 13.5625H186.95C188.198 13.5625 188.95 13.6427 189.198 13.799C189.699 14.1278 189.951 14.5809 189.951 15.1622C189.935 15.6794 189.771 16.0643 189.459 16.3129C189.162 16.5614 188.622 16.7218 187.842 16.7819C187.09 16.8461 186.702 16.8902 186.67 16.9223C186.654 16.9864 186.646 17.0706 186.646 17.1789C186.646 17.4916 186.67 17.9166 186.718 18.4458C186.798 19.7127 186.834 21.7414 186.834 24.5319C186.834 26.9735 186.802 28.5892 186.742 29.3711C186.65 30.6861 186.446 31.6724 186.133 32.3299C185.821 32.9874 185.369 33.3803 184.773 33.5046C184.585 33.5367 184.453 33.5527 184.373 33.5527C183.545 33.5527 182.936 32.9794 182.544 31.8368C182.372 31.3196 182.288 30.662 182.288 29.8642V28.7817C182.304 27.9357 182.328 27.1459 182.36 26.4082C182.408 25.6705 182.468 24.8566 182.548 23.9666C182.628 23.0725 182.68 22.3308 182.712 21.7334C182.82 20.0415 182.892 18.975 182.924 18.538C182.94 18.2574 182.972 17.8404 183.017 17.2911H181.772C180.412 17.2911 179.527 16.9704 179.123 16.3289C178.951 16.0643 178.867 15.8197 178.867 15.5992C178.867 15.2223 179.055 14.8695 179.431 14.5408C179.932 14.0877 180.808 13.799 182.056 13.6707L182.048 13.6788Z" fill="white"/>
<path d="M67.2209 49.9348C66.7687 49.9348 66.3726 49.8627 66.0325 49.7183C65.6964 49.574 65.4123 49.3816 65.1842 49.133C64.9561 48.8844 64.7881 48.5917 64.6721 48.259C64.556 47.9222 64.5 47.5654 64.5 47.1805V45.1077C64.5 44.7388 64.552 44.386 64.652 44.0532C64.7521 43.7205 64.9121 43.4318 65.1282 43.1792C65.3443 42.9266 65.6244 42.7302 65.9685 42.5818C66.3126 42.4335 66.7287 42.3613 67.2169 42.3613C67.705 42.3613 68.1211 42.4335 68.4653 42.5818C68.8094 42.7302 69.0895 42.9266 69.3055 43.1792C69.5216 43.4318 69.6816 43.7205 69.7817 44.0532C69.8817 44.386 69.9337 44.7348 69.9337 45.1077V47.1805C69.9337 47.5654 69.8777 47.9222 69.7617 48.259C69.6456 48.5957 69.4776 48.8844 69.2495 49.133C69.0214 49.3816 68.7413 49.578 68.4012 49.7183C68.0651 49.8627 67.669 49.9348 67.2129 49.9348H67.2209ZM67.2209 43.6924C66.7607 43.6924 66.4366 43.8207 66.2486 44.0813C66.0605 44.3379 65.9645 44.6827 65.9645 45.1077V47.1805C65.9645 47.5974 66.0645 47.9422 66.2686 48.2068C66.4686 48.4715 66.7887 48.6038 67.2209 48.6038C67.653 48.6038 67.9691 48.4715 68.1732 48.2068C68.3772 47.9422 68.4773 47.5974 68.4773 47.1805V45.1077C68.4773 44.6827 68.3852 44.3379 68.1932 44.0813C68.0051 43.8247 67.681 43.6924 67.2209 43.6924Z" fill="white"/>
<path d="M76.23 47.3249C76.23 47.7018 76.17 48.0506 76.054 48.3673C75.9339 48.6841 75.7659 48.9607 75.5418 49.1932C75.3177 49.4258 75.0417 49.6102 74.7176 49.7385C74.3935 49.8668 74.0213 49.9309 73.6092 49.9309C73.1971 49.9309 72.817 49.8628 72.4888 49.7305C72.1607 49.5982 71.8847 49.4177 71.6646 49.1852C71.4405 48.9567 71.2725 48.68 71.1564 48.3633C71.0404 48.0466 70.9844 47.6978 70.9844 47.3209V43.047C70.9844 42.8425 71.0564 42.6782 71.2004 42.5499C71.3445 42.4216 71.5205 42.3574 71.7286 42.3574C71.9247 42.3574 72.0927 42.4256 72.2368 42.5619C72.3808 42.6982 72.4528 42.8586 72.4528 43.047V47.3209C72.4528 47.6978 72.5449 48.0065 72.7369 48.243C72.925 48.4796 73.2171 48.5999 73.6132 48.5999C74.0093 48.5999 74.3014 48.4796 74.4855 48.243C74.6695 48.0065 74.7616 47.6978 74.7616 47.3209V43.047C74.7616 42.8666 74.8296 42.7062 74.9696 42.5659C75.1097 42.4256 75.2817 42.3574 75.4818 42.3574C75.6979 42.3574 75.8779 42.4256 76.022 42.5659C76.166 42.7062 76.238 42.8666 76.238 43.047V47.3209L76.23 47.3249Z" fill="white"/>
<path d="M82.6746 44.6744C82.6746 45.1996 82.5465 45.6286 82.2865 45.9613C82.0304 46.2981 81.6743 46.5387 81.2181 46.683L82.6506 48.84C82.7346 48.9723 82.7706 49.1046 82.7586 49.2329C82.7466 49.3612 82.7066 49.4775 82.6346 49.5777C82.5626 49.6779 82.4705 49.7621 82.3585 49.8223C82.2465 49.8864 82.1304 49.9185 82.0144 49.9185C81.7423 49.9185 81.5382 49.8102 81.3982 49.5937L79.6416 46.8394H78.9294V49.2369C78.9294 49.4173 78.8574 49.5777 78.7093 49.718C78.5613 49.8584 78.3892 49.9265 78.1852 49.9265C77.9811 49.9265 77.8211 49.8584 77.677 49.722C77.533 49.5857 77.4609 49.4254 77.4609 49.2369V43.203C77.4609 42.9985 77.541 42.8221 77.697 42.6737C77.8531 42.5254 78.0411 42.4492 78.2572 42.4492H80.0778C80.5739 42.4492 80.9861 42.5134 81.3182 42.6417C81.6503 42.77 81.9143 42.9383 82.1144 43.1508C82.3145 43.3593 82.4545 43.5959 82.5425 43.8645C82.6306 44.1291 82.6746 44.3977 82.6746 44.6704V44.6744ZM81.2101 44.6744C81.2101 44.5621 81.1941 44.4539 81.1621 44.3496C81.1301 44.2454 81.0701 44.1492 80.986 44.065C80.902 43.9808 80.778 43.9126 80.6259 43.8605C80.4739 43.8084 80.2778 43.7803 80.0418 43.7803H78.9334V45.5203H80.1058C80.4659 45.5203 80.742 45.4482 80.93 45.2998C81.1181 45.1515 81.2141 44.943 81.2141 44.6704L81.2101 44.6744Z" fill="white"/>
<path d="M91.5007 49.1567C91.5007 49.3452 91.4286 49.5055 91.2886 49.6378C91.1445 49.7701 90.9725 49.8383 90.7724 49.8383H88.0036C87.7475 49.8383 87.5194 49.7862 87.3233 49.6739C87.1273 49.5657 87.0312 49.3732 87.0312 49.0926V43.1949C87.0312 43.0145 87.1073 42.8421 87.2633 42.6858C87.4154 42.5294 87.6074 42.4492 87.8395 42.4492H90.6724C90.8765 42.4492 91.0485 42.5174 91.1886 42.6537C91.3286 42.79 91.4046 42.9504 91.4046 43.1308C91.4046 43.3112 91.3326 43.4756 91.1886 43.5959C91.0445 43.7202 90.8725 43.7803 90.6724 43.7803H88.4997V45.4682H90.4763C90.6564 45.4682 90.8244 45.5323 90.9725 45.6566C91.1205 45.7809 91.1966 45.9413 91.1966 46.1297C91.1966 46.3182 91.1285 46.4785 90.9885 46.6068C90.8485 46.7351 90.6764 46.7993 90.4763 46.7993H88.4997V48.5072H90.7804C90.9765 48.5072 91.1445 48.5714 91.2926 48.6957C91.4406 48.82 91.5127 48.9763 91.5127 49.1567H91.5007Z" fill="white"/>
<path d="M93.5523 49.5141V49.502C93.4963 49.5983 93.4163 49.6945 93.3122 49.7907C93.2082 49.8869 93.0642 49.931 92.8841 49.931C92.704 49.931 92.532 49.8629 92.3879 49.7226C92.2439 49.5822 92.1719 49.4259 92.1719 49.2495C92.1719 49.1933 92.1839 49.1292 92.2039 49.061C92.2239 48.9929 92.2479 48.9367 92.2759 48.8926L94.0845 46.002L92.42 43.3719C92.3639 43.2596 92.3359 43.1393 92.3359 43.015C92.3359 42.8467 92.4039 42.6943 92.544 42.558C92.684 42.4217 92.8481 42.3535 93.0361 42.3535C93.1962 42.3535 93.3362 42.4016 93.4603 42.5019C93.5803 42.5981 93.6804 42.7103 93.7564 42.8386L94.9367 44.7871L96.1171 42.8386C96.1851 42.7424 96.2812 42.6382 96.4012 42.5259C96.5212 42.4137 96.6693 42.3575 96.8494 42.3575C97.0294 42.3575 97.1895 42.4257 97.3295 42.558C97.4695 42.6903 97.5376 42.8467 97.5376 43.0311C97.5376 43.0872 97.5296 43.1433 97.5136 43.2035C97.4976 43.2636 97.4735 43.3198 97.4455 43.3759L95.793 46.006L97.6016 48.8966C97.6296 48.9367 97.6536 48.9929 97.6736 49.065C97.6936 49.1332 97.7056 49.1973 97.7056 49.2535C97.7056 49.4299 97.6336 49.5862 97.4896 49.7266C97.3455 49.8669 97.1855 49.935 97.0054 49.935C96.8253 49.935 96.6813 49.8909 96.5773 49.7987C96.4732 49.7065 96.3892 49.6143 96.3252 49.5141L94.9327 47.2087L93.5403 49.5141H93.5523Z" fill="white"/>
<path d="M99.9645 47.3263V49.2428C99.9645 49.4232 99.8924 49.5836 99.7484 49.7239C99.6043 49.8642 99.4323 49.9324 99.2322 49.9324C99.0322 49.9324 98.8681 49.8642 98.7201 49.7279C98.572 49.5916 98.5 49.4312 98.5 49.2428V43.2088C98.5 43.0043 98.58 42.8279 98.7401 42.6796C98.9001 42.5313 99.0922 42.4551 99.3163 42.4551H100.853C101.349 42.4551 101.765 42.5232 102.101 42.6596C102.437 42.7959 102.713 42.9763 102.921 43.2048C103.129 43.4333 103.282 43.6899 103.378 43.9866C103.474 44.2793 103.518 44.588 103.518 44.9088C103.518 45.2936 103.454 45.6384 103.33 45.9391C103.205 46.2438 103.025 46.4964 102.789 46.6969C102.557 46.9014 102.277 47.0537 101.949 47.162C101.621 47.2702 101.257 47.3223 100.853 47.3223H99.9645V47.3263ZM99.9645 45.9953H100.853C101.249 45.9953 101.549 45.9071 101.753 45.7266C101.957 45.5462 102.057 45.2696 102.057 44.8927C102.057 44.7524 102.041 44.6161 102.009 44.4838C101.977 44.3515 101.917 44.2312 101.825 44.1269C101.733 44.0227 101.609 43.9385 101.453 43.8744C101.297 43.8102 101.097 43.7781 100.853 43.7781H99.9645V45.9872V45.9953Z" fill="white"/>
<path d="M108.93 49.1567C108.93 49.3452 108.858 49.5055 108.718 49.6378C108.574 49.7701 108.402 49.8383 108.202 49.8383H105.433C105.177 49.8383 104.949 49.7862 104.753 49.6739C104.557 49.5657 104.461 49.3732 104.461 49.0926V43.1949C104.461 43.0145 104.537 42.8421 104.693 42.6858C104.845 42.5294 105.037 42.4492 105.269 42.4492H108.102C108.306 42.4492 108.478 42.5174 108.618 42.6537C108.758 42.79 108.834 42.9504 108.834 43.1308C108.834 43.3112 108.762 43.4756 108.618 43.5959C108.474 43.7202 108.302 43.7803 108.102 43.7803H105.929V45.4682H107.906C108.086 45.4682 108.254 45.5323 108.402 45.6566C108.55 45.7809 108.626 45.9413 108.626 46.1297C108.626 46.3182 108.558 46.4785 108.418 46.6068C108.278 46.7351 108.106 46.7993 107.906 46.7993H105.929V48.5072H108.21C108.406 48.5072 108.574 48.5714 108.722 48.6957C108.87 48.82 108.942 48.9763 108.942 49.1567H108.93Z" fill="white"/>
<path d="M115.042 44.6744C115.042 45.1996 114.914 45.6286 114.654 45.9613C114.398 46.2981 114.041 46.5387 113.585 46.683L115.018 48.84C115.102 48.9723 115.138 49.1046 115.126 49.2329C115.114 49.3612 115.074 49.4775 115.002 49.5777C114.93 49.6779 114.838 49.7621 114.726 49.8223C114.614 49.8864 114.498 49.9185 114.382 49.9185C114.109 49.9185 113.905 49.8102 113.765 49.5937L112.009 46.8394H111.297V49.2369C111.297 49.4173 111.225 49.5777 111.077 49.718C110.928 49.8584 110.756 49.9265 110.552 49.9265C110.348 49.9265 110.188 49.8584 110.044 49.722C109.9 49.5857 109.828 49.4254 109.828 49.2369V43.203C109.828 42.9985 109.908 42.8221 110.064 42.6737C110.22 42.5254 110.408 42.4492 110.624 42.4492H112.445C112.941 42.4492 113.353 42.5134 113.685 42.6417C114.017 42.77 114.282 42.9383 114.482 43.1508C114.682 43.3593 114.822 43.5959 114.91 43.8645C114.998 44.1291 115.042 44.3977 115.042 44.6704V44.6744ZM113.577 44.6744C113.577 44.5621 113.561 44.4539 113.529 44.3496C113.497 44.2454 113.437 44.1492 113.353 44.065C113.269 43.9808 113.145 43.9126 112.993 43.8605C112.841 43.8084 112.645 43.7803 112.409 43.7803H111.301V45.5203H112.473C112.833 45.5203 113.109 45.4482 113.297 45.2998C113.485 45.1515 113.581 44.943 113.581 44.6704L113.577 44.6744Z" fill="white"/>
<path d="M117.528 43.7862H116.42C116.212 43.7862 116.036 43.722 115.896 43.5937C115.756 43.4654 115.688 43.3091 115.688 43.1286C115.688 43.0525 115.707 42.9763 115.744 42.8961C115.784 42.8199 115.836 42.7478 115.9 42.6796C115.968 42.6154 116.044 42.5593 116.132 42.5192C116.22 42.4751 116.316 42.4551 116.42 42.4551H120.101C120.289 42.4551 120.461 42.5192 120.613 42.6475C120.765 42.7758 120.845 42.9362 120.845 43.1246C120.845 43.3131 120.773 43.4614 120.625 43.5897C120.477 43.718 120.305 43.7821 120.101 43.7821H118.993V49.2628C118.993 49.4432 118.921 49.5996 118.776 49.7359C118.632 49.8682 118.46 49.9364 118.26 49.9364C118.06 49.9364 117.884 49.8682 117.744 49.7359C117.604 49.6036 117.528 49.4472 117.528 49.2628V43.7821V43.7862Z" fill="white"/>
<path d="M121.711 43.031C121.711 42.8506 121.783 42.6942 121.927 42.5579C122.071 42.4256 122.243 42.3574 122.443 42.3574C122.643 42.3574 122.819 42.4256 122.959 42.5579C123.103 42.6902 123.175 42.8466 123.175 43.031V49.2654C123.175 49.4458 123.103 49.6022 122.959 49.7385C122.815 49.8708 122.643 49.939 122.443 49.939C122.243 49.939 122.067 49.8708 121.927 49.7385C121.787 49.6062 121.711 49.4498 121.711 49.2654V43.031Z" fill="white"/>
<path d="M127.501 47.7017C127.501 47.4651 127.453 47.2967 127.361 47.2005C127.269 47.1043 127.173 47.0321 127.073 46.992C126.961 46.9439 126.841 46.8958 126.713 46.8517C126.585 46.8076 126.449 46.7595 126.309 46.7114C126.053 46.6352 125.797 46.551 125.541 46.4548C125.285 46.3626 125.057 46.2343 124.856 46.0779C124.652 45.9216 124.492 45.7171 124.364 45.4685C124.24 45.2199 124.176 44.9072 124.176 44.5303C124.176 43.8528 124.392 43.3236 124.828 42.9387C125.265 42.5538 125.853 42.3613 126.601 42.3613C126.753 42.3613 126.949 42.3734 127.185 42.3974C127.421 42.4215 127.653 42.4696 127.881 42.5377C128.109 42.6059 128.302 42.7021 128.462 42.8264C128.622 42.9507 128.702 43.1071 128.702 43.3035C128.702 43.4759 128.638 43.6323 128.51 43.7646C128.382 43.8969 128.202 43.965 127.969 43.965C127.873 43.965 127.785 43.953 127.709 43.929C127.633 43.9049 127.549 43.8768 127.457 43.8488C127.361 43.8127 127.249 43.7806 127.121 43.7445C126.997 43.7084 126.841 43.6924 126.661 43.6924C126.537 43.6924 126.413 43.7044 126.289 43.7285C126.169 43.7525 126.061 43.7966 125.969 43.8608C125.877 43.9249 125.805 44.0051 125.749 44.1054C125.693 44.2056 125.665 44.3339 125.665 44.4862C125.665 44.7188 125.717 44.8791 125.817 44.9794C125.917 45.0756 126.013 45.1478 126.105 45.1879C126.245 45.256 126.377 45.3121 126.497 45.3563C126.617 45.3963 126.737 45.4364 126.857 45.4725C127.113 45.5567 127.369 45.6449 127.625 45.7411C127.881 45.8334 128.109 45.9617 128.314 46.118C128.518 46.2744 128.686 46.4748 128.81 46.7194C128.934 46.964 128.998 47.2727 128.998 47.6415C128.998 48.0104 128.93 48.3311 128.798 48.6158C128.666 48.9004 128.486 49.145 128.254 49.3375C128.021 49.5299 127.749 49.6823 127.433 49.7825C127.117 49.8827 126.769 49.9348 126.393 49.9348C126.197 49.9348 125.973 49.9188 125.713 49.8827C125.453 49.8466 125.213 49.7905 124.981 49.7103C124.748 49.6301 124.556 49.5259 124.396 49.3976C124.236 49.2693 124.156 49.1129 124.156 48.9325C124.156 48.7641 124.224 48.6118 124.356 48.4755C124.488 48.3392 124.652 48.271 124.848 48.271C124.924 48.271 125.009 48.283 125.093 48.3071C125.177 48.3311 125.273 48.3592 125.369 48.3953C125.493 48.4354 125.641 48.4835 125.813 48.5316C125.985 48.5797 126.181 48.6038 126.405 48.6038C126.765 48.6038 127.037 48.5276 127.221 48.3752C127.401 48.2229 127.493 47.9984 127.493 47.7057L127.501 47.7017Z" fill="white"/>
<path d="M134.477 49.1567C134.477 49.3452 134.405 49.5055 134.265 49.6378C134.121 49.7701 133.949 49.8383 133.749 49.8383H130.98C130.724 49.8383 130.496 49.7862 130.3 49.6739C130.104 49.5657 130.008 49.3732 130.008 49.0926V43.1949C130.008 43.0145 130.084 42.8421 130.24 42.6858C130.392 42.5294 130.584 42.4492 130.816 42.4492H133.649C133.853 42.4492 134.025 42.5174 134.165 42.6537C134.305 42.79 134.381 42.9504 134.381 43.1308C134.381 43.3112 134.309 43.4756 134.165 43.5959C134.021 43.7202 133.849 43.7803 133.649 43.7803H131.476V45.4682H133.453C133.633 45.4682 133.801 45.5323 133.949 45.6566C134.097 45.7809 134.173 45.9413 134.173 46.1297C134.173 46.3182 134.105 46.4785 133.965 46.6068C133.825 46.7351 133.653 46.7993 133.453 46.7993H131.476V48.5072H133.757C133.953 48.5072 134.121 48.5714 134.269 48.6957C134.417 48.82 134.489 48.9763 134.489 49.1567H134.477Z" fill="white"/>
<path d="M135.586 50.8344C135.594 50.7502 135.61 50.6741 135.638 50.6099C135.666 50.5418 135.698 50.4776 135.738 50.4095C135.778 50.3413 135.814 50.2731 135.846 50.193C135.878 50.1128 135.91 50.0165 135.93 49.9003C135.726 49.8562 135.566 49.764 135.438 49.6156C135.314 49.4673 135.25 49.3029 135.25 49.1145C135.25 48.8899 135.334 48.7015 135.506 48.5451C135.678 48.3888 135.886 48.3086 136.126 48.3086C136.358 48.3086 136.558 48.3848 136.734 48.5411C136.911 48.6935 136.995 48.902 136.995 49.1586C136.995 49.3109 136.967 49.5114 136.915 49.7559C136.863 50.0005 136.79 50.2371 136.702 50.4696C136.61 50.7021 136.506 50.8986 136.39 51.063C136.27 51.2273 136.146 51.3075 136.014 51.3075C135.974 51.3075 135.922 51.3035 135.866 51.2915C135.81 51.2795 135.758 51.2594 135.714 51.2233C135.67 51.1873 135.63 51.1432 135.606 51.083C135.582 51.0229 135.57 50.9427 135.586 50.8384V50.8344Z" fill="white"/>
<path d="M143.442 49.9348C143.234 49.9348 143.058 49.8667 142.914 49.7304C142.769 49.5941 142.697 49.4337 142.697 49.2452V46.9519L140.857 43.3476C140.841 43.3115 140.829 43.2674 140.817 43.2113C140.801 43.1552 140.797 43.099 140.797 43.0429C140.797 42.8625 140.873 42.7021 141.029 42.5658C141.185 42.4295 141.353 42.3613 141.541 42.3613C141.653 42.3613 141.765 42.3854 141.877 42.4335C141.989 42.4816 142.077 42.5618 142.137 42.6741L143.446 45.2721L144.742 42.6741C144.806 42.5618 144.89 42.4816 145.002 42.4335C145.114 42.3854 145.23 42.3613 145.346 42.3613C145.534 42.3613 145.706 42.4295 145.858 42.5658C146.011 42.7021 146.087 42.8625 146.087 43.0429C146.087 43.091 146.079 43.1431 146.063 43.1953C146.047 43.2474 146.031 43.2995 146.015 43.3476L144.186 46.9519V49.2452C144.186 49.4257 144.114 49.586 143.97 49.7264C143.826 49.8667 143.65 49.9348 143.442 49.9348Z" fill="white"/>
<path d="M149.322 49.9348C148.87 49.9348 148.474 49.8627 148.134 49.7183C147.798 49.574 147.514 49.3816 147.286 49.133C147.058 48.8844 146.89 48.5917 146.774 48.259C146.658 47.9222 146.602 47.5654 146.602 47.1805V45.1077C146.602 44.7388 146.654 44.386 146.754 44.0532C146.854 43.7205 147.014 43.4318 147.23 43.1792C147.446 42.9266 147.726 42.7302 148.07 42.5818C148.414 42.4335 148.83 42.3613 149.318 42.3613C149.807 42.3613 150.223 42.4335 150.567 42.5818C150.911 42.7302 151.191 42.9266 151.407 43.1792C151.623 43.4318 151.783 43.7205 151.883 44.0532C151.983 44.386 152.035 44.7348 152.035 45.1077V47.1805C152.035 47.5654 151.979 47.9222 151.863 48.259C151.747 48.5957 151.579 48.8844 151.351 49.133C151.123 49.3816 150.843 49.578 150.503 49.7183C150.167 49.8627 149.771 49.9348 149.314 49.9348H149.322ZM149.322 43.6924C148.862 43.6924 148.538 43.8207 148.35 44.0813C148.162 44.3379 148.066 44.6827 148.066 45.1077V47.1805C148.066 47.5974 148.166 47.9422 148.37 48.2068C148.57 48.4715 148.89 48.6038 149.322 48.6038C149.755 48.6038 150.071 48.4715 150.275 48.2068C150.479 47.9422 150.579 47.5974 150.579 47.1805V45.1077C150.579 44.6827 150.487 44.3379 150.295 44.0813C150.107 43.8247 149.783 43.6924 149.322 43.6924Z" fill="white"/>
<path d="M158.332 47.3249C158.332 47.7018 158.272 48.0506 158.156 48.3673C158.036 48.6841 157.867 48.9607 157.643 49.1932C157.419 49.4258 157.143 49.6102 156.819 49.7385C156.495 49.8668 156.123 49.9309 155.711 49.9309C155.299 49.9309 154.919 49.8628 154.59 49.7305C154.262 49.5982 153.986 49.4177 153.766 49.1852C153.542 48.9567 153.374 48.68 153.258 48.3633C153.142 48.0466 153.086 47.6978 153.086 47.3209V43.047C153.086 42.8425 153.158 42.6782 153.302 42.5499C153.446 42.4216 153.622 42.3574 153.83 42.3574C154.026 42.3574 154.194 42.4256 154.338 42.5619C154.482 42.6982 154.554 42.8586 154.554 43.047V47.3209C154.554 47.6978 154.646 48.0065 154.838 48.243C155.027 48.4796 155.319 48.5999 155.715 48.5999C156.111 48.5999 156.403 48.4796 156.587 48.243C156.771 48.0065 156.863 47.6978 156.863 47.3209V43.047C156.863 42.8666 156.931 42.7062 157.071 42.5659C157.211 42.4256 157.383 42.3574 157.583 42.3574C157.799 42.3574 157.979 42.4256 158.124 42.5659C158.268 42.7062 158.34 42.8666 158.34 43.047V47.3209L158.332 47.3249Z" fill="white"/>
<path d="M164.768 44.6744C164.768 45.1996 164.64 45.6286 164.38 45.9613C164.124 46.2981 163.768 46.5387 163.312 46.683L164.744 48.84C164.828 48.9723 164.864 49.1046 164.852 49.2329C164.84 49.3612 164.8 49.4775 164.728 49.5777C164.656 49.6779 164.564 49.7621 164.452 49.8223C164.34 49.8864 164.224 49.9185 164.108 49.9185C163.836 49.9185 163.632 49.8102 163.492 49.5937L161.735 46.8394H161.023V49.2369C161.023 49.4173 160.951 49.5777 160.803 49.718C160.655 49.8584 160.483 49.9265 160.279 49.9265C160.075 49.9265 159.915 49.8584 159.771 49.722C159.627 49.5857 159.555 49.4254 159.555 49.2369V43.203C159.555 42.9985 159.635 42.8221 159.791 42.6737C159.947 42.5254 160.135 42.4492 160.351 42.4492H162.172C162.668 42.4492 163.08 42.5134 163.412 42.6417C163.744 42.77 164.008 42.9383 164.208 43.1508C164.408 43.3593 164.548 43.5959 164.636 43.8645C164.724 44.1291 164.768 44.3977 164.768 44.6704V44.6744ZM163.304 44.6744C163.304 44.5621 163.288 44.4539 163.256 44.3496C163.224 44.2454 163.164 44.1492 163.08 44.065C162.996 43.9808 162.872 43.9126 162.72 43.8605C162.568 43.8084 162.372 43.7803 162.136 43.7803H161.027V45.5203H162.2C162.56 45.5203 162.836 45.4482 163.024 45.2998C163.212 45.1515 163.308 44.943 163.308 44.6704L163.304 44.6744Z" fill="white"/>
<path d="M174.252 45.5967C174.328 45.8894 174.384 46.1821 174.42 46.4707C174.456 46.7594 174.5 47.0521 174.556 47.3447C174.612 47.0521 174.66 46.7594 174.696 46.4707C174.736 46.1821 174.792 45.8894 174.868 45.5967L175.536 42.9265C175.576 42.7581 175.66 42.6298 175.78 42.5336C175.904 42.4374 176.044 42.3933 176.204 42.3933C176.296 42.3933 176.388 42.4053 176.48 42.4294C176.576 42.4534 176.66 42.4935 176.74 42.5457C176.82 42.5978 176.888 42.6659 176.94 42.7461C176.992 42.8263 177.02 42.9225 177.02 43.0348V43.0869C177.02 43.107 177.012 43.135 177 43.1711L175.432 49.2772C175.376 49.4536 175.284 49.606 175.148 49.7383C175.016 49.8706 174.824 49.9387 174.572 49.9387C174.32 49.9387 174.128 49.8706 173.991 49.7343C173.855 49.598 173.759 49.4416 173.703 49.2692L173.087 46.7033C173.019 46.4306 172.963 46.154 172.931 45.8693C172.899 45.5847 172.855 45.304 172.807 45.0274C172.759 45.308 172.715 45.5887 172.683 45.8693C172.651 46.15 172.595 46.4306 172.527 46.7033L171.899 49.2892C171.851 49.4416 171.763 49.5899 171.643 49.7303C171.523 49.8706 171.319 49.9387 171.043 49.9387C170.826 49.9387 170.638 49.8706 170.482 49.7303C170.326 49.5899 170.222 49.4416 170.174 49.2812L168.638 43.2272C168.63 43.1831 168.622 43.139 168.606 43.0909C168.606 43.0709 168.606 43.0468 168.594 43.0268C168.594 42.9305 168.618 42.8423 168.666 42.7662C168.714 42.69 168.774 42.6218 168.85 42.5657C168.922 42.5096 169.006 42.4695 169.102 42.4414C169.194 42.4133 169.29 42.3973 169.378 42.3973C169.53 42.3973 169.674 42.4374 169.802 42.5176C169.93 42.5978 170.014 42.7261 170.058 42.8985L170.746 45.6007C170.822 45.8854 170.878 46.174 170.914 46.4667C170.951 46.7554 170.995 47.0481 171.051 47.3407C171.107 47.0601 171.151 46.7714 171.187 46.4707C171.223 46.17 171.275 45.8814 171.343 45.6007L171.959 43.139C172.023 42.8945 172.107 42.706 172.215 42.5697C172.323 42.4334 172.519 42.3652 172.807 42.3652C173.071 42.3652 173.263 42.4334 173.383 42.5737C173.503 42.714 173.587 42.9025 173.643 43.139L174.252 45.6007V45.5967Z" fill="white"/>
<path d="M178.284 49.4418C178.228 49.5942 178.132 49.7144 177.992 49.8026C177.852 49.8908 177.72 49.9349 177.596 49.9349C177.392 49.9349 177.216 49.8748 177.068 49.7505C176.92 49.6262 176.844 49.4659 176.844 49.2654C176.844 49.2373 176.844 49.1972 176.848 49.1491C176.848 49.101 176.86 49.0609 176.872 49.0329L178.912 43.0711C178.98 42.8666 179.076 42.6982 179.2 42.5619C179.321 42.4256 179.509 42.3574 179.761 42.3574C180.013 42.3574 180.197 42.4256 180.321 42.5579C180.441 42.6902 180.541 42.8626 180.617 43.0711L182.654 49.0329C182.67 49.0609 182.678 49.101 182.682 49.1491C182.686 49.1972 182.686 49.2373 182.686 49.2654C182.686 49.4699 182.614 49.6302 182.47 49.7505C182.325 49.8708 182.145 49.9349 181.929 49.9349C181.789 49.9349 181.649 49.8908 181.509 49.7986C181.369 49.7064 181.273 49.5901 181.217 49.4418L180.853 48.3834H178.624L178.28 49.4418H178.284ZM179.949 45.3965C179.901 45.2441 179.861 45.0757 179.833 44.8873C179.805 44.7028 179.781 44.5304 179.761 44.3701C179.741 44.5304 179.717 44.7028 179.689 44.8873C179.661 45.0717 179.621 45.2401 179.573 45.3965L179.02 47.1886H180.485L179.953 45.3965H179.949Z" fill="white"/>
<path d="M184.95 49.9348C184.741 49.9348 184.565 49.8667 184.421 49.7304C184.277 49.5941 184.205 49.4337 184.205 49.2452V46.9519L182.365 43.3476C182.349 43.3115 182.337 43.2674 182.325 43.2113C182.309 43.1552 182.305 43.099 182.305 43.0429C182.305 42.8625 182.381 42.7021 182.537 42.5658C182.693 42.4295 182.861 42.3613 183.049 42.3613C183.161 42.3613 183.273 42.3854 183.385 42.4335C183.497 42.4816 183.585 42.5618 183.645 42.6741L184.954 45.2721L186.25 42.6741C186.314 42.5618 186.398 42.4816 186.51 42.4335C186.622 42.3854 186.738 42.3613 186.854 42.3613C187.042 42.3613 187.214 42.4295 187.366 42.5658C187.518 42.7021 187.594 42.8625 187.594 43.0429C187.594 43.091 187.586 43.1431 187.57 43.1953C187.554 43.2474 187.538 43.2995 187.522 43.3476L185.694 46.9519V49.2452C185.694 49.4257 185.622 49.586 185.478 49.7264C185.334 49.8667 185.158 49.9348 184.95 49.9348Z" fill="white"/>
<path d="M190.002 49.1171C190.002 49.3416 189.918 49.534 189.746 49.6944C189.574 49.8548 189.37 49.9349 189.134 49.9349C188.898 49.9349 188.682 49.8548 188.514 49.6944C188.346 49.534 188.258 49.3416 188.258 49.1171C188.258 48.8925 188.342 48.7041 188.514 48.5477C188.686 48.3914 188.894 48.3112 189.134 48.3112C189.374 48.3112 189.574 48.3914 189.746 48.5477C189.918 48.7041 190.002 48.8965 190.002 49.1171ZM188.382 43.039C188.382 42.8586 188.454 42.6982 188.598 42.5619C188.742 42.4256 188.914 42.3574 189.114 42.3574C189.314 42.3574 189.49 42.4256 189.63 42.5619C189.774 42.6982 189.846 42.8586 189.846 43.039L189.742 47.4492C189.734 47.6096 189.67 47.7459 189.542 47.8622C189.418 47.9784 189.274 48.0345 189.114 48.0345C188.934 48.0345 188.782 47.9784 188.666 47.8622C188.546 47.7459 188.49 47.6096 188.49 47.4492L188.386 43.039H188.382Z" fill="white"/>
</g>
<defs>
<clipPath id="clip0_1_978">
<rect width="190" height="64" fill="white"/>
</clipPath>
</defs>
</svg>
