<svg width="1440" height="962" viewBox="0 0 1440 962" fill="none" xmlns="http://www.w3.org/2000/svg">
<g opacity="0.24" clip-path="url(#clip0_1_887)">
<path opacity="0.32" d="M251.022 933.048C108.519 933.048 -7.00238 817.621 -7.00238 675.235C-7.00238 532.849 108.519 417.422 251.022 417.422C393.525 417.422 509.047 532.849 509.047 675.235C509.047 817.621 393.525 933.048 251.022 933.048Z" fill="#FBE5B6"/>
<g opacity="0.24">
<path d="M1079.14 557.038C1080.05 557.552 1080.96 558.066 1081.87 558.58C1082.51 553.874 1087.33 550.553 1092.08 550.276C1096.83 549.98 1101.4 552.056 1105.46 554.566C1106.11 547.252 1110.96 540.451 1117.64 537.446C1124.35 534.421 1132.64 535.311 1138.56 539.68C1142.28 542.428 1141.84 546.52 1145.98 548.596C1151.79 531.476 1170.33 520.266 1188.4 521.037C1206.46 521.789 1223.18 533.354 1232.22 549.011C1237.23 541.578 1246.45 537.209 1255.39 538.039C1264.32 538.869 1272.59 544.86 1276.13 553.084C1295.48 553.815 1312.45 560.181 1331.8 560.181H1059L1079.12 557.057L1079.14 557.038Z" fill="#F38218"/>
<path d="M463.142 557.038C464.052 557.552 464.962 558.066 465.872 558.58C466.506 553.874 471.333 550.553 476.082 550.276C480.83 549.98 485.401 552.056 489.457 554.566C490.11 547.252 494.957 540.451 501.645 537.446C508.352 534.421 516.642 535.311 522.558 539.68C526.278 542.428 525.843 546.52 529.978 548.596C535.795 531.476 554.334 520.266 572.398 521.037C590.463 521.789 607.182 533.354 616.224 549.011C621.229 541.578 630.449 537.209 639.393 538.039C648.316 538.869 656.586 544.86 660.128 553.084C679.478 553.815 696.454 560.181 715.805 560.181H443L463.122 557.057L463.142 557.038Z" fill="#F38218"/>
<path d="M783.914 176.245C785.259 172.627 790.008 170.294 793.51 170.096C798.358 169.8 803.027 171.935 807.142 174.525C807.815 166.992 812.742 159.994 819.568 156.89C826.394 153.787 834.862 154.696 840.897 159.184C844.695 162.011 844.24 166.221 848.475 168.357C854.41 150.742 873.306 139.197 891.746 139.987C911.69 140.838 926.786 153.925 937.451 169.642C937.55 168.95 938.262 168.535 938.915 168.278C943.406 166.419 948.689 166.538 953.101 168.574C954.724 169.325 959.531 172.963 961.648 176.264H783.934L783.914 176.245Z" fill="#F38218"/>
<path d="M932.916 41.6339C978.958 43.255 1025.08 42.8399 1071.08 40.3687C1072.46 33.8843 1078.62 29.1594 1085.15 28.0128C1091.68 26.8662 1098.4 28.8036 1104.3 31.8283C1105.21 22.7541 1111.8 15.1627 1119.3 9.94354C1131.49 1.46246 1147.25 -2.2542 1161.64 1.40315C1176.02 5.06049 1188.51 16.6058 1191.87 31.0573C1197.89 24.5334 1206.31 18.5235 1214.98 20.4016C1223.65 22.2797 1231.13 28.9815 1233.9 37.423C1237.22 30.3456 1241.3 23.5251 1246.97 18.1479C1252.65 12.7903 1260.07 8.97484 1267.89 8.77714C1276.1 8.57945 1284.11 12.4147 1289.87 18.2665C1295.63 24.1182 1299.25 31.8283 1301.17 39.7954C1299.74 31.6108 1306.45 22.6157 1313.95 19.0177C1321.45 15.4197 1330.75 16.5663 1337.75 21.0737C1344.73 25.5812 1349.48 33.0935 1351.58 41.1397C1359 41.5746 1366.4 42.0095 1373.82 42.4445C1377.64 32.8563 1386.98 25.2846 1397.31 25.0078C1407.63 24.7311 1417.94 32.8365 1418.77 43.1166C1433.04 43.4132 1447.26 44.6982 1461.35 46.9321L911.944 44.7575C918.156 41.1792 925.754 41.3967 932.916 41.6339Z" fill="#FBE5B6"/>
</g>
<path d="M1522.02 505.859C1520.91 508.192 1519.17 510.149 1517.37 511.988C1508.09 521.319 1497.58 526.182 1485.37 530.077C1472.71 534.11 1460.74 544.291 1450.1 551.942C1448.34 553.207 1446.5 554.551 1445.51 556.508C1444.71 558.07 1444.54 559.869 1444.38 561.629C1444.38 574.103 1440.76 585.214 1443.59 597.589C1443.67 597.965 1443.78 598.38 1444.1 598.597C1444.7 599.032 1445.51 598.538 1446.06 598.064L1476.15 572.581C1485.12 564.989 1494.69 557.101 1506.29 555.203C1507.42 561.115 1509.2 566.907 1511.63 572.423C1504.21 577.938 1494.81 580.093 1487.08 585.134C1476.69 591.896 1470.44 602.947 1463.39 612.812C1460.21 617.28 1454.96 621.629 1453.04 626.532C1450.35 633.332 1449.62 640.845 1446.63 647.705C1444.87 651.757 1442.82 655.692 1441.47 659.883C1438.68 668.561 1439 677.912 1439.35 687.026C1439.79 698.334 1440.22 709.662 1442.18 720.812C1445.51 739.771 1453.16 757.702 1462.03 774.783C1465.57 781.643 1469.33 788.384 1473.6 794.809C1478.59 802.302 1484.29 809.339 1488.86 817.089C1494.73 826.994 1498.69 837.906 1502.61 848.72C1509.18 866.829 1510.21 886.262 1510.32 905.36C1510.38 913.801 1511.12 922.421 1511.08 930.763C1511.04 936.872 1509.87 942.902 1509.16 948.991H1450.55C1447.72 929.182 1444.18 909.452 1439.81 889.92C1437.24 878.434 1434.92 866.552 1431.3 855.363C1428.23 845.893 1423.11 836.859 1419.77 827.369C1400.79 773.557 1400.55 714.96 1405.99 658.795C1406.35 655.217 1406.71 651.5 1405.56 648.08C1404.47 644.818 1402.16 642.169 1399.92 639.56C1376.53 612.199 1357.16 577.859 1361.1 542.096C1354.95 530.571 1350.75 521.121 1344.6 509.595C1342.6 505.839 1340.56 502.044 1337.63 498.94C1333.86 494.927 1328.79 492.337 1324.71 488.62C1319.02 483.46 1315.38 476.323 1309.56 471.302C1299.63 462.702 1285.44 461.773 1272.88 457.898C1256.67 452.877 1241.48 441.075 1237.3 424.646C1239.42 424.073 1239.46 423.658 1241.56 423.084C1241.34 423.124 1244.7 399.875 1245.77 394.419C1243.69 389.081 1241.62 383.763 1239.54 378.425C1239.22 377.595 1238.92 376.409 1238.41 375.44C1234.57 374.096 1230.5 373.483 1226.58 372.396C1225.11 372.198 1223.65 371.961 1222.21 371.644C1219.53 371.071 1217.04 369.944 1215.2 367.888C1213.6 366.089 1212.57 363.895 1211.86 361.621C1211.07 359.091 1210.65 356.461 1210.22 353.852C1209.68 350.59 1208.99 347.368 1208.06 344.204C1207.52 342.386 1206.91 340.606 1206.24 338.847C1205.57 337.127 1204.93 335.17 1203.31 334.102C1201.79 333.094 1199.95 332.501 1198.3 331.769L1192.65 329.298C1192.53 329.259 1192.49 329.18 1192.41 329.101C1183.03 328.587 1173.95 326.728 1165.84 321.766C1158.81 317.456 1152.88 311.348 1148.74 304.211C1146.37 300.099 1144.61 295.631 1143.56 291.005C1143.26 289.7 1145.28 289.147 1145.58 290.451C1149.1 306.069 1161.15 319.414 1176.4 324.395C1181.35 326.017 1186.51 326.669 1191.7 326.985C1185.6 323.012 1180.24 318.109 1175.73 312.455C1171.91 308.105 1168.37 303.519 1164.95 298.853C1164.79 298.814 1164.65 298.735 1164.51 298.596C1160.81 294.979 1157.76 290.787 1155.47 286.201C1154.28 284.58 1153.17 282.919 1152.14 281.199C1151.59 280.25 1152.9 279.123 1153.67 279.835C1154.06 279.618 1154.6 279.598 1154.97 279.954C1162.1 286.577 1166.69 295.236 1171.85 303.361C1173.71 306.306 1175.73 309.114 1177.91 311.783C1180.7 314.886 1183.62 317.852 1186.81 320.6C1189.02 322.498 1191.34 324.277 1193.75 325.878C1193.85 325.937 1193.95 325.997 1194.05 326.056C1194.35 326.254 1194.64 326.412 1194.94 326.61C1197.91 328.389 1201.03 329.951 1204.24 331.216C1206.38 332.066 1208.87 332.521 1210.83 333.746C1212.91 335.051 1213.42 337.246 1213.88 339.519C1215.02 345.272 1216.01 351.064 1216.96 356.857C1217.3 358.972 1217.67 361.364 1219.14 363.025C1220.84 364.982 1223.81 365.16 1226.2 365.555C1229.37 366.089 1232.53 366.623 1235.68 367.137C1238.33 367.592 1241.18 367.888 1243.14 369.964C1245.14 372.06 1246.34 375.045 1247.71 377.536C1248.5 378.959 1249.27 380.402 1250.06 381.826C1252.18 376.547 1254.59 371.387 1256.93 366.168C1257.11 365.793 1257.27 365.397 1257.32 364.982C1257.42 364.31 1257.21 363.618 1257.03 362.966C1256.36 360.574 1256.04 358.102 1256.08 355.611C1256.08 354.682 1256.14 353.733 1255.74 352.903C1254.48 350.353 1250.04 347.328 1247.89 345.43C1244.5 342.465 1241.18 339.44 1237.94 336.336C1231.74 330.386 1225.83 324.119 1220.54 317.338C1220.13 317.377 1219.69 317.397 1219.26 317.437C1219.06 317.575 1218.8 317.634 1218.51 317.595C1218.37 317.575 1218.21 317.535 1218.07 317.516C1214.41 317.733 1210.69 317.694 1207.25 316.428C1202.89 314.827 1199.99 311.308 1197.08 307.868C1190.55 300.138 1184.36 292.112 1178.54 283.829C1177.75 282.702 1176.96 281.555 1176.16 280.408C1175.39 279.301 1174.42 278.155 1173.83 276.929C1173.35 275.941 1173.47 274.478 1174.32 273.944C1174.19 272.975 1175.65 272.283 1176.26 273.291C1180.7 280.586 1185.38 287.703 1190.35 294.642C1192.86 298.142 1195.42 301.601 1198.07 304.982C1200.6 308.185 1203.29 310.913 1207.31 312.119C1209.64 312.83 1212.06 313.325 1214.49 313.779C1214.65 313.404 1215 313.127 1215.42 313.147C1215.83 313.186 1216.27 313.147 1216.69 313.147C1216.9 313.087 1217.1 313.028 1217.32 312.989C1210.47 303.4 1205.11 292.982 1202.26 281.397C1201.81 279.558 1201.96 276.89 1203.84 276.652C1204.22 276.613 1212.81 295.71 1213.84 297.529C1217.75 304.488 1222.15 311.209 1226.95 317.575C1235.94 329.476 1246.64 341.575 1259.56 349.246C1260.65 349.898 1261.82 350.55 1262.43 351.657C1262.79 352.29 1262.9 353.022 1263.04 353.753L1264.45 361.819C1264.57 362.531 1264.71 363.262 1264.67 363.994C1264.59 365.476 1263.81 366.801 1263.1 368.086C1253.15 386.254 1252.7 405.668 1253.01 425.911C1253.07 429.826 1253.64 434.57 1257.21 436.211C1275.07 444.376 1291.16 451.908 1310.27 456.475C1312.96 457.108 1315.69 457.839 1317.93 459.46C1320.52 461.318 1322.18 464.165 1324.06 466.735C1331.52 476.936 1342.94 483.44 1351.68 492.574C1360.11 501.391 1365.83 512.383 1371.43 523.217L1380.49 540.732C1381.48 542.65 1382.49 544.627 1382.85 546.762C1384.31 555.559 1380.23 561.549 1383.89 570.742C1387.44 579.619 1394.28 586.578 1401.07 593.062C1407.02 598.756 1413 604.469 1418.95 610.163C1416.48 598.222 1420.48 585.807 1418.99 573.708C1417.79 563.902 1413.06 554.927 1409.2 545.833C1404.35 534.406 1402.02 522.287 1400.12 510.09C1398.2 497.833 1396.64 490.399 1386.31 482.571C1384.11 480.91 1381.92 479.249 1379.74 477.589C1374.06 473.259 1366.17 467.032 1365.33 459.559C1364.46 451.73 1366.17 437.398 1361.18 430.617C1360.05 429.094 1358.11 428.442 1356.35 427.77C1350.28 425.477 1344.66 421.918 1339.99 417.411C1337.62 415.117 1335.4 412.409 1334.9 409.147C1334.65 407.467 1334.88 405.727 1334.51 404.066C1333.08 397.582 1324.18 395.961 1320.66 390.346C1300.87 383.743 1288.39 369.193 1281.98 349.364C1280.99 346.32 1280.18 343.097 1278.18 340.606C1275.84 337.68 1272.24 336.158 1268.92 334.478C1247.08 323.486 1231.31 301.265 1228.12 277.048C1228.95 274.972 1229.8 272.896 1230.63 270.82C1236.29 290.867 1243.81 313.186 1262.61 322.181C1259.09 308.58 1257.48 294.484 1257.82 280.448C1258.35 282.445 1260.57 283.848 1262.61 283.453C1261.99 293.338 1262.73 303.301 1264.8 312.969C1265.71 317.18 1266.92 321.489 1269.65 324.85C1272.38 328.191 1276.95 330.366 1281.09 329.14C1286.59 322.873 1287.7 313.858 1286.88 305.575C1285.92 295.769 1283.09 286.201 1282.22 276.415L1286.96 278.175C1291.57 288.613 1294.32 299.842 1295.06 311.229C1295.37 316.211 1295.27 321.39 1293.28 325.977C1291.38 330.346 1287.91 333.825 1284.53 337.206C1282.67 339.064 1285.32 339.302 1286.69 341.555C1289.26 345.766 1291.85 349.977 1294.48 354.168C1298.34 360.316 1302.38 366.524 1308 371.111C1310.94 373.503 1314.29 375.401 1317.59 377.279C1321.89 379.71 1326.16 382.122 1330.45 384.554C1333.84 386.471 1337.26 388.409 1339.95 391.196C1342.28 393.588 1343.99 396.514 1345.71 399.361C1349.98 406.498 1354.93 413.832 1362.49 417.292C1364.92 418.399 1367.57 419.071 1369.77 420.593C1379.8 427.533 1374.4 442.795 1378.85 452.402C1380.09 455.111 1381.95 457.483 1383.85 459.776C1387.26 463.889 1390.86 467.842 1394.66 471.579C1401.76 478.597 1407.77 485.793 1413.69 493.74C1420.22 502.518 1419.31 514.558 1422.1 525.134C1422.95 528.337 1424.14 531.46 1425.68 534.406C1426.04 535.078 1426.45 535.79 1427.16 536.027C1427.62 536.166 1428.09 536.106 1428.57 536.027C1443.13 533.279 1451.56 517.503 1465.21 511.75C1470.54 509.497 1476.37 508.903 1481.89 507.184C1496.85 502.557 1508.39 490.182 1523.26 485.319C1522.51 492.179 1525.12 499.434 1522.04 505.978L1522.02 505.859Z" fill="#FBE5B6"/>
<path d="M1341.51 270.801C1341.06 283.473 1336.15 295.493 1331.32 307.216C1327.39 316.784 1323.17 326.729 1315.22 333.371C1318.21 338.59 1321.23 343.849 1325.23 348.336C1328.45 351.974 1332.27 355.078 1335.12 358.992C1339.61 365.18 1341.37 373.266 1339.85 380.758C1339.22 383.902 1338.03 386.926 1337.63 390.109C1336.84 396.495 1339.53 403.216 1344.52 407.289C1345.45 395.052 1346.4 384.317 1346.5 372.04C1346.56 365.002 1344.5 358.676 1340.03 353.022C1337.36 349.641 1333.88 347.012 1330.71 344.086C1327.54 341.16 1324.58 337.78 1323.41 333.628C1324.83 329.852 1326.71 328.567 1329.23 325.404C1333.3 320.264 1335.4 313.859 1337.4 307.592C1341.65 294.366 1345.94 280.626 1344.14 266.847C1343.89 264.83 1342.26 262.181 1340.5 263.229C1340.4 266.313 1341.63 267.657 1341.51 270.741V270.801Z" fill="#FBE5B6"/>
<path d="M1320.08 301.403C1323.03 306.108 1327.4 309.766 1331.99 312.889C1331.4 314.273 1328.49 320.718 1329.78 322.042C1324.69 316.804 1321.15 310.299 1317.67 303.894C1316.3 301.383 1314.96 298.892 1313.59 296.382C1312.01 293.456 1311.89 287.11 1311.85 283.749C1311.81 278.965 1312.86 274.201 1313.87 269.555C1313.81 269.812 1314.84 273.924 1314.82 275.051C1314.8 278.115 1314.86 281.199 1315.12 284.243C1315.61 290.214 1316.86 296.263 1320.06 301.403H1320.08Z" fill="#FBE5B6"/>
<path d="M1336.07 299.545C1336.78 299.091 1337.47 298.656 1338.19 298.201C1338.29 297.905 1338.5 297.648 1338.82 297.529C1339.22 297.391 1339.61 297.232 1340.03 297.094C1340.3 296.995 1340.56 297.015 1340.76 297.134C1343.21 296.343 1345.69 295.532 1347.98 294.366C1350.49 293.081 1352.61 291.242 1354.35 289.048C1356.57 286.241 1358.03 283.018 1359.18 279.657C1359.32 279.084 1359.46 278.531 1359.57 277.957C1359.61 277.72 1359.73 277.562 1359.87 277.443C1360.39 275.684 1360.84 273.904 1361.28 272.145C1361.59 270.84 1363.61 271.394 1363.29 272.699C1362.68 275.189 1362.03 277.7 1361.2 280.152C1359.91 285.193 1357.52 290.056 1353.76 293.713C1351.54 295.888 1348.89 297.43 1346.1 298.715C1343.13 300.099 1339.99 301.74 1336.62 301.463C1335.61 301.384 1335.18 300.099 1336.09 299.526L1336.07 299.545Z" fill="#FBE5B6"/>
<path d="M1349.43 272.423C1350.44 274.834 1349.77 279.243 1350.22 281.932C1351.23 287.942 1353.17 293.793 1356.14 299.111C1358.65 303.619 1361.38 307.988 1363.85 312.535C1366.11 316.686 1374.24 328.587 1375.29 317.101C1375.59 313.701 1375.03 310.162 1375.23 306.723C1375.82 296.581 1379.29 282.367 1375.71 272.561C1375.43 271.79 1375.11 271.019 1374.74 270.287C1374.48 269.773 1374.68 269.279 1375.01 269.002C1375.01 268.963 1375.01 268.943 1375.01 268.904C1374.72 267.599 1376.7 267.045 1377.03 268.35C1377.33 269.556 1377.65 270.782 1377.94 271.988C1378.99 274.439 1379.64 277.029 1379.84 279.717C1379.88 280.152 1379.64 280.449 1379.33 280.607C1379.33 285.767 1379.33 290.927 1379.33 296.106C1385.18 295.81 1389.56 290.769 1391.51 285.569C1392.7 282.406 1393.28 279.045 1393.75 275.724C1393.93 274.498 1393.95 272.996 1394.25 271.731C1394.19 271.118 1394.11 270.525 1393.95 269.912C1393.65 268.607 1395.65 268.054 1395.97 269.358C1395.99 269.477 1396.01 269.596 1396.03 269.714C1396.34 269.714 1396.66 269.833 1396.94 270.129C1397.57 270.821 1397.02 271.75 1396.32 271.889C1396.62 275.428 1395.93 279.026 1395.12 282.485C1394.27 286.083 1393.08 289.701 1390.98 292.785C1388.76 296.047 1385.7 298.202 1382.14 299.783C1381.42 300.1 1380.34 300.732 1379.31 301.029C1379.31 307.474 1379.31 313.938 1379.31 320.383C1379.31 323.408 1379.27 326.195 1381.48 328.528C1383.66 330.802 1386.23 332.779 1388.61 334.835C1393.63 339.204 1398.64 343.573 1403.66 347.942C1405.72 349.741 1408.31 351.48 1409.24 354.169C1410.15 356.818 1409.54 359.863 1409.32 362.571C1409.06 365.853 1408.79 369.135 1408.53 372.416C1408.47 373.168 1408.41 373.939 1408.35 374.69C1408.29 375.342 1408.37 376.35 1408.15 376.983C1407.98 377.458 1407.64 377.616 1407.22 377.853C1406.35 378.367 1405.42 378.841 1404.53 379.316C1401.68 380.878 1398.86 382.42 1396.01 383.981C1393.47 385.365 1390.84 386.67 1388.45 388.311C1386.11 389.892 1384.21 391.869 1382.99 394.439C1381.78 396.97 1381.23 399.777 1380.71 402.505C1380.14 405.589 1379.6 408.693 1379.13 411.817C1378.08 418.677 1377.27 425.576 1376.72 432.515C1376.54 434.749 1377.31 445.84 1375.82 447.066C1373.39 449.102 1369.69 442.716 1368.96 440.72C1363.26 425.319 1368.43 408.258 1373.61 392.68C1374.52 389.912 1375.47 387.105 1377.27 384.812C1380.14 381.135 1384.73 379.316 1389.1 377.675C1392.05 376.568 1394.98 375.461 1397.93 374.354C1398.88 373.998 1399.88 373.602 1400.54 372.812C1401.25 371.962 1401.41 370.775 1401.55 369.668C1402.2 364.469 1402.81 358.914 1400.42 354.248C1399.13 351.738 1397.07 349.721 1395.08 347.764C1391.69 344.462 1388.41 340.429 1384.65 337.563C1381.86 335.447 1378.56 334.103 1375.65 331.988C1365.91 324.93 1361.5 313.919 1355.51 303.895C1353.84 301.108 1351.84 298.498 1350.46 295.573C1348.88 292.212 1348.14 288.535 1347.45 284.897C1346.52 280.093 1345.61 275.25 1345.55 270.347C1345.51 268.172 1349.27 271.928 1349.49 272.442L1349.43 272.423Z" fill="#FBE5B6"/>
<path d="M1411 279.004C1410.82 279.004 1414.64 293.851 1414.86 295.176C1415.19 297.331 1415.83 299.228 1416.5 301.126C1420.2 294.622 1423.38 287.604 1423.07 279.973C1423.01 278.629 1425.11 278.629 1425.15 279.973C1425.5 288.573 1421.64 296.461 1417.39 303.716C1417.75 304.803 1418.1 305.911 1418.36 307.097C1418.66 308.441 1418.62 309.845 1418.93 311.189C1419.57 313.976 1423.6 318.84 1427.01 317.614C1429.78 316.626 1433.79 308.362 1435.57 305.911C1437.93 302.649 1435.06 296.144 1434.78 292.191C1434.66 290.53 1436.03 271.136 1440.2 274.279C1440.68 274.635 1438.28 287.228 1438.68 289.304C1439.81 295.255 1442.1 301.68 1439.61 307.611C1437.47 312.711 1431.91 316.744 1432.53 322.26C1432.94 326.075 1436.38 329.1 1436.62 332.955C1436.82 336.158 1434.74 339.024 1432.66 341.476C1432.37 337.799 1432.07 334.122 1431.77 330.444C1431.65 329.041 1431.54 327.598 1430.86 326.372C1428.79 322.556 1423.19 322.892 1419.61 320.441C1416.24 318.148 1415.11 313.779 1414.26 309.805C1412.05 299.565 1409.81 289.324 1407.6 279.064C1408.72 279.064 1409.87 279.044 1411 279.024V279.004Z" fill="#FBE5B6"/>
<path d="M1420.75 364.508C1420.95 360.416 1421.33 356.343 1421.98 352.29C1422.55 348.732 1423.26 345.134 1424.83 341.852C1426.43 338.511 1429 335.783 1431.73 333.332C1434.6 330.762 1437.63 328.369 1440.7 326.056C1446.89 321.391 1453.34 317.022 1459.21 311.921C1465.78 306.228 1471.92 299.98 1478.15 293.931C1478.37 293.694 1478.6 293.476 1478.84 293.259C1479.12 293.002 1479.4 292.725 1479.67 292.448C1479.75 292.369 1479.83 292.369 1479.91 292.33C1479.95 292.31 1479.97 292.27 1480.01 292.251C1480.33 292.013 1480.62 292.013 1480.88 292.132C1481 292.073 1481.14 292.033 1481.3 292.033C1482.64 292.033 1482.64 294.109 1481.3 294.109C1481.2 294.109 1481.12 294.089 1481.06 294.05C1480.9 294.168 1480.78 294.307 1480.62 294.425C1480.21 294.821 1479.79 295.216 1479.4 295.611C1478.23 296.956 1477.3 298.518 1476.45 300.079C1475.16 302.412 1473.88 304.725 1472.41 306.959C1469.48 311.447 1466.1 315.658 1462.32 319.473C1458.54 323.328 1454.33 326.61 1450.05 329.852C1445.58 333.252 1441.27 336.831 1438.12 341.536C1434.76 346.577 1432.56 352.251 1430.45 357.905C1430.23 370.874 1432.29 383.941 1433.77 396.732C1433.77 396.791 1433.77 396.851 1433.77 396.89C1434.68 398.571 1435.83 400.152 1436.88 401.674C1439.09 404.857 1441.37 408.001 1444 410.847C1445.29 412.231 1446.65 413.536 1448.12 414.722C1449.62 415.948 1451.28 416.798 1452.9 417.846C1454.47 418.854 1453.99 420.258 1453.16 421.602C1452.27 423.045 1451.2 424.37 1450.11 425.655C1447.56 428.699 1444.73 431.684 1443.74 435.658C1443.45 436.884 1441.82 436.469 1441.7 435.381C1441.15 430.874 1440.56 426.228 1438.6 422.076C1436.88 418.419 1434.3 415.276 1431.83 412.113C1426.71 405.51 1422.91 398.314 1421.25 390.07C1421.25 390.01 1421.25 389.951 1421.25 389.892C1421.21 389.793 1421.17 389.674 1421.17 389.556C1420.79 381.193 1420.4 372.831 1420.79 364.468L1420.75 364.508Z" fill="#FBE5B6"/>
<path d="M1479.54 397.107C1472.56 406.774 1468.62 418.419 1461.38 427.908C1456.91 433.779 1451.27 438.722 1447.13 444.811C1443 450.9 1440.44 458.827 1443.14 465.687C1444.1 468.159 1445.69 470.333 1447.25 472.468C1455.01 483.104 1462.78 493.72 1470.54 504.356C1474.22 509.398 1477.9 514.439 1481.58 519.48C1470.99 527.131 1460.03 534.287 1448.79 540.95C1450.44 535.612 1452.1 530.254 1453.74 524.917C1454.49 522.485 1455.24 519.994 1455.18 517.444C1455.11 514.735 1454.1 512.165 1453.11 509.635C1449.23 499.809 1445.31 489.925 1439.65 481.028C1436.98 476.837 1433.93 472.864 1431.72 468.416C1429.5 463.967 1428.16 458.867 1429.19 454.004C1429.94 450.465 1431.88 447.322 1433.8 444.257C1438.23 437.14 1442.68 430.023 1447.11 422.887C1449.19 419.565 1451.27 416.204 1453.82 413.219C1457.4 409.008 1461.85 405.608 1465.67 401.615C1468.82 398.333 1471.53 394.656 1474.61 391.295C1479.84 385.641 1486.03 380.995 1492.18 376.369C1493.87 375.104 1500.97 369.628 1503.3 371.96C1505.74 374.412 1499.92 377.476 1498.4 378.643C1491.43 384.04 1484.72 389.911 1479.56 397.087L1479.54 397.107Z" fill="#FBE5B6"/>
<path d="M1095.12 314.747C1101.55 317.1 1108.28 318.563 1114.98 320.026L1146.19 326.807C1147 326.985 1147.89 327.222 1148.84 327.479C1141.04 319.907 1137.72 308.935 1131.45 300.158C1130.67 299.07 1132.47 298.022 1133.25 299.11C1133.78 299.861 1134.29 300.652 1134.81 301.443C1135.05 301.502 1135.26 301.64 1135.4 301.917C1141.54 312.77 1148.8 323.446 1158.73 331.057C1161.24 332.164 1163.54 333.35 1165.24 334.517C1170.23 337.897 1176.08 373.344 1178.54 374.767C1183.22 377.496 1186.19 378.464 1191.93 380.856C1197.67 383.248 1203.86 383.15 1205.13 389.239C1205.48 390.919 1205.25 396.771 1206.26 398.155C1206.83 398.945 1207.7 399.499 1208.53 400.033C1221.51 408.257 1234.49 416.481 1247.47 424.705C1246.91 424.349 1244.98 434.59 1244.92 435.44C1237.34 424.942 1222 420.751 1211.1 413.99C1209.58 413.041 1208.04 412.092 1206.87 410.748C1205.03 408.652 1204.28 405.825 1203.58 403.117C1200.4 390.741 1198.3 390.445 1186.49 386.036C1183.15 384.791 1179.7 383.486 1177.07 381.054C1173.87 378.108 1172.24 373.878 1170.78 369.786C1166.74 358.556 1163.04 347.189 1159.68 335.723C1143.48 330.464 1126.64 327.38 1110.37 322.339C1101 319.433 1091.76 315.835 1083.23 310.932C1077.79 307.808 1067.34 302.51 1066.17 295.67C1075.37 303.36 1083.56 310.497 1095.1 314.728L1095.12 314.747Z" fill="#FBE5B6"/>
<path d="M1122.88 419.427C1140.87 413.813 1160.18 412.548 1178.74 415.731C1190 417.668 1200.05 426.248 1211.46 426.268C1223.22 426.287 1235.86 420.91 1246.13 426.604C1245 431.902 1246.54 437.694 1250.12 441.767C1237.24 434.077 1220.53 440.739 1205.88 437.516C1195.2 435.164 1186.3 427.671 1175.77 424.686C1156.91 419.368 1124.82 427.098 1105.63 431.131C1102.03 431.882 1083.17 426.09 1067.54 419.645C1060.36 416.699 1053.18 413.556 1045.56 412.133C1040.59 411.203 1035.51 411.025 1030.44 410.867C1019.5 410.492 1008.56 410.116 997.64 409.74C992.12 409.543 986.402 408.89 980.882 409.167C977.004 409.365 974.254 409.424 971.088 406.538C962.145 398.393 953.222 390.228 944.278 382.083C946.099 380.581 948.77 382.083 950.59 383.566C955.062 387.263 959.296 391.216 963.312 395.388C966.577 398.788 969.703 402.485 974.076 404.502C978.567 406.577 984.384 405.747 989.311 405.49C990.419 405.431 998.293 403.889 998.847 404.442C987.016 392.62 977.142 377.319 971.266 361.641C975.144 360.574 976.727 366.524 978.983 369.865C983.039 375.856 987.075 381.846 991.131 387.836C992.259 386.155 993.367 384.475 994.494 382.795C995.246 381.668 995.543 380.877 995.444 379.533C995.325 378.109 995.187 376.686 995.048 375.243C994.574 369.964 994.554 364.35 993.03 359.249C992.654 357.964 994.653 357.411 995.048 358.696C995.82 361.305 996.117 363.994 996.354 366.702C996.631 369.727 996.908 372.732 997.185 375.757C997.403 378.169 998.135 380.897 996.79 383.091C995.405 385.345 993.881 387.52 992.397 389.714C995.385 394.103 998.59 398.492 1003.12 401.2C1008.64 404.482 1015.31 404.007 1021.42 403.137C1024.94 402.643 1027.97 403.513 1031.36 402.406C1034.16 401.497 1037.15 401.121 1040.12 401.299C1037.79 395.091 1034.26 388.666 1028.57 384.989C1027.04 384.001 1025.24 383.585 1023.52 382.953C1017.01 380.581 1011.93 375.223 1008.54 369.193C1005.14 363.164 1003.24 356.422 1001.44 349.74C1002.25 350.116 1003.24 350.136 1004.07 349.76C1008.07 358.557 1012.82 368.778 1020.61 374.847C1023.4 371.131 1025.76 367.098 1027.62 362.847C1027.99 361.997 1028.62 360.989 1029.52 361.167C1029.16 362.61 1029.48 364.192 1030.37 365.378C1029.32 365.931 1028.72 367.038 1028.19 368.106C1026.63 371.21 1025.04 374.333 1024.05 377.674C1024.19 377.2 1026.9 380.165 1027.14 380.324C1028.94 381.569 1031.61 382.123 1033.75 382.36C1035.85 373.898 1037.98 365.338 1042.3 357.767C1043.01 356.521 1043.78 355.295 1044.24 353.931C1044.57 352.943 1045.13 351.638 1046.13 351.856C1046.51 351.935 1046.81 352.231 1047.06 352.528C1048.21 353.773 1049.36 355.019 1050.51 356.264C1046.47 359.902 1042.28 363.737 1040.38 368.818C1039.31 371.684 1039.03 374.768 1038.42 377.773C1037.73 381.134 1036.42 385.226 1037.49 388.666C1038.48 391.849 1041.54 394.716 1043.56 397.345C1045.17 399.441 1046.77 401.536 1048.81 403.217C1052.49 406.301 1057.87 407.091 1062.26 408.95C1068.1 411.421 1073.97 413.793 1080.01 415.77C1093.21 420.1 1109.29 423.638 1122.84 419.408L1122.88 419.427Z" fill="#FBE5B6"/>
<path d="M859.468 386.038C868.925 380.78 879.63 377.794 890.452 377.34C891.837 350.947 912.949 327.639 938.512 320.839C962.215 314.512 988.332 321.432 1007.76 336.516C1012.85 322.756 1034.91 323.666 1047.59 325.306C1064.39 327.481 1081.23 335.132 1089.85 350.414C1091.1 352.608 1090.78 355.633 1093.61 356.483C1094.96 356.898 1096.4 356.74 1097.81 356.661C1109.16 355.989 1120.74 359.626 1129.64 366.704C1132.27 368.799 1134.81 371.409 1135.36 374.73C1135.46 375.382 1135.52 376.114 1135.97 376.608C1136.35 377.004 1136.9 377.162 1137.42 377.3C1140.62 378.111 1143.85 378.941 1147.05 379.751C1148.38 380.088 1149.84 380.523 1150.57 381.689C1153.44 386.256 1142.8 385.346 1141.31 385.366C1135.58 385.445 1129.82 385.406 1124.08 385.188H969.852C968.012 388.628 968.922 392.463 966.113 395.962C962.215 400.826 952.955 399.185 947.395 399.659C937.74 400.49 927.986 400.747 918.31 401.083C898.921 401.735 879.531 401.834 860.141 401.34C857.846 401.28 855.333 401.142 853.631 399.6C849.338 395.725 854.423 388.865 859.488 386.058L859.468 386.038Z" fill="#FBE5B6"/>
<path d="M973.041 299.546C982.301 290.946 994.727 285.806 1007.35 285.352C1005.49 279.085 1009.25 272.086 1014.89 268.765C1020.39 265.503 1027.21 265.226 1033.37 266.215C1015.38 251.15 1059.27 224.205 1070.56 220.666C1084.93 216.178 1100.46 216.831 1115.24 219.638C1120.37 210.267 1131.17 204.317 1141.83 204.989C1145.53 188.837 1157.6 174.821 1173.03 168.732C1188.47 162.643 1206.85 164.659 1220.6 173.931C1227.64 163.829 1243.69 161.635 1253.19 169.463C1262.35 144.732 1287.18 126.623 1313.55 125.476C1339.93 124.31 1366.26 140.185 1377.54 164.007C1384.74 155.842 1397.72 153.944 1407.34 158.748C1416.54 142.023 1434.94 131.17 1454.47 131.941C1466.24 132.415 1477.83 136.587 1487.25 143.644C1497.12 151.058 1503.95 161.18 1508.52 172.547C1510.3 176.995 1511.71 181.542 1512.87 186.168C1533.15 200.244 1545.56 225.49 1543.38 250.182C1551.99 246.643 1560.2 256.468 1562.77 265.404C1564.93 272.838 1565.15 282.109 1559.13 287.012C1554.98 290.393 1549.18 290.59 1543.82 290.61C1534.87 290.67 1525.65 289.859 1516.77 290.373C1515.17 290.472 1513.64 290.59 1512.14 290.709C1505.45 291.243 1499.68 291.52 1493.25 287.032C1492.06 286.202 1490.91 285.233 1490.36 283.908C1489.92 282.88 1489.86 281.734 1489.84 280.607C1489.74 275.823 1489.9 271.019 1490.36 266.254C1480.05 266.037 1469.76 265.187 1459.55 263.684C1458.28 266.65 1458.8 270.03 1458.88 273.272C1458.96 276.495 1458.32 280.172 1455.65 281.971C1451.1 285.035 1442.77 281.793 1437.55 281.872C1429.5 281.991 1421.31 283.296 1413.25 283.77C1396.99 284.699 1380.7 284.996 1364.42 284.936C1331.34 284.798 1298.28 283.157 1265.24 282.07C1252.75 281.655 1240.29 281.062 1227.78 281.022C1205.11 280.983 1182.37 282.821 1159.78 280.983C1168.01 282.722 1172.54 293.833 1167.85 300.811C1177.88 302.946 1187.62 306.485 1196.66 311.329C1190.92 314.591 1180.38 311.902 1173.83 312.06C1164.59 312.297 1155.35 312.515 1146.11 312.693C1127.13 313.068 1108.18 313.345 1089.2 313.484C1051.75 313.78 1014.29 313.602 976.84 312.969C974.367 312.93 971.577 312.752 969.915 310.933C966.948 307.691 969.856 302.531 973.061 299.546H973.041Z" fill="#FBE5B6"/>
<g opacity="0.24">
<path d="M-59.7482 183.129C-57.6905 182.872 -55.435 182.535 -54.0104 181.033C-52.6848 179.629 -52.4077 177.593 -51.9526 175.735C-48.8661 163.379 -34.5611 155.946 -21.6806 157.389C-8.80017 158.832 5.32674 165.178 13.2608 175.241C16.4067 160.512 27.7241 147.722 42.1281 142.581C56.532 137.441 73.5477 140.11 85.6169 149.402C94.5996 156.321 100.595 166.364 104.829 176.783C115.018 168.499 132.845 172.611 138.207 184.473C145.429 184.295 152.671 184.117 159.892 183.959C161.455 183.919 163.038 183.88 164.483 183.287C166.046 182.634 167.252 181.389 168.499 180.262C182.27 167.787 205.914 167.867 219.605 180.42C221.406 182.081 223.187 183.998 225.581 184.611C227.381 185.086 229.261 184.75 231.101 184.552C238.461 183.761 244.357 185.283 250.906 188.644H-103.969C-89.2289 186.806 -74.4885 184.967 -59.7482 183.129Z" fill="#FBE5B6"/>
</g>
<path d="M1480.45 650.325C1423.58 653.884 1367.12 638.523 1310.11 637.904C1262.69 637.373 1215.69 647.032 1168.29 648.469C1150.8 648.999 1133.32 648.402 1115.85 647.209C1078.48 644.645 1041.17 639.341 1003.78 636.423C853.296 624.687 702.525 651.607 551.578 652.27C458.501 652.69 365.71 643.098 272.898 636.29C173.525 628.997 73.7993 624.863 -25.8162 628.135C-124.857 631.384 -219.371 647.231 -318.39 630.654C-320.223 630.345 -322.1 630.058 -324 629.792V778.917C-308.494 781.79 -290.891 780.332 -276.246 782.453C-185.135 795.56 -94.2438 810.236 -3.11002 823.232C177.059 848.915 357.803 871.216 539.408 883.726C812.544 902.536 1087.67 899.242 1358.6 938.872C1398.8 944.751 1444.67 949.437 1482 937.966V650.215C1481.49 650.259 1480.96 650.281 1480.45 650.325Z" fill="url(#paint0_linear_1_887)"/>
</g>
<defs>
<linearGradient id="paint0_linear_1_887" x1="766" y1="627" x2="766" y2="1094" gradientUnits="userSpaceOnUse">
<stop stop-color="#FEFBF3"/>
<stop offset="1" stop-color="white"/>
</linearGradient>
<clipPath id="clip0_1_887">
<rect width="1835" height="962" fill="white" transform="matrix(-1 0 0 1 1566 0)"/>
</clipPath>
</defs>
</svg>
