<svg width="610" height="732" viewBox="0 0 610 732" fill="none" xmlns="http://www.w3.org/2000/svg">
<path d="M609.639 711.085C445.427 714.493 281.278 720.675 117.022 720.909C116.964 720.246 116.905 719.584 116.849 718.921C119.277 718.613 121.705 718.277 124.137 718.006C126.602 717.733 129.074 717.523 131.548 716.991C87.8864 713.534 44.0542 714.039 0.363556 711.09C57.8988 707.577 115.588 708.826 173.14 704.678C136.945 702.339 100.75 699.996 64.5551 697.657C112.186 695.849 159.81 696.615 207.097 694.573C208.249 693.39 205.082 693.339 207.154 691.336C209.303 689.255 207.598 685.361 206.678 682.394C206.048 680.362 205.141 678.335 203.96 676.568C198.792 668.835 196.923 660.523 199.558 651.518C200.624 647.873 198.98 647.524 196.183 647.929C190.932 648.693 185.689 649.498 180.44 650.259C178.581 650.528 177.307 651.316 177.368 653.411C177.471 656.939 175.292 656.868 172.706 656.554C164.812 655.592 156.907 654.753 149.006 653.858C147.5 653.687 146.398 653.902 145.068 655.104C129.998 668.737 112.145 657.712 106.677 645.885C105.266 642.833 105.737 639.72 105.862 636.592C105.92 635.146 105.574 633.787 104.051 633.462C102.236 633.074 102.043 634.672 101.628 635.926C99.9302 641.042 99.896 646.341 99.8058 651.645C99.7716 653.748 100.025 656.449 96.7826 656.195C94.0888 655.985 93.6252 653.763 93.552 651.406C93.4544 648.307 94.6037 645.565 95.687 642.786C96.8875 639.703 98.2564 636.673 99.2543 633.526C99.7082 632.098 100.955 629.69 97.2072 630.356C94.7452 630.793 93.6789 628.658 93.4227 626.612C93.0079 623.289 90.7143 621.649 88.4329 619.661C77.8214 610.41 69.1789 599.529 62.9447 586.892C59.3237 579.551 60.1533 572.134 65.209 565.815C70.8405 558.777 70.5843 551.624 67.4001 543.902C65.7629 539.931 63.8963 536 63.8158 531.56C63.6694 523.46 68.2273 518.523 76.189 518.032C81.435 517.708 86.4712 518.752 91.2658 520.623C93.9546 521.672 96.7777 523.112 94.9624 527.271C94.2304 528.95 94.206 531.423 94.8794 533.134C96.9266 538.318 95.6114 543.446 95.343 548.608C95.2064 551.229 95.6578 554.093 91.6074 554.271C89.914 554.344 90.4972 555.962 90.5045 557.052C90.5142 558.56 91.0852 559.382 92.7542 559.694C103.632 561.739 114.499 563.829 125.643 563.551C126.948 563.52 128.464 563.551 129.518 562.937C137.689 558.152 146.886 556.408 155.867 554.249C161.252 552.953 163.919 548.716 167.679 545.654C169.519 544.156 167.777 543.056 166.63 542.163C163.231 539.523 160.169 536.422 156.275 534.463C154.191 533.417 152.59 531.96 152.81 529.521C153.025 527.154 154.506 525.807 156.98 525.285C159.786 524.692 161.325 522.141 162.75 520.064C166.889 514.036 172.654 509.447 176.573 503.072C178.681 499.647 181.265 494.27 187.412 494.428C188.558 494.458 189.917 492.445 190.913 491.169C225.824 446.489 259.145 400.624 292.71 354.936C313.906 326.087 335.112 297.246 356.496 268.533C359.292 264.779 360.237 261.312 359.412 256.701C354.239 227.796 348.264 199.093 339.141 171.128C336.696 163.63 338.74 159.886 346.665 157.9C356.65 155.397 366.947 154.711 377.08 153.067C383.126 152.086 389.212 151.339 395.28 150.495C397.327 150.21 399.286 150.266 400.682 152.127C402.141 154.077 400.65 155.56 399.826 157.107C389.439 176.546 379.293 196.107 369.843 216.025C369.077 217.64 368.342 219.269 368.259 221.384C369.911 219.164 371.59 216.966 373.208 214.722C398.33 179.886 422.13 144.113 448.177 109.929C457.559 97.6158 468.707 88.5329 483.681 84.1635C486.897 83.2242 488.29 83.8073 489.928 86.6105C501.813 106.969 509.379 129.024 515.772 151.547C525.444 185.619 529.622 220.382 528.694 255.771C528.448 265.152 527.994 265.925 518.659 268.067C491.028 274.408 463.146 279.385 435.079 283.352C414.72 286.231 394.321 288.785 373.818 290.354C364.685 291.051 364.665 290.785 363.126 281.964C362.245 276.911 361.357 271.861 360.337 266.042C353.349 275.552 346.746 284.537 340.143 293.52C301.159 346.556 262.224 399.626 223.155 452.601C212.824 466.609 202.086 480.315 191.528 494.158C190.479 495.534 188.727 496.739 190.391 498.749C191.967 500.652 193.433 502.848 196.466 502.045C199.665 501.199 202.827 500.198 206.053 499.466C207.239 499.198 208.942 498.822 209.452 500.537C210.035 502.492 208.13 502.482 207.029 502.943C204.587 503.968 201.925 504.587 199.665 505.907C195.869 508.122 192.782 507.529 189.942 504.424C188.746 503.114 188.112 502.689 186.243 504.27C178.252 511.038 171.005 518.554 163.456 525.768C160.535 528.559 160.813 530.823 163.253 533.851C168.423 540.26 176.314 541.024 183.127 544.007C184.574 544.642 185.564 543.397 186.45 542.382C198.326 528.755 210.255 515.173 222.04 501.467C224.678 498.398 227.589 495.531 228.152 490.945C228.486 488.222 232.459 488.273 234.499 485.956C229.594 483.679 232.835 480.993 234.281 478.432C235.023 477.117 236.497 477.204 237.095 478.422C239.061 482.433 240.142 479.749 241.611 478.058C252.276 465.799 262.973 453.564 273.692 441.351C278.938 435.374 278.846 434.474 271.877 428.082C268.029 424.554 262.195 424.691 258.491 428.565C256.934 430.192 255.695 432.125 254.209 434.054C252.12 432.007 253.201 430.28 254.043 428.504C257.381 421.451 270.767 417.777 276.986 423.413C279.973 426.118 285.643 425.354 288.191 422.444C313.428 393.617 338.609 364.741 363.992 336.041C367.352 332.243 368.865 328.664 367.976 323.55C366.788 316.702 366.332 309.72 365.688 302.786C365.571 301.527 364.231 298.909 367.571 299.776C379.671 302.92 391.735 300.376 403.681 299.114C437.138 295.582 470.361 290.419 503.045 282.251C511.712 280.085 520.34 277.597 527.457 270.309C525.986 288.187 522.826 304.945 518.563 321.496C517.673 324.953 513.988 325.546 511.058 326.587C494.625 332.428 477.61 336.114 460.674 340.086C457.307 340.876 453.935 341.647 450.67 342.904C472.496 339.454 494.708 337.932 516.233 329.225C511.741 341.806 506.732 353.558 500.866 365.039C497.245 372.128 492.05 375.546 484.538 377.669C450.026 387.423 414.954 394.515 379.674 400.687C369.772 402.419 369.45 401.926 369.572 391.88C369.587 390.626 369.572 389.374 369.572 387.349C345.328 413.088 320.65 437.106 296.589 461.732C275.144 483.679 253.714 505.641 232.278 527.598C231.38 528.518 229.689 529.257 230.219 530.723C232.154 536.105 227.747 539.374 225.885 543.307C224.482 546.271 221.02 548.199 220.3 551.868C220.061 553.09 219.275 553.698 218.375 552.392C217.199 550.687 216.826 552.214 216.467 552.851C213.81 557.581 209.628 561.461 208.491 567.033C208.081 569.038 207.029 570.268 204.931 570.624C202.827 570.983 201.271 570.08 200.28 568.455C197.237 563.459 192.187 560.69 187.902 557.089C185.962 555.457 183.72 554.068 181.624 557.125C181.368 557.496 180.821 557.794 180.36 557.882C172.742 559.331 169.219 565.571 165.129 571.044C163.424 573.327 159.857 575.013 163.826 579.229C165.683 581.2 163.8 586.56 161.26 588.963C158.949 591.149 158.537 593.196 158.627 595.913C158.776 600.405 159.325 604.828 160.413 609.195C161.064 611.813 162.443 612.996 165.3 613.025C169.773 613.071 174.238 613.589 178.708 613.877C180.994 614.025 183.117 613.799 183.942 617.034C184.491 619.185 187.319 618.641 189.207 618.834C195.473 619.471 201.759 619.912 208.03 620.515C213.005 620.993 216.16 623.447 217.414 628.568C218.478 632.913 220.395 637.005 223.594 640.308C230.36 647.295 234.599 656.019 239.835 664.046C243.361 669.45 247.592 673.219 254.431 672.843C256.668 672.721 258.328 671.179 260.114 670.074C288.847 652.284 318.808 636.805 349.325 622.34C352.79 620.698 354.764 621.261 356.904 623.796C358.612 625.819 360.398 627.775 362.037 629.852C364.848 633.409 366.871 637.078 362.562 641.432C365.38 639.098 368.155 638.388 371.234 640.061C371.797 640.366 372.903 640.564 372.917 640.854C373.083 644.123 375.116 644.104 377.522 643.716C378.544 643.55 379.4 644.387 378.617 645.112C375.941 647.588 377.178 653.416 371.529 653.372C371.058 653.37 369.826 653.641 369.863 655.043C371.575 656.049 372.595 653.924 374.447 654.043C374.064 655.829 372.73 657.376 373.496 659.623C373.823 660.584 371.5 663.946 369.067 663.616C366.783 663.306 364.636 664.463 364.238 665.487C362.269 670.581 357.521 672.16 353.485 672.399C349.708 672.621 350.757 674.978 349.628 676.415C348.661 677.642 348.554 680.243 345.355 678.481C343.389 677.398 344.474 681.297 342.664 682.265C391.469 683.48 440.144 680.982 488.693 685.068C462.029 686.993 435.267 687.296 408.641 690.348C443.292 693.487 478.008 694.883 512.754 696.281C436.472 702.004 359.951 701.346 283.572 704.803C392.228 709.482 501.017 705.266 609.649 711.077L609.639 711.085ZM368.298 334.321C367.388 335.026 366.969 335.255 366.673 335.595C340.221 365.978 313.774 396.364 287.352 426.774C285.726 428.646 283.274 430.097 284.653 433.466C285.309 435.069 284.355 436.85 282.018 436.521C280.346 436.287 279.644 437.467 278.811 438.424C266.731 452.308 254.553 466.107 242.695 480.178C239.747 483.677 236.619 487.214 237.048 492.816C237.356 496.819 234.694 500.02 229.743 499.469C227.691 499.24 226.149 499.51 224.582 501.36C213.114 514.89 201.454 528.259 189.881 541.702C186.958 545.098 187.697 551.475 191.267 554.254C193.226 555.779 195.18 557.313 197.181 558.787C203.169 563.195 204.809 562.905 208.986 556.742C209.45 556.057 209.874 555.342 210.282 554.622C217.89 541.194 226.852 529.067 238.178 518.225C259.848 497.481 280.339 475.504 301.357 454.079C323.417 431.59 345.504 409.126 367.649 386.718C369.399 384.949 370.431 383.256 370.37 380.684C370.009 365.439 370.058 350.179 368.298 334.316V334.321ZM218.197 665.195C218.353 673.351 218.763 680.794 222.323 687.742C223.689 690.409 225.275 690.877 227.745 689.262C230.897 687.2 234.125 685.256 237.868 682.919C231.29 676.99 224.975 671.301 218.199 665.192L218.197 665.195ZM108.621 637.427C108.631 647.417 114.27 652.404 120.773 656.417C126.211 659.774 132.106 660.228 138.831 655.987C125.411 654.809 118.25 645.08 108.621 637.427ZM388.916 230.377C419.817 227.547 450.651 224.156 481.249 218.855C450.392 222.058 419.543 225.315 388.916 230.377ZM166.306 565.013C165.493 565.281 165.149 565.298 164.944 565.474C154.364 574.574 145.575 586.023 131.475 590.502C129.54 591.117 130.22 593.383 131.126 594.791C132.189 596.443 133.331 595.421 134.407 594.542C138.765 590.983 143.384 587.702 147.464 583.852C153.769 577.901 161.548 573.417 166.303 565.015L166.306 565.013ZM154.703 586.587C150.975 594.459 147.849 600.959 144.838 607.507C144.241 608.805 143.594 610.642 145.558 611.288C147.349 611.878 147.964 610.317 148.584 608.829C149.787 605.95 151.348 603.223 152.568 600.349C154.218 596.467 156.06 592.573 154.706 586.584L154.703 586.587ZM150.692 583.759C145.446 588.299 140.224 592.866 134.939 597.36C133.407 598.663 132.934 600.07 134.259 601.622C135.801 603.425 136.974 601.812 137.901 600.817C142.738 595.635 147.237 590.173 150.692 583.761V583.759ZM155.577 598.973C154.381 601.93 153.522 603.798 152.873 605.738C152.258 607.57 150.541 609.8 151.885 611.293C153.291 612.854 155.87 612.227 158.092 611.559C157.319 607.692 156.565 603.915 155.577 598.973ZM149.135 592.381C145.231 596.733 142.086 600.202 138.992 603.715C137.921 604.933 137.396 606.531 138.846 607.607C140.361 608.731 141.547 607.729 142.313 606.187C144.414 601.971 147.471 598.241 149.135 592.378V592.381ZM137.435 577.089C130.56 578.336 123.135 575.662 116.822 580.014C123.642 578.484 130.855 579.704 137.435 577.089Z" fill="#499FAB"/>
<path d="M306.645 95.9665C300.105 86.4055 294.562 77.9692 288.662 69.789C284.689 64.2827 280.295 59.0692 275.932 53.858C269.871 46.622 273.08 37.3294 282.598 35.5752C289.752 34.2554 297.009 33.4771 304.234 32.5501C327.768 29.5273 351.46 28.5344 375.131 26.3777C368.184 26.3777 361.237 26.4241 354.29 26.3704C329.895 26.1753 305.544 26.6607 281.237 29.2224C273.67 30.0202 269.176 33.404 267.409 40.4424C266.516 43.9969 265.431 43.7017 262.912 41.8574C256.217 36.9512 249.2 32.5647 241.343 29.6542C238.559 28.6222 235.953 28.593 233.125 29.52C222.294 33.0673 212.673 38.9151 203.157 44.9826C201.063 46.3171 199.028 47.7418 196.954 49.1349C195.605 47.837 197.047 46.9514 197.396 46.1194C200.434 38.8834 204.862 32.4988 209.589 26.2704C219.227 13.5671 232.688 8.65851 247.858 6.7507C278.331 2.918 308.899 0.836972 339.621 0.783299C375.677 0.722308 409.342 8.85369 439.119 29.8909C450.119 37.6612 449.082 34.3676 443.102 46.139C439.427 53.375 435.218 60.3378 431.512 67.5567C429.098 72.2555 425.448 74.2048 420.312 74.2511C393.082 74.4878 366.005 76.8421 339.016 80.3161C333.758 80.9919 328.507 81.7531 323.266 82.546C315.56 83.7146 308.433 85.7371 306.645 95.9739V95.9665Z" fill="#499FAB"/>
<path d="M334.068 156.26C330.464 147.47 327.592 139.907 324.286 132.537C320.357 123.779 316.141 115.145 311.866 106.547C310.756 104.313 310.834 103.027 312.544 100.97C315.982 96.8375 320.235 94.9785 325.354 94.2612C351.109 90.6554 376.958 88.0864 402.956 87.1423C404.281 87.0935 405.609 87.0203 406.931 87.0813C413.011 87.3667 415.747 90.5798 414.441 96.5179C412.511 105.291 407.502 113.034 405.196 121.59C401.763 134.32 394.275 139.29 381.189 139.492C370.543 139.656 359.944 142.569 349.318 144.225C342.569 145.277 336.908 147.829 334.07 156.263L334.068 156.26Z" fill="#499FAB"/>
<path d="M492.099 379.135C482.918 393.705 471.664 403.485 454.936 407.04C434.735 411.331 414.846 417.096 394.887 422.524C417.504 419.382 439.642 413.978 461.936 407.791C459.686 410.741 457.646 412.339 452.208 414.927C432.49 424.308 411.479 429.702 390.38 434.793C379.766 437.355 369.067 439.478 357.358 441.168C363.284 430.983 365.554 420.365 367.842 409.748C368.145 408.348 368.374 406.967 370.521 406.869C390.01 405.979 408.629 400.402 427.505 396.196C448.965 391.416 470.337 386.3 492.104 379.133L492.099 379.135Z" fill="#499FAB"/>
<path d="M484.401 78.1132C468.722 75.5954 456.636 81.3725 446.54 91.5776C435.189 103.051 426.802 116.899 417.294 129.844C414.937 133.052 413.038 137.326 407.092 135.665C409.537 130.844 411.755 126.101 414.288 121.532C427.461 97.789 439.405 73.307 455.731 51.4355C457.886 48.5494 455.282 47.9004 454.128 46.3976C452.766 44.6215 448.638 43.5286 450.712 41.0133C452.034 39.408 454.477 42.6723 456.048 44.1458C466.706 54.1289 476.249 65.0586 484.399 78.1132H484.401Z" fill="#499FAB"/>
<path d="M393.33 728.897C350.638 731.707 307.943 732.153 265.245 729.221C307.938 725.923 350.633 725.857 393.33 728.897Z" fill="#499FAB"/>
<path d="M454.482 486.822C449.746 486.539 447.164 490.798 442.148 491.991C445.412 487.131 447.006 482.857 446.073 477.617C450.912 479.486 446.554 488.217 454.482 486.822Z" fill="#499FAB"/>
<path d="M237.158 373.336C231.761 372.541 232.037 366.366 226.957 366.556C233.271 367.274 231.837 359.879 237.317 358.549C234.586 363.526 234.059 368.14 237.156 373.336H237.158Z" fill="#499FAB"/>
<path d="M373.923 636.778C373.688 635.226 375.443 635.17 376.655 634.916C378.822 634.46 379.295 636.904 379.093 637.629C378.664 639.154 377.29 641.533 376.275 641.547C373.927 641.579 374.625 638.944 373.923 636.78V636.778Z" fill="#499FAB"/>
<path d="M500.859 663.331C496.606 663.48 492.46 665.573 488.098 663.699C492.28 662.292 496.599 663.348 500.859 663.331Z" fill="#499FAB"/>
<path d="M486.753 663.106C482.908 665.268 479.145 663.494 475.312 663.106H486.753Z" fill="#499FAB"/>
</svg>
