<svg width="1440" height="545" viewBox="0 0 1440 545" fill="none" xmlns="http://www.w3.org/2000/svg">
<g opacity="0.08" clip-path="url(#clip0_1_1631)">
<path d="M1517.35 78.899C1478.63 80.2623 1439.85 79.9132 1401.17 77.835C1400 72.3819 1394.83 68.4085 1389.34 67.4443C1383.85 66.48 1378.19 68.1093 1373.23 70.6529C1372.47 63.0219 1366.93 56.6379 1360.62 52.2488C1350.38 45.1166 1337.12 41.991 1325.02 45.0667C1312.92 48.1424 1302.43 57.8515 1299.6 70.0045C1294.54 64.5182 1287.45 59.4641 1280.17 61.0435C1272.88 62.6229 1266.59 68.2589 1264.26 75.3579C1261.47 69.406 1258.04 63.6703 1253.26 59.1483C1248.49 54.6428 1242.25 51.4342 1235.68 51.2679C1228.77 51.1017 1222.04 54.327 1217.19 59.248C1212.35 64.1691 1209.31 70.6529 1207.69 77.3529C1208.89 70.47 1203.25 62.9056 1196.95 59.8798C1190.64 56.854 1182.82 57.8183 1176.93 61.6088C1171.06 65.3994 1167.07 71.7169 1165.3 78.4834C1159.06 78.8492 1152.84 79.2149 1146.6 79.5807C1143.39 71.5174 1135.54 65.15 1126.85 64.9172C1118.17 64.6845 1109.5 71.5008 1108.8 80.1459C1096.81 80.3953 1084.85 81.4759 1073 83.3546L1534.98 81.5258C1529.76 78.5167 1523.37 78.6995 1517.35 78.899Z" fill="#FBE5B6"/>
<path d="M986.879 470.294C986.114 470.727 985.348 471.159 984.583 471.591C984.051 467.634 979.991 464.841 975.998 464.608C972.005 464.359 968.162 466.105 964.751 468.216C964.202 462.065 960.126 456.346 954.503 453.819C948.863 451.275 941.892 452.023 936.917 455.697C933.79 458.008 934.156 461.45 930.678 463.195C925.787 448.798 910.198 439.371 895.008 440.02C879.819 440.652 865.76 450.377 858.157 463.544C853.948 457.293 846.195 453.619 838.675 454.317C831.171 455.016 824.217 460.053 821.239 466.969C804.968 467.584 790.693 472.938 774.422 472.938H1003.82L986.895 470.311L986.879 470.294Z" fill="#FBE5B6"/>
<path d="M151.457 58.306C150.692 58.7383 149.926 59.1705 149.161 59.6028C148.629 55.646 144.569 52.8529 140.576 52.6202C136.583 52.3708 132.74 54.1165 129.329 56.2279C128.78 50.0765 124.704 44.3574 119.081 41.8304C113.441 39.2867 106.47 40.0349 101.495 43.7091C98.3677 46.02 98.7337 49.4614 95.2565 51.2071C90.3652 36.8096 74.7762 27.3831 59.5864 28.0315C44.3966 28.6632 30.3382 38.389 22.735 51.5562C18.5258 45.3051 10.7729 41.6309 3.25285 42.3291C-4.25053 43.0274 -11.2049 48.0649 -14.1829 54.981C-30.4541 55.5961 -44.7288 60.9494 -61 60.9494H168.394L151.474 58.3227L151.457 58.306Z" fill="#FBE5B6"/>
<path d="M-79.5638 415.937C-78.6321 417.898 -77.168 419.544 -75.6541 421.09C-67.8512 428.938 -59.0169 433.027 -48.7517 436.302C-38.1039 439.694 -28.0384 448.256 -19.0876 454.69C-17.6069 455.754 -16.0596 456.885 -15.2278 458.53C-14.5623 459.844 -14.4125 461.357 -14.2794 462.836C-14.2794 473.327 -11.2348 482.67 -13.614 493.078C-13.6805 493.393 -13.7803 493.743 -14.0465 493.926C-14.5456 494.291 -15.2278 493.876 -15.6936 493.477L-40.9988 472.047C-48.5354 465.663 -56.5878 459.029 -66.3372 457.433C-67.2856 462.404 -68.7829 467.275 -70.8293 471.914C-64.5903 476.552 -56.6877 478.364 -50.1825 482.604C-41.448 488.29 -36.1906 497.583 -30.2678 505.879C-27.5892 509.636 -23.1804 513.294 -21.5665 517.417C-19.3039 523.136 -18.6883 529.454 -16.1761 535.223C-14.6954 538.631 -12.9651 541.939 -11.8338 545.464C-9.48794 552.762 -9.75413 560.626 -10.0536 568.29C-10.4196 577.8 -10.7856 587.326 -12.4327 596.703C-15.2278 612.646 -21.6664 627.725 -29.1198 642.09C-32.0979 647.858 -35.259 653.528 -38.8526 658.931C-43.0452 665.232 -47.8367 671.15 -51.6799 677.668C-56.6211 685.997 -59.9485 695.174 -63.2427 704.268C-68.7663 719.497 -69.6314 735.839 -69.7312 751.899C-69.7811 758.998 -70.3967 766.247 -70.3634 773.263C-70.3302 778.4 -69.3486 783.47 -68.7496 788.591H-19.4703C-17.0911 771.932 -14.1131 755.341 -10.4363 738.915C-8.27342 729.256 -6.32687 719.264 -3.28226 709.854C-0.703499 701.89 3.60554 694.293 6.41722 686.313C22.3723 641.059 22.5719 591.782 17.9967 544.549C17.6972 541.54 17.3978 538.415 18.3627 535.538C19.2778 532.795 21.2243 530.568 23.1043 528.373C42.7695 505.364 59.0573 476.486 55.7465 446.411C60.9207 436.718 64.4478 428.771 69.6219 419.079C71.3023 415.92 73.0159 412.728 75.4782 410.118C78.6559 406.743 82.915 404.565 86.3423 401.439C91.1338 397.1 94.1951 391.098 99.0864 386.876C107.438 379.644 119.367 378.862 129.932 375.604C143.558 371.381 156.335 361.456 159.845 347.64C158.065 347.158 158.032 346.809 156.268 346.327C156.451 346.36 153.623 326.809 152.725 322.22C154.472 317.731 156.219 313.259 157.965 308.77C158.232 308.072 158.481 307.075 158.914 306.26C162.141 305.129 165.569 304.614 168.863 303.7C170.094 303.533 171.325 303.334 172.54 303.068C174.786 302.586 176.882 301.638 178.429 299.909C179.777 298.396 180.642 296.551 181.241 294.639C181.906 292.511 182.256 290.3 182.622 288.105C183.071 285.362 183.653 282.652 184.435 279.992C184.884 278.463 185.4 276.966 185.966 275.487C186.531 274.04 187.064 272.394 188.428 271.497C189.709 270.649 191.256 270.15 192.637 269.535L197.396 267.457C197.495 267.423 197.529 267.357 197.595 267.29C205.481 266.858 213.118 265.295 219.939 261.122C225.845 257.498 230.836 252.361 234.314 246.359C236.31 242.901 237.791 239.144 238.672 235.254C238.922 234.156 237.225 233.691 236.975 234.788C234.014 247.922 223.882 259.144 211.055 263.334C206.895 264.697 202.553 265.246 198.194 265.512C203.318 262.17 207.827 258.047 211.62 253.292C214.831 249.634 217.809 245.777 220.688 241.854C220.821 241.821 220.937 241.754 221.054 241.638C224.165 238.595 226.727 235.071 228.657 231.214C229.655 229.85 230.587 228.454 231.452 227.008C231.918 226.21 230.82 225.262 230.171 225.86C229.838 225.678 229.389 225.661 229.073 225.96C223.083 231.53 219.224 238.811 214.881 245.644C213.317 248.122 211.62 250.482 209.79 252.727C207.444 255.337 204.982 257.831 202.304 260.142C200.44 261.738 198.494 263.234 196.464 264.581C196.381 264.63 196.298 264.68 196.214 264.73C195.965 264.896 195.715 265.029 195.466 265.196C192.97 266.692 190.341 268.005 187.646 269.069C185.849 269.784 183.753 270.167 182.106 271.197C180.359 272.295 179.927 274.14 179.544 276.052C178.579 280.89 177.747 285.761 176.948 290.632C176.666 292.411 176.35 294.423 175.118 295.819C173.688 297.465 171.192 297.615 169.179 297.947C166.517 298.396 163.855 298.845 161.21 299.277C158.98 299.66 156.585 299.909 154.937 301.655C153.257 303.417 152.242 305.927 151.094 308.022C150.429 309.219 149.78 310.433 149.114 311.63C147.334 307.191 145.305 302.852 143.341 298.463C143.192 298.147 143.058 297.814 143.009 297.465C142.925 296.9 143.108 296.318 143.258 295.769C143.824 293.758 144.09 291.68 144.057 289.585C144.057 288.803 144.007 288.005 144.34 287.307C145.404 285.163 149.131 282.619 150.945 281.023C153.789 278.529 156.585 275.985 159.313 273.375C164.52 268.371 169.495 263.101 173.937 257.398C174.287 257.432 174.653 257.448 175.019 257.482C175.185 257.598 175.401 257.648 175.651 257.615C175.767 257.598 175.9 257.565 176.017 257.548C179.095 257.731 182.222 257.698 185.117 256.634C188.777 255.287 191.223 252.328 193.669 249.435C199.159 242.934 204.367 236.185 209.258 229.219C209.923 228.271 210.589 227.307 211.254 226.343C211.903 225.412 212.718 224.447 213.218 223.416C213.617 222.585 213.517 221.355 212.802 220.906C212.918 220.091 211.687 219.51 211.171 220.357C207.444 226.492 203.501 232.477 199.325 238.313C197.213 241.255 195.066 244.165 192.837 247.008C190.707 249.701 188.445 251.995 185.067 253.009C183.104 253.608 181.074 254.024 179.028 254.406C178.895 254.09 178.596 253.857 178.246 253.874C177.897 253.907 177.531 253.874 177.181 253.874C176.998 253.824 176.832 253.774 176.649 253.741C182.405 245.678 186.914 236.916 189.31 227.174C189.693 225.628 189.559 223.383 187.979 223.184C187.663 223.15 180.442 239.21 179.577 240.74C176.283 246.592 172.59 252.245 168.547 257.598C160.993 267.606 151.993 277.781 141.129 284.232C140.214 284.78 139.232 285.329 138.716 286.26C138.417 286.792 138.317 287.407 138.2 288.022L137.019 294.805C136.919 295.404 136.803 296.019 136.836 296.634C136.903 297.881 137.552 298.995 138.151 300.075C146.519 315.354 146.902 331.68 146.635 348.704C146.586 351.996 146.103 355.986 143.108 357.366C128.085 364.232 114.559 370.566 98.4875 374.407C96.2248 374.939 93.9289 375.554 92.0489 376.917C89.8694 378.48 88.4719 380.874 86.8913 383.035C80.6191 391.614 71.0195 397.084 63.6658 404.764C56.5784 412.179 51.7702 421.423 47.0619 430.534L39.4421 445.263C38.6102 446.876 37.7617 448.539 37.4622 450.334C36.2311 457.732 39.6583 462.77 36.5805 470.501C33.6024 477.965 27.8459 483.817 22.1394 489.27C17.1316 494.059 12.1071 498.863 7.09934 503.651C9.17899 493.61 5.81828 483.169 7.06607 472.994C8.08094 464.748 12.0572 457.2 15.3015 449.553C19.3776 439.943 21.3408 429.752 22.9379 419.494C24.5518 409.187 25.8661 402.936 34.5507 396.352C36.3974 394.956 38.2442 393.559 40.0743 392.163C44.8491 388.522 51.4874 383.285 52.1861 377C52.9182 370.417 51.4874 358.363 55.6799 352.661C56.6283 351.381 58.2587 350.832 59.7394 350.267C64.847 348.338 69.572 345.346 73.4984 341.555C75.4949 339.627 77.3582 337.349 77.7742 334.606C77.9904 333.193 77.7908 331.73 78.1069 330.333C79.3048 324.88 86.7915 323.517 89.7529 318.795C106.39 313.243 116.888 301.006 122.279 284.331C123.111 281.771 123.793 279.061 125.473 276.966C127.436 274.506 130.464 273.226 133.259 271.813C151.627 262.569 164.886 243.882 167.565 223.516C166.866 221.771 166.151 220.025 165.452 218.279C160.694 235.137 154.372 253.907 138.566 261.472C141.528 250.033 142.875 238.18 142.593 226.376C142.143 228.055 140.28 229.235 138.566 228.903C139.082 237.215 138.467 245.595 136.72 253.724C135.954 257.265 134.94 260.89 132.644 263.716C130.348 266.526 126.504 268.354 123.027 267.324C118.402 262.054 117.471 254.472 118.153 247.506C118.968 239.26 121.347 231.214 122.079 222.984L118.086 224.464C114.21 233.242 111.897 242.685 111.281 252.261C111.015 256.451 111.098 260.807 112.779 264.664C114.376 268.338 117.287 271.264 120.132 274.107C121.696 275.67 119.467 275.869 118.319 277.764C116.156 281.306 113.977 284.847 111.764 288.371C108.52 293.542 105.126 298.762 100.401 302.619C97.9218 304.631 95.1101 306.227 92.3317 307.806C88.7214 309.851 85.1278 311.879 81.5175 313.924C78.6726 315.537 75.7943 317.166 73.5317 319.51C71.5685 321.522 70.1377 323.982 68.6902 326.376C65.0966 332.378 60.9373 338.546 54.5819 341.456C52.5355 342.387 50.3061 342.952 48.4594 344.232C40.0244 350.067 44.5663 362.902 40.8229 370.982C39.7748 373.26 38.2109 375.255 36.6137 377.183C33.7521 380.641 30.7242 383.966 27.5298 387.108C21.5571 393.01 16.4994 399.062 11.5248 405.745C6.03457 413.127 6.79988 423.252 4.45403 432.146C3.73863 434.839 2.74039 437.466 1.4427 439.943C1.14323 440.509 0.793846 441.107 0.194908 441.307C-0.187752 441.423 -0.587044 441.373 -0.986336 441.307C-13.2313 438.996 -20.3188 425.729 -31.7984 420.891C-36.2738 418.996 -41.1818 418.497 -45.8236 417.05C-58.4013 413.16 -68.1008 402.753 -80.6119 398.663C-79.9797 404.432 -82.1758 410.533 -79.5804 416.036L-79.5638 415.937Z" fill="#FBE5B6"/>
<path d="M72.2171 218.263C72.5997 228.92 76.7257 239.028 80.7852 248.887C84.096 256.933 87.6397 265.296 94.3279 270.882C91.8157 275.271 89.2702 279.693 85.9095 283.467C83.1976 286.526 79.9866 289.136 77.5909 292.428C73.8142 297.632 72.3335 304.432 73.6146 310.732C74.147 313.376 75.1452 315.92 75.4779 318.596C76.1434 323.966 73.8808 329.619 69.6882 333.044C68.9063 322.753 68.1077 313.725 68.0245 303.401C67.9746 297.482 69.7048 292.162 73.4648 287.407C75.7109 284.564 78.639 282.353 81.301 279.893C83.9629 277.432 86.4585 274.589 87.4401 271.098C86.2422 267.923 84.6617 266.842 82.5487 264.182C79.1215 259.859 77.3579 254.473 75.6776 249.203C72.1006 238.08 68.4903 226.526 70.0043 214.938C70.2206 213.242 71.5848 211.014 73.0656 211.896C73.1487 214.489 72.1172 215.62 72.2171 218.213V218.263Z" fill="#FBE5B6"/>
<path d="M90.2343 243.999C87.7554 247.956 84.0786 251.032 80.2188 253.658C80.7179 254.822 83.1635 260.242 82.0821 261.356C86.3579 256.95 89.3359 251.48 92.2641 246.094C93.4121 243.982 94.5434 241.888 95.6913 239.776C97.0223 237.316 97.1221 231.979 97.1554 229.153C97.1887 225.129 96.3069 221.123 95.4584 217.216C95.5083 217.432 94.6432 220.89 94.6598 221.838C94.6765 224.415 94.6266 227.008 94.4103 229.568C93.9944 234.589 92.9462 239.677 90.251 243.999H90.2343Z" fill="#FBE5B6"/>
<path d="M76.796 242.436C76.1971 242.054 75.6148 241.688 75.0158 241.306C74.9327 241.056 74.7496 240.84 74.4835 240.741C74.1507 240.624 73.818 240.491 73.4686 240.375C73.2357 240.292 73.0194 240.308 72.853 240.408C70.79 239.743 68.7103 239.061 66.7804 238.08C64.6675 237 62.8873 235.454 61.4233 233.608C59.5599 231.248 58.3287 228.538 57.3638 225.711C57.2473 225.229 57.1309 224.764 57.031 224.282C56.9978 224.082 56.8979 223.949 56.7815 223.849C56.3489 222.37 55.9663 220.873 55.6002 219.394C55.334 218.296 53.637 218.762 53.9032 219.859C54.419 221.954 54.968 224.065 55.6668 226.127C56.7482 230.366 58.7613 234.456 61.9224 237.532C63.7857 239.361 66.0151 240.657 68.361 241.738C70.8565 242.902 73.5019 244.282 76.3302 244.049C77.1787 243.982 77.5447 242.902 76.7794 242.42L76.796 242.436Z" fill="#FBE5B6"/>
<path d="M65.5604 219.626C64.7119 221.654 65.2775 225.362 64.8949 227.623C64.0464 232.677 62.4159 237.598 59.9203 242.07C57.8074 245.861 55.5115 249.535 53.4318 253.359C51.5352 256.85 44.6973 266.858 43.8155 257.199C43.566 254.34 44.0318 251.364 43.8655 248.471C43.3663 239.942 40.4548 227.989 43.4662 219.743C43.6991 219.094 43.9653 218.446 44.2814 217.831C44.4977 217.398 44.3313 216.983 44.0485 216.75C44.0485 216.717 44.0485 216.7 44.0485 216.667C44.298 215.57 42.6343 215.104 42.3515 216.201C42.1019 217.216 41.8357 218.246 41.5862 219.26C40.7044 221.322 40.1554 223.5 39.989 225.761C39.9557 226.127 40.1554 226.376 40.4216 226.509C40.4216 230.848 40.4216 235.187 40.4216 239.543C35.4969 239.294 31.8201 235.054 30.173 230.682C29.1748 228.022 28.6923 225.196 28.293 222.403C28.1433 221.372 28.1267 220.108 27.8771 219.044C27.927 218.529 27.9936 218.03 28.1267 217.515C28.3762 216.417 26.6959 215.952 26.4297 217.049C26.413 217.149 26.3964 217.249 26.3798 217.348C26.1136 217.348 25.8474 217.448 25.6144 217.698C25.0821 218.28 25.5479 219.061 26.1302 219.177C25.8807 222.153 26.463 225.179 27.1451 228.088C27.8605 231.114 28.8587 234.157 30.6222 236.75C32.4856 239.493 35.0644 241.305 38.0591 242.635C38.658 242.901 39.5731 243.433 40.4382 243.683C40.4382 249.103 40.4382 254.539 40.4382 259.959C40.4382 262.503 40.4715 264.847 38.6081 266.809C36.778 268.72 34.6152 270.383 32.6187 272.112C28.3929 275.786 24.1837 279.46 19.9578 283.135C18.2275 284.647 16.0481 286.11 15.2661 288.371C14.5008 290.599 15.0166 293.16 15.1996 295.437C15.4159 298.197 15.6488 300.957 15.8651 303.717C15.915 304.348 15.9649 304.997 16.0148 305.628C16.0647 306.177 15.9982 307.025 16.1812 307.557C16.3309 307.956 16.6137 308.089 16.9631 308.288C17.6951 308.721 18.4771 309.12 19.2258 309.519C21.6215 310.832 24.0006 312.129 26.3964 313.442C28.526 314.606 30.7387 315.703 32.7518 317.083C34.715 318.413 36.3122 320.076 37.3437 322.237C38.3585 324.365 38.8244 326.726 39.257 329.02C39.7394 331.614 40.1886 334.224 40.5879 336.851C41.4697 342.62 42.1518 348.422 42.6177 354.257C42.7674 356.136 42.1186 365.463 43.3663 366.493C45.4127 368.206 48.5239 362.836 49.1394 361.157C53.931 348.206 49.5886 333.858 45.2297 320.757C44.4644 318.43 43.6658 316.069 42.1518 314.141C39.7394 311.048 35.8796 309.519 32.2028 308.139C29.7238 307.208 27.2615 306.277 24.7826 305.346C23.984 305.047 23.1355 304.714 22.5865 304.049C21.9875 303.334 21.8545 302.337 21.738 301.406C21.189 297.033 20.6732 292.362 22.6863 288.438C23.7677 286.327 25.498 284.631 27.1783 282.985C30.0233 280.208 32.7851 276.817 35.9462 274.406C38.292 272.627 41.0704 271.497 43.5161 269.718C51.7016 263.783 55.4117 254.523 60.4527 246.094C61.8503 243.749 63.5306 241.555 64.6952 239.094C66.0262 236.268 66.6418 233.176 67.2241 230.117C68.006 226.077 68.7713 222.004 68.8212 217.881C68.8545 216.052 65.6935 219.211 65.5104 219.643L65.5604 219.626Z" fill="#FBE5B6"/>
<path d="M13.7864 225.162C13.9362 225.162 10.7252 237.648 10.5422 238.761C10.2594 240.574 9.72697 242.17 9.16131 243.766C6.05015 238.296 3.37156 232.394 3.63776 225.977C3.68767 224.846 1.92414 224.846 1.89086 225.977C1.59139 233.209 4.83564 239.842 8.41264 245.944C8.11317 246.858 7.8137 247.789 7.59742 248.787C7.34786 249.917 7.38113 251.097 7.11494 252.228C6.58255 254.572 3.18856 258.662 0.326961 257.631C-2.00225 256.8 -5.3796 249.851 -6.87695 247.789C-8.85677 245.046 -6.44438 239.576 -6.21146 236.251C-6.11163 234.855 -7.2596 218.545 -10.77 221.189C-11.1693 221.488 -9.15624 232.078 -9.48899 233.824C-10.4373 238.828 -12.3672 244.231 -10.2709 249.219C-8.47411 253.508 -3.79907 256.9 -4.31482 261.538C-4.6642 264.747 -7.55907 267.29 -7.75872 270.532C-7.92509 273.226 -6.17818 275.636 -4.43128 277.698C-4.18172 274.605 -3.93217 271.513 -3.68261 268.421C-3.58279 267.24 -3.48295 266.027 -2.91729 264.996C-1.17038 261.787 3.53794 262.07 6.54927 260.009C9.37759 258.08 10.3259 254.406 11.0413 251.064C12.9047 242.452 14.7847 233.84 16.648 225.212C15.6997 225.212 14.7348 225.195 13.7864 225.179V225.162Z" fill="#FBE5B6"/>
<path d="M5.58644 297.066C5.42007 293.625 5.10396 290.2 4.55493 286.792C4.07246 283.799 3.47351 280.774 2.15917 278.014C0.811562 275.204 -1.35127 272.91 -3.64721 270.848C-6.0596 268.687 -8.60509 266.675 -11.1839 264.73C-16.3913 260.807 -21.815 257.132 -26.7563 252.843C-32.2798 248.055 -37.4373 242.801 -42.6781 237.714C-42.8611 237.515 -43.0607 237.332 -43.2604 237.149C-43.4933 236.933 -43.7262 236.7 -43.9591 236.467C-44.0257 236.401 -44.0922 236.401 -44.1588 236.368C-44.1921 236.351 -44.2087 236.318 -44.242 236.301C-44.5082 236.102 -44.7577 236.102 -44.974 236.201C-45.0738 236.151 -45.1903 236.118 -45.3234 236.118C-46.4547 236.118 -46.4547 237.864 -45.3234 237.864C-45.2402 237.864 -45.1736 237.847 -45.1237 237.814C-44.9906 237.914 -44.8908 238.03 -44.7577 238.13C-44.4083 238.462 -44.059 238.795 -43.7262 239.127C-42.7446 240.258 -41.9627 241.571 -41.2473 242.885C-40.1659 244.846 -39.0844 246.792 -37.8533 248.67C-35.391 252.444 -32.546 255.985 -29.3683 259.194C-26.1906 262.436 -22.6469 265.196 -19.0533 267.922C-15.2932 270.782 -11.6663 273.791 -9.02102 277.748C-6.1927 281.987 -4.34596 286.759 -2.56578 291.513C-2.38277 302.42 -4.11304 313.409 -5.36083 324.165C-5.36083 324.215 -5.36083 324.265 -5.36083 324.298C-6.12614 325.711 -7.0911 327.041 -7.97287 328.322C-9.83624 330.998 -11.7495 333.642 -13.9623 336.036C-15.0437 337.2 -16.1916 338.297 -17.4228 339.294C-18.6872 340.325 -20.0848 341.04 -21.449 341.921C-22.7633 342.769 -22.3641 343.949 -21.6653 345.08C-20.9166 346.294 -20.0182 347.407 -19.1032 348.488C-16.957 351.048 -14.5778 353.559 -13.746 356.9C-13.4964 357.931 -12.1322 357.582 -12.0324 356.668C-11.5665 352.877 -11.0674 348.97 -9.42031 345.479C-7.97288 342.403 -5.81004 339.76 -3.7304 337.1C0.578636 331.547 3.77299 325.495 5.17051 318.563C5.17051 318.513 5.17051 318.463 5.17051 318.413C5.20379 318.33 5.23705 318.23 5.23705 318.13C5.55316 311.098 5.88591 304.065 5.55316 297.033L5.58644 297.066Z" fill="#FBE5B6"/>
<path d="M279.403 255.221C273.996 257.199 268.34 258.43 262.7 259.66L236.463 265.362C235.781 265.512 235.032 265.712 234.233 265.928C240.788 259.56 243.583 250.333 248.857 242.952C249.506 242.037 247.992 241.156 247.343 242.071C246.894 242.702 246.462 243.367 246.029 244.032C245.829 244.082 245.646 244.199 245.53 244.431C240.372 253.559 234.267 262.536 225.915 268.937C223.802 269.868 221.872 270.865 220.441 271.846C216.248 274.689 211.324 304.498 209.261 305.695C205.318 307.99 202.822 308.804 197.997 310.816C193.173 312.827 187.965 312.744 186.9 317.865C186.601 319.278 186.801 324.199 185.952 325.363C185.47 326.028 184.738 326.493 184.039 326.942C173.125 333.858 162.211 340.774 151.297 347.691C151.763 347.391 153.393 356.003 153.443 356.718C159.815 347.89 172.709 344.366 181.876 338.68C183.157 337.882 184.455 337.084 185.436 335.953C186.984 334.191 187.616 331.813 188.198 329.536C190.877 319.128 192.64 318.879 202.573 315.172C205.384 314.124 208.279 313.027 210.492 310.982C213.187 308.505 214.551 304.947 215.783 301.506C219.177 292.063 222.288 282.503 225.116 272.86C238.742 268.438 252.9 265.845 266.576 261.605C274.462 259.161 282.232 256.135 289.402 252.012C293.977 249.386 302.762 244.93 303.743 239.178C296.007 245.645 289.119 251.647 279.42 255.204L279.403 255.221Z" fill="#FBE5B6"/>
<path d="M256.056 343.251C240.933 338.53 224.695 337.466 209.089 340.142C199.623 341.772 191.171 348.987 181.572 349.004C171.689 349.02 161.058 344.498 152.423 349.286C153.372 353.742 152.074 358.613 149.062 362.038C159.893 355.571 173.952 361.173 186.263 358.463C195.247 356.485 202.734 350.184 211.585 347.674C227.44 343.202 254.426 349.702 270.564 353.094C273.592 353.725 289.447 348.854 302.591 343.434C308.63 340.957 314.669 338.314 321.074 337.117C325.25 336.335 329.526 336.186 333.785 336.053C342.986 335.737 352.186 335.421 361.37 335.105C366.012 334.939 370.82 334.39 375.461 334.623C378.722 334.789 381.035 334.839 383.697 332.412C391.217 325.562 398.72 318.696 406.24 311.846C404.71 310.583 402.464 311.846 400.933 313.093C397.173 316.202 393.613 319.527 390.235 323.035C387.49 325.895 384.861 329.004 381.185 330.699C377.408 332.445 372.517 331.747 368.374 331.531C367.442 331.481 360.821 330.184 360.355 330.649C370.304 320.708 378.606 307.84 383.547 294.656C380.286 293.758 378.955 298.762 377.059 301.572C373.648 306.609 370.254 311.647 366.843 316.684C365.895 315.271 364.963 313.858 364.015 312.445C363.383 311.497 363.133 310.832 363.216 309.702C363.316 308.505 363.433 307.308 363.549 306.094C363.949 301.655 363.965 296.933 365.246 292.644C365.562 291.564 363.882 291.098 363.549 292.179C362.9 294.373 362.651 296.634 362.451 298.912C362.218 301.456 361.985 303.983 361.752 306.526C361.569 308.555 360.954 310.849 362.085 312.694C363.25 314.589 364.531 316.418 365.779 318.264C363.266 321.954 360.571 325.645 356.761 327.923C352.119 330.683 346.513 330.284 341.372 329.552C338.41 329.137 335.865 329.868 333.02 328.937C330.657 328.172 328.145 327.856 325.65 328.006C327.613 322.786 330.574 317.383 335.366 314.29C336.647 313.459 338.161 313.11 339.608 312.578C345.082 310.583 349.358 306.077 352.203 301.007C355.064 295.936 356.661 290.267 358.175 284.647C357.493 284.963 356.661 284.98 355.963 284.664C352.602 292.062 348.609 300.658 342.054 305.761C339.708 302.636 337.728 299.244 336.164 295.67C335.848 294.955 335.316 294.107 334.567 294.257C334.867 295.47 334.6 296.801 333.852 297.798C334.734 298.264 335.233 299.195 335.682 300.092C336.996 302.702 338.327 305.329 339.159 308.139C339.043 307.74 336.763 310.234 336.564 310.367C335.05 311.414 332.804 311.88 331.007 312.079C329.243 304.963 327.447 297.765 323.82 291.397C323.221 290.35 322.572 289.319 322.189 288.172C321.906 287.341 321.44 286.243 320.592 286.426C320.276 286.493 320.026 286.742 319.81 286.992C318.845 288.039 317.88 289.086 316.915 290.134C320.309 293.193 323.836 296.418 325.433 300.691C326.332 303.101 326.565 305.695 327.08 308.222C327.663 311.048 328.761 314.49 327.862 317.383C327.031 320.059 324.452 322.47 322.755 324.681C321.407 326.443 320.06 328.206 318.346 329.619C315.251 332.212 310.726 332.877 307.033 334.44C302.125 336.518 297.183 338.513 292.109 340.176C281.012 343.817 267.486 346.793 256.09 343.235L256.056 343.251Z" fill="#FBE5B6"/>
<path d="M477.553 315.171C469.6 310.749 460.6 308.239 451.499 307.856C450.335 285.662 432.583 266.06 411.087 260.341C391.156 255.021 369.195 260.84 352.857 273.525C348.582 261.954 330.031 262.719 319.367 264.099C305.242 265.927 291.083 272.361 283.83 285.213C282.781 287.058 283.048 289.602 280.669 290.317C279.537 290.666 278.323 290.533 277.141 290.466C267.592 289.901 257.859 292.96 250.372 298.912C248.159 300.674 246.03 302.869 245.564 305.662C245.481 306.21 245.431 306.825 245.048 307.241C244.732 307.574 244.266 307.707 243.834 307.823C241.139 308.505 238.427 309.203 235.731 309.885C234.617 310.167 233.386 310.533 232.77 311.514C230.358 315.354 239.308 314.589 240.556 314.606C245.381 314.673 250.222 314.639 255.047 314.456H384.734C386.281 317.349 385.516 320.575 387.879 323.517C391.156 327.607 398.942 326.227 403.617 326.626C411.736 327.324 419.938 327.541 428.074 327.823C444.379 328.372 460.683 328.455 476.987 328.039C478.917 327.989 481.03 327.873 482.461 326.576C486.071 323.318 481.796 317.549 477.536 315.188L477.553 315.171Z" fill="#FBE5B6"/>
<path d="M382.052 242.436C374.266 235.204 363.817 230.881 353.203 230.499C354.767 225.229 351.606 219.343 346.864 216.55C342.239 213.807 336.499 213.574 331.325 214.406C346.448 201.737 309.547 179.077 300.047 176.101C287.969 172.327 274.908 172.876 262.48 175.237C258.171 167.356 249.087 162.352 240.12 162.917C237.009 149.335 226.86 137.547 213.883 132.427C200.906 127.306 185.45 129.002 173.887 136.799C167.964 128.304 154.472 126.458 146.486 133.042C138.783 112.244 117.903 97.0149 95.7257 96.0507C73.5484 95.0698 51.4043 108.42 41.9211 128.453C35.8651 121.587 24.9511 119.991 16.8654 124.031C9.12914 109.966 -6.34346 100.839 -22.7644 101.487C-32.6635 101.886 -42.4129 105.394 -50.3322 111.329C-58.6342 117.564 -64.374 126.076 -68.2172 135.635C-69.7145 139.376 -70.8958 143.2 -71.8774 147.09C-88.9305 158.927 -99.362 180.158 -97.5319 200.923C-104.769 197.947 -111.674 206.209 -113.836 213.724C-115.65 219.975 -115.833 227.772 -110.775 231.895C-107.281 234.738 -102.407 234.905 -97.8979 234.921C-90.3779 234.971 -82.625 234.289 -75.1549 234.722C-73.8073 234.805 -72.5262 234.905 -71.2618 235.004C-65.6384 235.453 -60.7804 235.686 -55.3733 231.912C-54.375 231.214 -53.4101 230.399 -52.9442 229.285C-52.5782 228.421 -52.5283 227.456 -52.5117 226.509C-52.4285 222.485 -52.5616 218.446 -52.9442 214.439C-44.2763 214.256 -35.6249 213.541 -27.0401 212.278C-25.9753 214.771 -26.4079 217.614 -26.4745 220.341C-26.541 223.051 -26.0086 226.143 -23.7626 227.656C-19.936 230.233 -12.9318 227.506 -8.53957 227.573C-1.76823 227.673 5.11957 228.77 11.8909 229.169C25.5667 229.95 39.2591 230.2 52.9515 230.15C80.7689 230.033 108.57 228.653 136.354 227.739C146.852 227.39 157.333 226.891 167.848 226.858C186.914 226.825 206.03 228.371 225.03 226.825C218.109 228.288 214.299 237.631 218.242 243.5C209.807 245.295 201.621 248.271 194.018 252.344C198.843 255.088 207.711 252.827 213.218 252.96C220.987 253.159 228.757 253.342 236.526 253.492C252.481 253.807 268.42 254.04 284.375 254.157C315.869 254.406 347.363 254.256 378.857 253.724C380.937 253.691 383.283 253.541 384.681 252.012C387.176 249.285 384.73 244.946 382.035 242.436H382.052Z" fill="#FBE5B6"/>
<g opacity="0.24">
<path d="M1252.05 132.004C1250.32 131.787 1248.42 131.505 1247.22 130.241C1246.11 129.061 1245.88 127.349 1245.49 125.786C1242.9 115.395 1230.87 109.144 1220.04 110.358C1209.21 111.571 1197.33 116.908 1190.66 125.37C1188.01 112.984 1178.5 102.228 1166.38 97.9053C1154.27 93.5827 1139.96 95.8271 1129.82 103.641C1122.26 109.46 1117.22 117.905 1113.66 126.667C1105.09 119.701 1090.1 123.159 1085.59 133.134C1079.52 132.984 1073.43 132.835 1067.36 132.702C1066.04 132.669 1064.71 132.635 1063.5 132.137C1062.19 131.588 1061.17 130.541 1060.12 129.593C1048.54 119.102 1028.66 119.169 1017.15 129.726C1015.63 131.122 1014.14 132.735 1012.12 133.25C1010.61 133.649 1009.03 133.367 1007.48 133.201C1001.29 132.536 996.335 133.816 990.828 136.642H1289.23C1276.84 135.096 1264.44 133.55 1252.05 132.004Z" fill="#FBE5B6"/>
<path d="M1224.33 130.021C1224.44 130.055 1224.58 130.071 1224.74 130.071C1224.61 130.055 1224.48 130.038 1224.33 130.021Z" fill="#FBE5B6"/>
<path d="M1222.8 129.207H1217.71C1219.91 129.49 1222.12 129.756 1224.32 130.038C1223.57 129.855 1223.92 129.207 1222.79 129.207H1222.8Z" fill="#FBE5B6"/>
</g>
<path d="M-43.0646 524.895C4.76074 527.887 52.233 514.969 100.17 514.449C140.046 514.003 179.569 522.125 219.427 523.334C234.136 523.78 248.827 523.278 263.519 522.274C294.944 520.118 326.314 515.657 357.758 513.204C484.295 503.334 611.074 525.973 738.001 526.531C816.267 526.884 894.292 518.817 972.335 513.092C1055.9 506.958 1139.75 503.483 1223.52 506.233C1306.8 508.966 1386.27 522.293 1469.53 508.352C1471.07 508.092 1472.65 507.851 1474.25 507.627V633.035C1461.21 635.451 1446.41 634.224 1434.1 636.009C1357.48 647.031 1281.05 659.373 1204.42 670.302C1052.92 691.9 900.941 710.655 748.235 721.175C518.562 736.993 287.218 734.223 59.4022 767.55C25.5995 772.494 -12.9764 776.434 -44.3647 766.788V524.802C-43.9375 524.839 -43.4917 524.858 -43.0646 524.895Z" fill="url(#paint0_linear_1_1631)"/>
</g>
<defs>
<linearGradient id="paint0_linear_1_1631" x1="557.7" y1="505.279" x2="557.7" y2="898.006" gradientUnits="userSpaceOnUse">
<stop stop-color="#FEFBF3"/>
<stop offset="1" stop-color="white"/>
</linearGradient>
<clipPath id="clip0_1_1631">
<rect width="1440" height="809" fill="white" transform="translate(0 -22)"/>
</clipPath>
</defs>
</svg>
