<svg width="204" height="198" viewBox="0 0 204 198" fill="none" xmlns="http://www.w3.org/2000/svg">
<g opacity="0.06">
<path d="M62.6405 54.5042C31.1435 40.8294 46.8585 104.675 9.37385 85.7742C7.93263 104.333 28.9279 131.67 55.6197 123.594C85.8256 114.385 88.1389 65.5656 62.6405 54.5042Z" fill="#499FAB"/>
<path d="M76.7272 61.5147C89.5724 81.9871 87.9765 102.854 70.1349 120.072C59.4235 128.966 83.0238 130.988 95.3506 117.931C109.567 102.718 111.218 80.8075 98.5066 64.4688C85.5795 49.6225 70.6743 53.9353 76.7272 61.5147Z" fill="#499FAB"/>
<path d="M104.377 68.458C112.826 83.5508 111.619 104.979 98.8946 117.404C91.348 124.633 109.635 126.5 119.971 115.648C131.837 102.932 133.202 84.6327 122.638 71.0078C111.816 58.5225 100.417 61.6314 104.377 68.458Z" fill="#499FAB"/>
<path d="M128.685 74.0146C135.861 86.8262 134.801 104.982 124.001 115.532C117.575 121.662 133.115 123.284 141.885 114.013C151.978 103.225 153.137 87.7046 144.142 76.1467C135.014 65.5705 125.345 68.1874 128.685 74.0146Z" fill="#499FAB"/>
<path d="M150.398 82.3725C155.259 91.0595 154.538 103.344 147.265 110.469C142.896 114.638 154.697 115.81 160.643 109.558C167.468 102.271 168.257 91.7671 162.171 83.9056C155.956 76.7747 148.108 78.4595 150.398 82.3725Z" fill="#499FAB"/>
<path d="M168.332 87.6559C171.832 93.929 171.352 102.822 166.025 107.963C162.879 110.985 172.073 111.894 176.361 107.342C181.279 102.071 181.84 94.4557 177.45 88.825C172.969 83.6344 166.701 84.7734 168.332 87.6559Z" fill="#499FAB"/>
<path d="M187.34 91.5045C181.601 91.0782 184.179 94.7065 183.819 98.899C183.46 103.091 180.409 106.316 186.148 106.743C193.37 107.314 201.625 103.327 201.837 100.297C202.088 97.2982 194.563 92.0763 187.34 91.5045Z" fill="#499FAB"/>
</g>
</svg>
