<svg width="179" height="224" viewBox="0 0 179 224" fill="none" xmlns="http://www.w3.org/2000/svg">
<path opacity="0.06" d="M131.288 215.542C132.544 213.921 135.017 214.142 136.933 213.415C140.021 212.251 141.42 208.011 139.677 205.23C138.894 204.004 137.679 203.114 136.538 202.211C127.502 195.122 121.419 184.372 120.014 172.963C119.751 170.825 119.663 168.568 120.524 166.601C121.671 163.978 124.265 162.335 126.124 160.155C127.994 157.996 128.99 154.342 126.851 152.459C125.258 151.055 122.653 151.433 121.056 152.811C119.448 154.169 118.654 156.26 118.13 158.312C117.693 160.08 117.284 162.099 115.707 163.016C113.769 164.152 111.13 162.721 110.273 160.661C109.416 158.6 109.88 156.235 110.6 154.104C111.721 150.834 113.453 147.768 115.687 145.098C117.382 143.058 119.489 141.197 122.079 140.641C124.658 140.065 127.751 141.202 128.691 143.669C128.914 144.239 129.014 144.874 129.269 145.454C130.487 148.143 135.709 147.91 136.285 145.009C137.158 140.625 132.052 139.234 132.742 137.993C133.568 136.31 135.035 134.788 136.889 134.492C138.743 134.195 140.89 135.544 140.884 137.427C140.891 138.086 140.635 138.751 140.746 139.407C140.977 140.688 142.645 141.337 143.867 140.847C145.089 140.357 145.809 139.073 146.08 137.79C146.905 133.962 144.022 129.933 140.282 128.822C136.542 127.711 132.332 129.154 129.482 131.86C128.655 132.644 127.686 133.61 126.592 133.344C125.161 132.992 124.749 130.774 123.289 130.517C122.291 130.332 121.414 131.222 120.998 132.132C120.582 133.042 120.419 134.082 119.855 134.911C119.068 136.071 117.471 136.602 116.153 136.164C114.814 135.737 113.87 134.358 113.897 132.966C113.928 131.679 114.735 130.508 115.761 129.698C119.84 126.418 125.954 128.359 130.968 126.886C134.238 125.917 138.14 121.804 136.663 118.775C135.847 117.09 133.591 116.382 131.875 117.188C130.563 117.806 129.835 119.226 128.804 120.224C127.752 121.233 125.819 121.731 124.994 120.527C124.387 117.99 127.919 116.219 128.199 113.607C128.47 111.079 125.11 109.29 122.817 110.403C120.544 111.505 119.613 114.436 120.073 116.945C120.281 118.133 120.75 119.314 120.539 120.511C120.264 122.035 118.799 123.264 117.24 123.218C115.681 123.173 114.278 121.879 114.093 120.336C114.014 119.689 114.144 119.037 114.254 118.396C115.01 114.34 115.754 110.263 116.51 106.207C116.758 104.83 117.066 103.369 118.056 102.392C120.343 100.171 124.027 101.973 127.102 102.828C129.061 103.376 131.239 103.49 133.057 102.577C134.874 101.664 136.213 99.6016 135.787 97.6037C135.36 95.6058 132.879 94.2235 131.127 95.2604C130.539 95.5991 130.114 96.1431 129.558 96.4915C128.198 97.3201 126.26 96.7611 125.298 95.4982C124.335 94.2353 124.207 92.4497 124.671 90.932C125.365 88.6031 127.389 86.7331 129.749 86.1937C132.11 85.6544 134.745 86.4785 136.379 88.2584C137.906 89.9363 138.743 92.4575 140.855 93.2946C142.566 93.9742 144.74 93.0838 145.482 91.3918C146.224 89.6999 145.395 87.4922 143.733 86.7068C142.135 85.9407 140.002 86.3594 138.757 85.1139C137.31 83.6851 138.75 80.6684 140.785 80.9111C141.739 81.0131 142.54 81.6733 143.438 82.0173C145.919 82.9499 149.005 80.9386 149.159 78.2884C149.291 75.649 146.45 73.2922 143.895 73.9619C140.632 74.7955 139.101 79.2371 135.744 79.6441C133.086 79.9711 130.405 77.3175 131.366 74.344C133.218 68.566 143.264 65.5045 145.278 64.9109C146.399 64.5799 147.794 64.3154 148.6 65.1847C149.493 66.1669 148.832 67.7627 148.011 68.8081C147.19 69.8534 146.131 70.9988 146.353 72.3113C146.657 74.0298 148.94 74.5907 150.643 74.1094C151.796 73.7881 152.948 73.017 153.18 71.8606C153.45 70.5255 152.422 69.1387 152.85 67.852C153.347 66.3962 155.866 66.355 156.384 67.8276C156.902 69.3002 155.523 71.0393 156.279 72.4119C157.068 73.8464 159.346 73.351 160.466 72.1727C161.597 70.9628 162.177 69.0656 161.336 67.6323C159.587 64.6419 154.314 66.6234 151.981 64.0762C150.777 62.7565 150.89 60.5779 151.92 59.1299C152.95 57.6819 154.687 56.865 156.446 56.5392C158.736 56.1167 161.393 56.5847 162.748 58.4864C163.432 59.4738 163.62 60.7244 164.324 61.7008C165.289 63.0682 167.224 63.0729 168.254 62.0224C168.936 61.3152 169.24 60.0942 169.081 59.1463C168.689 56.8651 165.124 56.4822 164.451 54.2707C163.952 52.6826 165.466 50.9507 167.147 50.8256C168.827 50.7005 170.381 51.7814 171.367 53.1379C171.984 54.0014 172.512 55.0449 173.485 55.4811C175.22 56.2543 177.102 54.5656 177.831 52.8007C178.473 51.2681 178.569 49.2574 177.298 48.2113C175.141 46.4443 172.011 49.2203 169.23 48.8181C166.763 48.4605 165.431 44.9577 167.035 43.0457C167.574 42.4153 168.306 41.9997 168.77 41.3293C169.738 39.9142 169.088 37.7439 167.572 36.934C166.057 36.1241 164.05 36.5815 162.868 37.8449C161.708 39.0974 161.326 40.9688 161.672 42.6653C161.873 43.5914 162.261 44.4709 162.326 45.3899C162.492 47.4465 161.148 49.2997 159.699 50.7581C158.894 51.5834 157.962 52.37 156.84 52.6487C155.717 52.9274 154.339 52.5744 153.801 51.5625C153.57 51.1288 153.484 50.6184 153.182 50.2492C152.372 49.2231 150.6 49.8735 149.885 50.9686C149.17 52.0636 149.006 53.4485 148.282 54.5751C146.61 57.1582 142.072 56.7366 140.696 53.9985C139.32 51.2604 141.454 47.5048 144.486 47.0848C146.674 46.7694 149.107 47.8601 151.014 46.767C152.148 46.1115 152.814 44.7247 152.624 43.4218C152.414 42.1299 151.34 41.0057 150.068 40.7546C147.775 40.2254 146.344 44.0055 143.903 42.9987C141.926 42.1687 141.909 39.7947 142.453 37.731C143.228 34.8562 145.426 32.417 148.178 31.2717C150.931 30.1265 154.167 30.2873 156.856 31.6122C158.179 32.2596 159.416 33.1914 160.862 33.3232C162.613 33.4788 164.36 32.285 164.884 30.6298C165.407 28.9746 164.595 27.049 163.097 26.1236C160.845 24.7251 158.108 26.8951 156.177 25.8025C154.883 25.0603 154.668 23.1618 155.643 22.0081C156.262 21.2815 157.151 20.8621 157.911 20.2994C160.683 18.2436 159.357 14.1548 156.44 13.348C153.892 12.6368 150.556 14.7274 150.154 18.3043C150.025 19.4059 150.325 20.5177 150.248 21.618C150.03 25.0439 146.397 27.7695 143.015 27.1834C139.633 26.5973 137.128 23.0293 137.565 19.6188C137.791 17.8036 138.885 15.9774 140.641 15.4948C141.679 15.2077 142.824 15.4201 143.873 15.1013C145.357 14.6568 146.383 13.052 146.188 11.54C145.983 10.0074 144.591 8.73411 143.042 8.65725C141.419 8.59263 139.993 9.69476 138.527 10.4213C137.06 11.1479 134.952 11.3149 134.101 9.91321C132.944 7.98561 135.441 5.81107 135.469 3.57185C135.484 2.107 134.353 0.775004 132.96 0.296757C131.568 -0.181484 130.026 0.0552501 128.682 0.663713C126.552 1.63673 124.775 4.17014 125.79 6.27906C126.838 8.44993 130.321 9.32645 130.13 11.7057C130.025 12.9531 128.752 13.8945 127.497 13.8731C125.3 13.8227 123.886 10.416 121.785 9.59961C118.236 8.20169 116.108 12.1664 116.18 13.7964C116.306 16.3247 118.211 17.6168 119.887 17.7324C121.563 17.8479 123.267 17.4189 124.878 17.8604C127.594 18.5884 129.177 22.0641 127.975 24.5834C126.763 27.1342 122.902 28.2859 120.795 26.4131C118.687 24.5403 116.646 25.281 115.646 26.6865C114.332 28.4971 115.108 31.1036 116.806 31.658C117.892 32.0078 119.024 31.2999 120.17 31.1148C121.316 30.9296 122.408 31.9383 121.783 32.9056C121.391 33.5115 120.91 33.5025 120.19 33.5934C118.45 33.856 117.109 35.8138 117.622 37.5271C118.125 39.2198 120.448 40.104 121.908 39.1161C123.111 38.2914 123.467 36.6717 124.497 35.6212C126.027 34.0667 128.793 34.2914 130.47 35.7041C132.148 37.1168 132.874 39.3793 133.033 41.572C133.153 43.4415 132.889 45.4355 131.777 46.9274C130.664 48.4193 128.531 49.2877 126.828 48.5243C125.761 48.0589 124.941 47.0645 123.786 46.8838C122.348 46.6681 120.982 48.0826 121.04 49.5352C121.097 50.9878 122.31 52.2236 123.73 52.5547C125.233 52.8942 126.967 52.3703 128.233 53.2596C129.606 54.1986 129.614 56.2068 129.31 57.8252C128.713 61.135 127.465 64.3144 125.664 67.1517C124.909 68.321 124.018 69.4831 122.8 70.1303C121.562 70.7885 119.921 70.8394 118.873 69.9133C118.264 69.3635 117.868 68.6201 117.259 68.0702C114.884 65.9425 111.812 67.284 110.829 69.3689C109.954 71.2106 110.452 74.3887 112.773 75.6182C114.024 76.2777 115.687 75.8706 116.846 76.658C118.389 77.7183 117.968 80.1136 117.174 81.8069C115.407 85.5535 112.033 89.0677 107.911 88.981C106.949 88.9629 105.05 88.3297 103.984 87.0694C101.506 84.2015 103.122 81.0654 105.817 80.9571C108.03 80.7875 108.796 80.8837 109.635 79.7228C110.635 78.3174 109.64 76.595 108.215 76.5046C106.791 76.4142 105.021 79.6587 101.894 80.0496C98.006 80.5534 96.886 75.5077 97.8959 72.8258C98.5913 70.9467 99.1584 69.3741 102.272 68.0107C104.227 67.1571 106.439 67.7825 107.874 67.4961C110.081 67.0651 111.644 64.7776 111.16 62.5719C110.676 60.3662 108.129 58.8599 105.959 59.5096C104.797 59.8625 103.846 60.7123 102.989 61.5912C102.165 62.4798 101.352 63.4412 100.235 63.929C99.1177 64.4168 97.4926 64.2477 97.0251 63.119C95.9229 60.4474 97.8001 53.5704 102.362 54.0856C105.802 54.482 108.86 55.9025 111.651 57.9676C113.09 59.0305 115.106 58.939 116.123 57.8156C117.12 56.7031 117.088 54.9988 116.362 53.9811C115.354 52.5833 113.633 51.9354 111.994 52.0385C110.887 52.0972 109.652 52.4624 108.716 51.8474C108.068 51.424 107.794 50.5102 108.057 49.761C108.321 49.0118 108.976 48.4517 109.745 48.255C110.929 47.9433 112.197 48.4351 113.37 48.1028C115 47.6338 115.793 45.4908 114.971 43.9943C114.161 42.5184 112.056 41.9949 110.57 42.7847C108.476 43.9242 107.944 46.9081 105.87 48.0367C104.797 48.6071 103.459 48.6296 102.318 48.1765C100.111 47.3104 98.4956 43.7727 99.5243 41.4251C101.157 37.7237 104.848 37.298 107.403 38.2706C109.356 39.007 111.221 37.0364 110.781 35.363C110.457 34.1053 108.858 32.8895 106.893 33.7747C104.184 35.0026 102.18 34.7173 101.407 33.1149C100.447 31.1093 101.392 28.7533 103.509 28.1049C103.914 27.9694 104.341 27.9274 104.702 27.7093C105.124 27.4583 105.394 26.9705 105.539 26.4962C106.159 24.5248 104.93 22.212 102.996 21.4123C101.074 20.6334 98.7269 21.2979 97.3005 22.7975C95.885 24.3178 95.3446 26.5383 95.668 28.591C95.9299 30.2792 96.7227 31.8705 96.9118 33.5709C97.049 34.8751 96.8205 36.1883 96.4546 37.4421C96.1067 38.5804 95.5813 39.7336 94.6152 40.406C93.6491 41.0783 92.0898 41.0331 91.4378 40.0554C90.8943 39.2319 90.4093 37.8213 89.7323 37.0953C87.476 34.6927 84.4972 37.2557 84.7885 39.6963C84.949 41.094 86.3435 42.0743 87.5334 42.8191C88.7233 43.5638 90.0506 44.3679 91.0683 45.3366C92.9334 47.1526 92.8307 50.1468 92.3724 52.7209C91.8754 55.4215 91.1364 58.0653 90.1336 60.611C89.5156 62.2371 88.2867 64.1085 86.5654 63.858C85.3584 63.6786 84.4702 62.4557 83.2644 62.3285C81.6187 62.1703 80.3341 63.4886 80.3475 64.8586C80.3346 66.428 82.0334 67.0346 83.2792 67.0876C84.0959 67.1303 84.9513 67.0464 85.5818 67.5853C87.3345 69.0902 86.8624 72.7839 84.07 73.6059C80.9667 74.5402 77.4596 73.9676 74.6535 72.5723C72.8106 71.6449 71.2871 70.5213 70.507 68.6054C70.0712 67.4864 70.0191 66.2429 70.0934 65.0381C70.2654 62.7221 71.0012 60.3713 72.5792 58.6587C73.1189 58.0805 73.7851 57.5411 74.565 57.3649C75.1785 57.2243 75.8288 57.3024 76.4694 57.4121C78.2126 57.7039 79.9185 58.1744 81.6965 58.1829C83.4538 58.2024 85.3328 57.654 86.4167 56.2569C87.5116 54.8805 87.4429 52.56 85.9646 51.5713C84.8586 50.8349 83.3581 51.0498 82.1268 51.5717C80.8955 52.0937 79.7971 52.9158 78.5425 53.3442C77.288 53.7726 75.6971 53.7177 74.8045 52.7355C73.7073 51.5177 74.1401 49.5928 74.6975 48.0519C75.157 46.7748 75.6371 45.4868 76.436 44.4001C77.2652 43.2709 78.3622 42.3966 79.2985 41.3693C81.1105 39.3999 82.2385 36.8406 82.4852 34.1671C82.5674 33.276 82.5645 32.3241 82.9628 31.5298C83.3503 30.7148 84.3067 30.074 85.152 30.4193C85.8172 30.6749 86.16 31.4196 86.7247 31.8345C87.1932 32.1682 87.8022 32.2682 88.3976 32.2431C90.371 32.1212 92.1127 30.2687 91.9694 28.3056C91.8467 26.3316 89.7559 24.6885 87.833 25.1544C86.0655 25.564 84.8037 27.3734 82.9968 27.4598C81.5653 27.5055 80.2797 26.282 80.0037 24.8662C79.7277 23.4503 80.3813 21.9907 81.4015 20.9718C83.3303 19.0727 80.8572 16.3617 78.9655 15.9899C76.5694 15.5155 74.89 16.9376 74.0402 18.0779C72.8777 19.6756 72.8611 21.9355 73.9481 23.5823C74.4477 24.3232 75.3136 24.6575 75.9867 25.2267C77.7491 26.7 77.8695 29.4168 77.1504 31.5998C76.4506 33.7196 75.0869 35.6361 73.1823 36.8337C71.2984 38.0204 68.9039 38.4455 66.7747 37.7762C65.9734 37.5135 65.1023 36.9701 65.1019 36.1228C65.0864 34.2508 64.543 32.1826 63.2645 30.8228C62.1797 29.678 60.6639 28.868 59.9796 27.4309C59.3062 26.0144 59.5777 24.334 59.4133 22.7795C59.1641 20.7667 58.039 18.8488 56.2884 17.8459C54.5378 16.843 52.185 16.8487 50.5527 18.0605C49.8645 18.5587 49.2971 19.284 49.12 20.1461C48.932 20.9876 49.2072 21.9536 49.879 22.4705C50.3378 22.8358 50.9481 22.9881 51.3863 23.3644C52.455 24.2795 51.9603 26.2373 50.7013 26.9065C49.4423 27.5756 47.8848 27.1851 46.7046 26.4087C45.6727 25.7124 44.8434 24.7495 43.7716 24.1274C41.4068 22.8154 38.0215 23.767 36.8277 26.2024C36.5093 26.8483 36.3393 27.5743 36.4814 28.2402C36.7794 29.6973 38.3693 30.5473 39.857 30.6571C41.3447 30.7668 42.7973 30.3126 44.2784 30.161C48.1071 29.7947 51.9236 31.4475 54.9127 33.8844C57.101 35.661 59.0231 38.0823 59.219 40.8914C59.2891 42.0194 59.0979 43.1538 58.8642 44.2579C58.5241 45.7098 58.0712 47.2482 56.9026 48.1871C55.3761 49.4486 52.9865 49.2355 51.43 48.05C50.9396 47.6751 50.4781 47.2053 49.8775 47.0213C49.1187 46.789 48.226 47.0516 47.6862 47.6297C46.3024 49.1597 46.8852 51.5513 48.5085 52.0656C50.4906 52.7072 50.7068 51.3211 54.3074 51.8704C56.3023 52.1874 58.2632 53.2374 59.2277 55.0023C60.0276 56.4576 60.0405 58.2251 60.0302 59.899C60.0212 61.6252 60.0122 63.3514 59.6044 65.0246C59.1967 66.6979 58.3587 68.3086 56.9617 69.3158C55.9556 70.0624 54.5114 70.4327 53.4286 69.7899C51.858 68.8767 51.8746 66.6169 52.3223 64.8694C52.759 63.1013 53.3995 61.1189 52.4305 59.5946C51.6346 58.2963 49.7307 57.8515 48.4221 58.6265C47.1134 59.4014 46.6271 61.2754 47.3611 62.6067C47.6012 63.0088 47.9239 63.3669 48.1544 63.8006C48.6167 64.7202 48.3965 65.9494 47.6297 66.6483C46.8629 67.3471 45.6321 67.4716 44.7294 66.9185C44.3254 66.6565 44.0027 66.2984 43.5685 66.0789C41.9373 65.2509 39.8491 67.0493 38.1973 66.2322C37.4346 65.8431 36.6536 64.7221 36.7904 63.0869C37.0094 60.5605 37.9111 58.5718 39.6568 56.876C40.2901 56.2746 41.0963 55.899 41.7296 55.2976C44.8147 52.3868 44.3231 47.3779 40.676 46.6414C36.8185 45.8578 36.3763 49.9065 34.5501 52.1482C33.414 53.5465 31.9939 53.2154 30.7515 51.6246C29.4871 49.9926 27.5086 48.6606 25.5361 49.2322C23.5635 49.8038 22.1497 52.2237 23.0742 54.0629C23.889 55.6955 25.9303 56.1996 27.7245 56.4378C29.5187 56.676 31.5425 56.8982 32.6972 58.3237C33.959 59.8512 33.5806 62.2769 32.2257 63.712C30.8599 65.1264 28.7609 65.6594 26.8016 65.5089C24.8327 65.3901 22.9538 64.6937 21.1066 64.007C17.5495 62.693 13.888 61.3815 10.0941 61.4646C6.30016 61.5476 2.31852 63.3194 0.679311 66.7595C-0.0858265 68.3579 -0.245044 70.3493 0.589055 71.9187C1.42315 73.4882 3.41437 74.4956 5.10371 73.8891C7.17684 73.158 7.98031 70.5859 9.80101 69.3799C11.4772 68.2507 13.7101 68.4676 15.7172 68.8575C17.5882 69.2403 19.558 69.8089 20.8281 71.2525C22.0228 72.6039 22.3751 74.5617 22.0539 76.3479C21.7326 78.1341 20.8107 79.7364 19.6856 81.1554C19.0575 81.9658 18.3347 82.7473 17.9086 83.6888C16.9888 85.7931 18.0524 88.5912 20.2158 89.3747C22.3792 90.1582 25.1067 88.4173 25.1329 86.1258C25.1409 85.1946 24.7845 84.3247 24.5216 83.4316C23.707 80.5541 24.2888 77.0669 26.7235 75.3228C28.419 74.1303 30.7059 74.0007 32.677 74.6216C34.1739 75.0973 35.5974 75.9827 36.4152 77.3224C37.2331 78.6621 37.3519 80.4793 36.4853 81.7873C36.0115 82.4894 35.282 83.0095 34.8301 83.7528C33.7637 85.4319 34.7175 88.0235 36.6254 88.625C38.5332 89.2265 40.7834 87.6334 40.8698 85.6542C40.9011 84.8166 40.6298 84.0074 40.6088 83.1711C40.5559 81.4778 41.7171 79.8278 43.3143 79.2968C44.9114 78.7658 46.8302 79.388 47.8158 80.7444C49.0512 82.4714 48.7251 84.8958 47.833 86.8529C47.0705 88.5559 45.9163 90.0697 44.504 91.297C43.5624 92.1152 42.4711 92.8011 41.2416 92.9779C39.5431 93.2185 37.9036 92.4744 36.2789 91.9077C34.675 91.3301 32.7833 90.9583 31.3205 91.8416C30.1976 92.5178 29.5853 93.9556 29.8161 95.2365C30.0689 96.5588 31.1344 97.7669 30.7905 99.062C30.5515 99.957 29.6982 100.543 28.8274 100.847C27.3032 101.366 25.5406 101.137 24.1804 100.271C22.5865 99.2642 21.6001 97.4579 19.9457 96.5363C18.1854 95.565 15.8766 95.6533 14.4993 97.4446C13.2735 99.023 13.5165 101.622 15.2064 102.71C16.2479 103.374 17.5556 103.395 18.764 103.626C19.9834 103.879 21.2861 104.537 21.5569 105.744C21.7579 106.67 21.1763 107.667 20.3521 108.158C19.5168 108.629 18.4717 108.655 17.5453 108.405C17.0188 108.261 16.48 108.045 15.9368 108.068C14.4531 108.115 13.5694 109.989 14.0544 111.399C14.5394 112.81 15.8693 113.719 17.223 114.323C19.4439 115.315 22.4399 115.523 23.9714 113.624C24.6007 112.865 24.8687 111.876 25.2961 110.986C26.1121 109.334 27.5631 107.981 29.2924 107.3C29.9033 107.055 30.6419 106.901 31.1942 107.243C32.6177 108.128 31.4453 111.002 32.9887 111.665C33.9191 112.071 34.9103 111.147 35.2841 110.207C35.6786 109.256 35.8601 108.153 36.6708 107.536C37.8503 106.618 39.6027 107.276 41.0224 106.76C42.4215 106.255 43.137 104.762 44.0913 103.619C45.0566 102.497 46.9827 101.738 47.9108 102.887C49.443 104.774 46.0922 107.932 47.5006 109.885C48.92 111.858 52.9564 111.434 53.7919 108.474C54.3872 106.357 53.2045 104.231 52.8786 102.074C52.5061 99.7297 53.414 97.1549 55.345 95.7579C56.0331 95.2598 56.8297 94.9159 57.6057 94.5829C59.302 93.8403 61.0094 93.1183 62.7058 92.3756C63.999 91.8207 65.3129 91.2548 66.7251 91.2723C68.1372 91.2898 69.62 92.0378 70.0405 93.3768C70.2556 94.0305 70.1901 94.7539 70.071 95.4263C69.8051 96.9183 69.1871 98.5444 67.8016 99.1748C66.7986 99.6284 65.6328 99.427 64.5478 99.527C63.3059 99.6308 62.065 100.184 61.3693 101.216C60.6736 102.248 60.7445 103.826 61.7157 104.607C62.9754 105.633 64.8408 104.959 66.2649 104.202C66.9667 103.829 67.762 103.433 68.5207 103.666C69.4582 103.935 69.9354 105.032 69.7925 106.009C69.6703 106.974 69.0849 107.815 68.5078 108.572C67.9307 109.329 67.3659 110.159 67.0966 111.096C66.5483 113.003 67.3095 114.585 68.6724 115.555C71.2387 117.396 74.5794 114.667 73.8487 111.798C73.523 110.488 72.4162 109.302 72.6144 108.031C72.7919 106.772 74.0883 105.924 75.2716 106.407C76.0537 106.733 76.5739 107.463 77.2663 107.969C79.9727 109.973 81.7914 107.021 81.1387 105.593C80.708 104.683 79.7254 104.279 78.7312 104.251C76.9629 104.211 75.1614 103.261 74.3892 101.659C73.6719 100.16 73.8996 98.3969 74.4461 96.8353C74.718 96.0022 75.1054 95.1872 75.7387 94.5858C76.7905 93.5766 78.3941 93.3069 79.8335 93.5748C81.2728 93.8427 82.5659 94.5326 83.859 95.2225C84.23 95.4225 84.6327 95.6323 85.0037 95.8324C86.4878 96.6326 88.0254 97.4839 89.0014 98.872C89.9567 100.271 90.1136 102.359 88.8774 103.519C87.9275 104.422 86.445 104.521 85.4732 105.382C84.5316 106.2 84.2657 107.692 84.8474 108.786C85.4291 109.881 86.7938 110.506 87.989 110.215C90.4732 109.61 90.7779 106.747 93.6366 105.651C94.2062 105.428 94.9667 105.315 95.5551 105.426C97.9706 105.837 100.599 107.247 102.012 110.204C104.462 115.311 104.512 118.992 104.207 123.498C104.044 125.782 103.006 129.009 100.905 129.039C98.2705 129.063 95.8326 125.671 97.6359 122.938C98.3716 121.832 99.0853 120.685 99.8319 119.599C100.588 118.482 101.172 117.139 100.846 115.829C100.45 114.239 98.6269 113.248 97.0452 113.559C95.4429 113.881 94.2145 115.355 93.9513 116.951C93.8792 117.413 93.8607 117.926 93.5879 118.31C93.234 118.789 92.5366 118.921 91.9276 118.821C90.0469 118.47 89.1378 116.411 87.8167 115.021C86.8403 114.03 85.5691 113.382 84.2246 113.143C82.7756 112.906 81.0107 113.421 80.6171 114.822C80.2622 116.096 81.2768 117.358 82.3828 118.094C84.2335 119.335 86.4632 119.845 88.5537 120.641C89.4086 120.954 90.2551 121.352 90.9295 121.973C91.6039 122.595 92.0552 123.494 91.9633 124.417C91.7923 125.938 90.1437 126.92 88.6174 126.936C87.0911 126.953 85.6619 126.256 84.2353 125.664C82.6712 125.012 80.9957 124.499 79.3275 124.697C78.0554 124.843 76.8873 125.385 75.6617 125.718C74.4361 126.052 73.0155 126.118 71.9728 125.401C71.4301 125.027 71.4548 123.928 71.6481 123.296C71.8414 122.664 72.2024 122.048 72.2802 121.398C72.4152 120.108 71.3496 118.9 70.0683 118.68C68.8077 118.45 67.4758 119.131 66.7278 120.164C66.3133 120.729 66.0484 121.426 66.097 122.115C66.1645 123.138 66.8977 124.02 67.0903 125.03C67.369 126.55 66.2793 128.136 64.828 128.642C63.3767 129.149 61.6915 128.667 60.5157 127.65C59.8962 127.132 59.3869 126.423 59.2517 125.62C58.9525 124.111 59.9099 122.675 60.7558 121.378C61.6017 120.081 62.2594 117.534 61.0937 116.087C58.1583 112.457 53.2941 114.062 52.5039 119.249C52.3404 120.236 52.3241 121.251 52.0657 122.21C51.4441 124.526 48.7745 126.077 46.4474 125.434C44.215 124.82 42.844 122.688 41.1215 121.14C39.5379 119.705 37.7877 118.304 36.1131 116.996C34.5031 115.76 32.6195 114.457 30.654 114.892C28.9485 115.269 27.7569 116.961 27.5705 118.702C27.3006 121.282 27.9731 122.249 27.9405 123.034C27.8978 124.249 27.1064 124.802 26.4891 124.786C25.8194 124.771 25.0361 124.393 24.4231 124.136C22.5733 123.345 20.3101 123.17 18.59 124.217C16.8699 125.263 15.9021 128.373 17.2692 130.348C18.8765 132.725 21.35 132.946 23.2966 132.176C26.2476 131.005 28.4826 128.387 31.5117 127.413C34.0634 126.587 36.9704 126.578 39.4731 127.552C42.5779 128.762 43.3816 131.618 42.7068 133.487C42.257 134.732 40.9633 135.684 39.9125 135.899C38.5288 136.184 37.4855 135.864 36.1313 135.657C34.7771 135.45 33.3307 135.318 32.0897 135.872C30.8488 136.425 29.9133 137.902 30.4163 139.198C30.8741 140.358 32.2568 140.868 33.5096 140.785C34.7624 140.701 35.8989 140.15 37.0819 139.786C38.1094 139.479 39.2138 139.315 40.2642 139.499C41.3145 139.682 42.334 140.306 42.8485 141.224C43.6594 142.7 42.928 144.81 41.3541 145.434C40.3911 145.814 39.2169 145.696 38.3856 146.324C37.5543 146.951 37.3451 148.201 37.7565 149.174C38.1471 150.158 39.0222 150.858 39.9539 151.316C43.0446 152.799 46.9401 151.761 49.3893 149.347C49.8891 148.843 50.3559 148.277 50.6634 147.611C51.4646 145.781 50.4167 143.611 51.513 141.042C54.2601 134.656 61.8382 134.521 64.7709 135.955C65.7658 136.433 66.4726 137.514 66.3847 138.593C66.3218 139.421 65.7653 140.167 65.6186 140.987C65.2574 142.847 67.1211 144.611 69.0269 144.711C70.9326 144.81 72.6817 143.669 74.0172 142.297C75.3321 140.936 76.3572 139.279 77.672 137.918C78.2021 137.371 78.7954 136.844 79.4998 136.576C80.4009 136.229 81.417 136.298 82.3712 136.4C85.862 136.743 89.3208 137.474 92.6623 138.532C95.0869 139.309 97.4962 140.306 99.338 142.028C102.508 145.005 103.461 149.636 103.653 153.983C103.947 160.262 103.008 166.614 100.887 172.535C100.584 173.358 100.25 174.224 99.6165 174.825C98.9832 175.427 98.1331 175.72 97.2899 175.876C95.5102 176.213 93.5716 176.052 92.0313 175.096C90.491 174.14 89.4001 172.337 89.6058 170.532C90.0854 166.305 96.6178 164.502 96.553 160.246C96.5361 158.321 94.851 156.595 92.9453 156.496C91.0396 156.396 89.2074 157.979 88.9933 159.867C88.9014 160.79 89.1037 161.768 88.6847 162.574C88.2561 163.411 87.2201 163.802 86.2963 163.658C85.3834 163.534 84.5535 162.968 83.9094 162.304C81.4718 159.76 81.4334 155.305 83.8251 152.683C85.2805 151.088 87.5948 149.964 87.8655 147.834C88.1486 145.777 86.2422 143.983 84.2531 143.477C81.1698 142.706 77.6352 144.373 76.2854 147.262C75.9683 147.96 75.7157 148.73 75.1747 149.256C74.0306 150.34 72.1899 149.915 70.6834 149.471C69.3666 149.085 68.0098 148.773 66.6441 148.943C65.2991 149.102 63.9259 149.805 63.3194 151.054C62.7225 152.272 63.1425 154.008 64.3903 154.563C65.8389 155.197 67.4751 154.142 69.0441 154.156C71.4916 154.179 73.2095 157.212 72.3253 159.483C71.452 161.775 68.6262 162.932 66.2384 162.374C61.8518 161.342 59.5718 155.906 55.1769 154.958C52.4536 154.366 49.4389 155.915 48.3316 158.464C47.2932 160.843 48.3493 164.175 50.8333 164.814C51.4752 164.976 52.1339 164.97 52.7732 165.028C54.4299 165.207 56.1669 166.084 56.781 167.638C57.4158 169.181 56.3766 171.111 54.7317 171.402C51.2754 172.021 50.3598 175.129 51.6624 177.032C53.1173 179.172 56.3686 178.716 58.8966 178.193C61.4246 177.671 63.8144 176.639 66.2384 175.721C67.9993 175.05 69.8247 174.451 71.7085 174.509C72.9117 174.532 74.0801 174.838 75.2099 175.27C77.2055 176.037 79.1401 177.286 80.0562 179.209C80.9724 181.132 80.558 183.789 78.703 184.881C76.9403 185.897 74.737 185.188 72.7048 185.05C71.6048 184.972 70.4881 185.062 69.3864 185.33C67.1829 185.866 64.9076 187.71 65.3297 189.949C65.6194 191.49 67.2145 192.549 68.786 192.667C70.3576 192.785 71.8902 192.183 73.2827 191.416C74.1799 190.913 75.0963 190.346 76.1155 190.123C77.1348 189.899 78.3322 190.11 78.9389 190.953C79.8051 192.134 79.1774 193.792 78.4567 195.075C77.7359 196.359 76.9695 197.905 77.6815 199.195C78.4594 200.609 80.6458 200.639 81.864 199.594C83.0822 198.549 83.4996 196.844 83.6061 195.252C83.7125 193.659 83.5771 192.01 83.9777 190.473C84.7984 187.335 87.9418 185.082 91.19 184.918C95.3993 184.72 99.7241 187.877 100.945 191.519C101.679 193.698 102.559 195.852 102.888 198.113C103.024 198.968 103.088 199.835 103.38 200.633C103.831 201.929 104.756 202.973 105.752 203.901C108.194 206.205 111.093 207.974 113.656 210.108C116.251 212.251 118.607 214.892 119.411 218.146C119.749 219.529 119.87 221.053 120.837 222.075C121.503 222.781 123.056 223.809 124.975 223.187C126.334 222.756 127.575 221.355 128.382 220.184C129.099 218.744 130.255 216.885 131.288 215.542Z" fill="#499FAB"/>
</svg>
