<svg width="281" height="278" viewBox="0 0 281 278" fill="none" xmlns="http://www.w3.org/2000/svg">
<g opacity="0.06">
<path d="M210.917 200.357C208.31 201.904 205.465 203.402 202.416 204.808C172.461 218.533 126.216 220.931 105.101 221.254C122.094 227.036 155.77 236.968 180.715 234.954C204.274 233.025 213.899 221.351 212.812 207.881C212.582 205.274 211.97 202.712 210.917 200.357Z" fill="#499FAB"/>
<path d="M38.8779 127.224C38.0315 123.992 37.3897 120.852 36.9525 117.804C34.4758 118.484 32.0869 119.58 29.905 121.116C18.8336 128.737 15.8253 143.62 29.2404 163.073C43.4966 183.744 72.6524 203.625 87.7584 213.116C74.7378 196.677 47.2294 159.245 38.8779 127.224Z" fill="#499FAB"/>
<path d="M69.8546 98.1537C70.5597 90.6708 71.9754 83.9564 74.0342 78.0959C69.8127 77.122 65.369 77.2204 61.0089 78.355C45.1126 82.5172 35.4649 98.2615 42.7516 126.186C50.2567 154.976 74.2237 188.99 87.9415 206.742C80.2767 183.162 66.4633 134.08 69.8546 98.1537Z" fill="#499FAB"/>
<path d="M226.28 156.825C224.399 152.708 221.698 149.192 218.247 146.538C215.037 151.837 210.748 157.186 205.405 162.466C179.728 187.812 133.002 208.127 109.857 217.174C132.253 216.545 173.744 213.584 200.835 201.205C227.002 189.205 233.112 171.709 226.28 156.825Z" fill="#499FAB"/>
<path d="M212.485 102.624C208.481 98.5636 203.728 95.7154 198.416 94.3666C197.043 101.115 194.603 108.338 190.967 115.934C180.043 138.919 161.032 167.236 141.335 189.745C136.453 195.319 131.054 201.109 125.583 206.288C149.755 195.763 182.697 179.129 202.55 159.584C225.771 136.736 225.475 115.851 212.485 102.624Z" fill="#499FAB"/>
<path d="M88.911 165.094C93.9186 135.641 103.859 103.009 114.841 79.8628C118.477 72.2665 122.477 65.7893 126.843 60.4314C122.47 57.1896 117.256 55.3643 111.653 54.8248C93.2007 53.09 76.8381 66.1016 73.8051 98.4988C71.1973 125.964 79.004 161.576 86.1031 186.927C86.6825 179.692 87.727 172.13 88.911 165.094Z" fill="#499FAB"/>
<path d="M187.353 114.266C203.211 80.8976 194.816 58.6824 175.813 49.6519C156.81 40.6213 134.343 48.1936 118.485 81.5623C95.1212 130.771 80.9767 212.132 95.6118 218.618C110.323 225.094 164.241 162.981 187.353 114.266Z" fill="#499FAB"/>
</g>
</svg>
