<svg width="273" height="306" viewBox="0 0 273 306" fill="none" xmlns="http://www.w3.org/2000/svg">
<path d="M220.319 2.90739C221.262 15.6778 216.508 29.2028 204.598 40.7066C198.831 46.2766 186.859 51.4022 181.389 55.0296C164.174 66.5766 163.987 82.3334 143.349 73.6477C135.685 70.4279 131.414 73.9422 137.709 79.1227C144.004 84.3032 137.653 96.9159 129.546 100.454C121.454 103.961 111.611 100.841 111.153 93.4372C110.761 87.407 104.491 86.3787 103.309 94.8594C102.408 101.271 100.518 110.859 90.5735 118.806C70.9832 134.495 58.6184 147.705 53.2784 174.935C48.8125 197.632 28.2705 218.485 4.51853 208.133C-13.0703 200.451 26.1547 247.319 74.9011 215.179C115.26 188.567 178.871 210.894 201.518 249.952C205.21 256.322 211.522 254.887 209.862 246.334C208.696 240.195 206.586 235.716 207.575 233.172C206.186 240.642 213.827 247.399 219.756 251.254C227.977 256.367 237.676 258.903 245.614 264.507C259.939 274.075 266.479 290.338 272.576 305.986L272.891 305.906C268.766 275.113 257.157 258.34 228.318 246.246C220.953 242.978 217.134 236.308 211.313 231.443C213.367 231.833 215.896 233.406 218.9 235.452C224.403 239.213 228.865 236.662 226.845 229.861C221.772 212.948 199.08 160.423 222.798 133.421C245.335 107.764 252.74 43.0802 223.948 1.95218C222.237 -0.554385 220.043 -0.502214 220.319 2.90739Z" fill="#499FAB"/>
</svg>
