<svg width="183" height="123" viewBox="0 0 183 123" fill="none" xmlns="http://www.w3.org/2000/svg">
<path d="M197.207 107.843C197.207 107.843 195.507 102.543 192.007 100.343C188.407 98.1429 179.907 98.6429 179.907 98.6429C179.907 98.6429 169.307 96.4429 161.307 85.6429C153.307 74.8429 158.607 58.2429 154.707 46.7429C150.807 35.2429 129.807 30.9429 129.507 31.0429C129.307 31.1429 119.607 29.0429 109.107 31.4429C98.507 33.8429 81.207 34.5429 76.907 34.0429C72.607 33.5429 66.507 32.4429 66.507 32.4429C66.507 32.4429 64.007 30.1429 63.007 28.7429C62.107 27.3429 63.207 26.5429 63.107 26.2429C63.007 25.9429 59.707 22.1429 59.907 21.8429C60.007 21.5429 63.907 20.6429 63.607 20.5429C63.307 20.4429 57.607 19.0429 54.607 18.2429C51.607 17.4429 50.007 15.2429 49.707 14.8429C49.407 14.4429 52.107 12.8429 51.807 12.5429C51.507 12.2429 42.907 1.74289 33.207 2.14289C23.607 2.54289 23.007 3.04288 23.007 3.04288L26.207 0.442884C26.207 0.442884 20.507 -0.457112 15.907 -0.357112C11.307 -0.257112 9.40702 -0.357118 7.50702 2.04288C5.60702 4.44288 5.50704 7.34289 4.30704 8.24289C3.00704 9.04289 1.90703 7.94289 2.10703 10.1429C2.30703 12.3429 2.50702 13.3429 2.50702 13.3429C2.50702 13.3429 -0.592969 15.6429 3.20703 21.1429C3.20703 21.1429 2.00703 26.3429 2.20703 27.3429C2.40703 28.3429 2.20703 31.3429 2.20703 31.3429C2.20703 31.3429 0.207031 34.7429 0.207031 35.7429C0.207031 36.7429 1.70703 38.7429 1.70703 38.7429C1.70703 38.7429 1.50702 39.4429 2.00702 39.8429C1.80702 41.2429 1.60701 41.4429 1.90701 42.4429C2.30701 43.6429 3.40701 44.3429 3.40701 44.3429C3.40701 44.3429 3.20702 45.9429 5.50702 46.7429C7.70702 47.5429 11.107 46.3429 11.107 46.3429C11.107 46.3429 10.807 53.7429 11.607 55.3429C12.407 56.9429 13.607 58.1429 13.607 58.1429L14.507 55.8429C14.507 55.8429 18.307 63.6429 19.607 64.3429C21.007 65.0429 24.607 66.2429 24.607 66.2429C24.607 66.2429 24.307 72.0429 26.307 73.6429C28.307 75.3429 30.507 75.9429 30.707 76.2429C30.907 76.5429 34.707 84.9429 37.407 87.7429C40.107 90.5429 41.107 90.9429 41.107 90.9429C41.107 90.9429 41.307 104.343 41.107 107.043C40.907 109.743 39.307 111.843 39.307 111.843C39.307 111.843 37.207 114.343 35.507 115.043C33.807 115.743 31.507 116.243 31.307 117.543C31.107 118.943 32.607 119.643 32.607 119.643C32.607 119.643 32.007 121.543 34.407 121.843C36.807 122.143 44.707 121.843 44.707 121.843C44.707 121.843 45.907 120.343 46.907 119.143C48.607 119.743 51.707 120.243 53.307 119.943C55.407 119.643 58.207 118.243 59.407 116.543C60.607 114.843 62.907 113.343 63.707 113.043C64.507 112.843 64.407 104.643 64.507 101.743C64.607 98.8429 65.407 88.6429 65.807 86.0429C66.107 83.4429 66.607 78.0429 66.607 78.0429C66.607 78.0429 84.007 77.8429 94.307 76.2429C104.607 74.6429 110.107 66.0429 110.107 66.0429C110.107 66.0429 113.807 71.5429 115.307 75.2429C116.907 79.0429 119.507 87.7429 120.507 93.0429C121.507 98.3429 121.907 101.743 121.807 104.243C121.707 106.743 120.507 110.643 119.507 112.543C118.507 114.443 117.007 114.943 117.007 114.943C117.007 114.943 110.107 115.843 108.307 116.443C106.507 116.943 106.007 119.143 105.507 120.143C105.007 121.043 105.707 122.843 106.407 122.843C107.107 122.843 123.407 122.843 123.407 122.843C123.407 122.843 128.707 118.743 129.207 116.743C129.607 114.743 127.707 110.143 129.207 106.543C130.707 102.943 132.907 101.043 132.807 100.143C132.707 99.2429 130.207 95.2429 130.707 90.8429C131.207 86.4429 132.807 78.1429 132.807 78.1429C132.807 78.1429 140.107 90.6429 144.007 94.9429C147.907 99.2429 149.607 101.843 148.707 105.343C147.907 108.843 146.407 114.343 145.907 115.343C145.407 116.243 140.207 115.743 138.607 116.843C136.907 117.843 136.007 120.543 136.107 121.543C136.207 122.543 138.607 122.843 140.207 122.443C141.807 122.143 152.007 122.843 152.007 122.843C152.007 122.843 155.007 113.443 155.207 111.343C155.407 109.243 159.707 102.443 159.907 100.443C160.107 98.4429 159.507 94.2429 159.007 93.9429C158.507 93.6429 153.807 89.4429 153.507 87.0429C153.307 84.6429 152.507 69.6429 151.407 65.5429C150.407 61.4429 148.607 58.3429 148.807 56.6429C149.007 54.9429 148.607 50.0429 148.607 50.0429C148.607 50.0429 152.707 52.9429 153.007 59.1429C153.307 65.3429 152.907 78.4429 158.807 87.0429C164.707 95.6429 177.907 99.8429 177.907 99.8429C177.907 99.8429 178.107 103.543 184.207 106.943C190.307 110.443 193.407 108.343 193.407 108.343L192.707 106.043L197.207 107.843ZM55.307 104.643C55.407 106.143 53.607 110.243 53.207 110.843C53.007 111.243 51.307 111.643 49.807 112.043C50.207 110.243 50.607 108.343 50.907 106.743C51.707 102.743 55.307 91.7429 55.307 91.7429C55.307 91.7429 55.207 103.243 55.307 104.643Z" fill="#F38218"/>
</svg>
