<svg width="208" height="111" viewBox="0 0 208 111" fill="none" xmlns="http://www.w3.org/2000/svg">
<path d="M3.77844 63.6851C3.77844 63.6851 3.56717 77.6035 3.77844 83.2973C3.98971 88.9912 5.89113 92.7871 6.84183 95.1068C7.79253 97.4266 8.74323 98.3755 8.21506 100.801C7.79252 103.12 3.46155 105.967 5.99676 107.444C8.42633 108.814 17.7221 111.45 19.8348 110.291C21.9475 109.131 26.9123 105.335 26.9123 105.335C26.9123 105.335 22.1587 98.6919 19.5179 93.947C16.877 89.2021 16.4545 79.0796 17.1939 75.0728C17.9334 71.066 18.8841 67.6919 19.8348 66.7429C20.7855 65.7939 21.9475 64.4232 22.8982 65.7939C23.8489 67.1647 23.8489 78.3415 22.8982 80.9776C21.9475 83.6136 21.208 88.9912 23.6376 91.5218C25.9615 94.0524 29.3418 103.015 30.5038 104.702C31.6658 106.389 40.6446 108.498 42.8629 107.971C44.9756 107.549 47.6165 107.76 49.3066 106.6C50.9968 105.44 49.3066 101.433 49.3066 101.433C49.3066 101.433 39.7996 98.2701 38.8489 91.6273C37.8982 84.879 37.6869 81.6102 38.1094 80.4504C38.532 79.2905 41.701 72.1205 41.701 72.1205C41.701 72.1205 54.6939 82.2429 66.6305 80.1341C78.4615 78.0252 86.2784 76.3381 86.2784 76.3381C86.2784 76.3381 91.2432 86.0388 92.7221 90.0456C94.0953 94.0524 96.3137 99.5354 95.0461 102.066C93.8841 104.702 90.0813 107.549 91.9827 108.498C93.8841 109.447 105.715 111.661 108.145 110.712C110.469 109.658 111.736 110.185 113.321 109.236C115.011 108.287 116.384 104.702 116.384 104.702L113.109 99.5354C113.109 99.5354 107.933 96.8994 107.616 94.5796C107.405 92.2599 107.616 85.4062 107.616 85.4062C107.616 85.4062 113.743 88.9912 113.743 90.5728C113.743 92.2599 117.757 97.9538 118.708 100.063C119.659 102.171 124.835 103.12 128.426 102.382C132.018 101.644 136.983 102.171 136.771 100.484C136.56 98.7973 130.856 93.1034 127.264 91.6273C126.525 89.2021 123.99 82.5592 124.412 77.8143C124.835 73.0694 127.264 68.6408 127.264 68.6408L130.328 63.8959H140.046C140.046 63.8959 145.539 75.4946 154.307 77.6034C163.074 79.7123 172.581 80.2395 172.581 80.2395C172.581 80.2395 177.757 84.4572 179.236 83.8245C180.609 83.0864 182.088 79.0796 182.088 79.0796C182.088 79.0796 184.94 80.0286 186.314 77.9198C187.687 75.8109 186.314 68.9572 186.314 68.9572C186.314 68.9572 197.405 59.4674 200.257 55.0388C203.109 50.6102 206.173 45.549 206.701 43.2293C207.123 40.9096 207.652 36.7973 207.652 36.7973C207.652 36.7973 200.046 53.1409 189.905 55.2497C179.764 57.3585 181.138 54.5116 181.138 54.5116C181.138 54.5116 183.99 48.6068 184.729 45.0218C185.469 41.4368 184.94 36.6919 184.94 36.6919C184.94 36.6919 178.497 47.5524 170.257 47.5524C168.356 42.8075 169.835 39.0116 169.835 39.0116C169.835 39.0116 174.8 30.998 174.8 27.413C174.8 23.8279 172.687 27.8347 169.624 29.3109C166.56 30.6817 164.447 30.2599 164.447 30.2599C164.447 30.2599 165.609 22.6681 164.447 21.5082C163.285 20.3483 154.94 29.5218 154.94 29.5218C154.94 29.5218 136.243 5.90277 112.476 1.57964C88.8137 -2.63805 86.1728 6.7463 71.9122 6.7463C57.6517 6.7463 45.6094 1.26331 40.1165 2.52861C34.6235 3.68848 35.1517 6.32453 31.3489 6.7463C27.5461 7.16807 23.7432 5.58643 21.6306 7.69527C19.5179 9.80412 15.5038 20.981 11.1728 23.8279C6.84182 26.6749 1.4545 28.7837 0.715067 35.8484C-0.0243697 42.8075 3.77844 63.6851 3.77844 63.6851Z" fill="#F38218"/>
</svg>
