<svg width="211" height="152" viewBox="0 0 211 152" fill="none" xmlns="http://www.w3.org/2000/svg">
<path d="M150.58 42.8113L146.63 40.5244L146.006 42.8113C146.006 42.8113 143.095 41.356 142.056 40.5244C141.12 39.6928 140.704 38.3414 140.704 38.3414C140.704 38.3414 138.418 37.4059 138.21 35.7427C138.002 34.0795 142.16 28.3622 142.16 28.3622L144.343 22.1252C144.343 22.1252 144.551 19.3186 145.59 18.3831C146.63 17.4475 151.203 12.9777 151.723 12.6658C152.243 12.354 154.634 10.3789 154.634 10.3789C154.634 10.3789 153.178 6.63671 154.634 5.59722C156.089 4.66167 161.182 6.94858 161.182 6.94858L165.444 5.38934C165.444 5.38934 165.964 1.23133 167.731 0.503681C169.499 -0.120018 171.993 4.97351 171.993 4.97351C171.993 4.97351 183.636 2.68662 191.224 9.23546C198.812 15.7843 202.451 29.5057 202.451 29.5057C202.451 29.5057 206.089 32.936 208.168 39.9007C210.247 46.8653 212.43 54.8694 209.623 63.9131C206.817 72.9567 205.153 77.4266 205.153 77.4266C205.153 77.4266 205.465 89.5887 202.659 98.0086C199.852 106.429 197.877 113.809 197.877 118.383C197.877 122.957 197.565 130.233 197.565 130.233L199.54 133.559C199.54 133.559 203.802 133.248 204.322 135.846C204.841 138.445 205.673 141.46 205.673 141.46H201.099C201.099 141.46 199.748 142.915 197.461 142.811C195.174 142.603 189.769 141.46 189.769 141.46L187.586 140.836C187.586 140.836 184.155 138.029 184.675 136.054C185.195 134.079 185.507 127.322 185.819 126.699C186.13 126.075 186.962 110.379 187.17 105.493C187.378 100.607 186.234 96.4494 186.027 95.098C185.819 93.7467 184.467 93.019 184.467 93.019L180.517 93.9546C180.517 93.9546 182.18 116.512 182.7 118.591C183.22 120.774 181.037 127.115 182.492 129.09C183.948 131.065 187.274 133.871 187.378 135.638C187.482 136.678 187.898 139.173 188.209 140.836C188.417 141.875 187.586 142.915 186.442 142.915C182.492 142.915 176.151 143.019 173.76 143.123C173.033 143.123 168.355 143.227 168.147 142.291C167.835 140.316 169.083 133.352 169.602 132.208C170.122 131.065 167.835 124.932 168.251 121.813C168.771 118.695 167.731 112.146 166.9 107.988C166.068 103.83 164.717 98.4244 164.717 98.4244C164.717 98.4244 156.193 107.78 148.085 106.844C139.977 105.909 125.84 105.493 123.865 104.869C121.89 104.246 115.756 101.439 115.756 101.439L113.054 104.246C113.054 104.246 109.623 112.977 103.802 118.591C98.085 124.204 97.0455 127.946 97.6692 130.441C98.2929 132.936 101.619 142.499 101.619 142.499L104.946 144.162C104.946 144.162 106.297 142.707 108.376 143.331C110.559 143.954 112.326 148.112 112.326 148.112L111.806 151.855H97.4613L92.0559 150.191C92.0559 150.191 92.2638 146.969 87.4821 141.356C82.7004 135.742 79.5819 130.129 80.4135 127.842C81.2451 125.555 83.7399 120.982 83.7399 120.982L84.2596 117.551C84.2596 117.551 75.4239 123.996 70.3304 126.283C65.2368 128.57 67.8356 138.445 67.8356 138.445C67.8356 138.445 75.1121 141.356 76.5674 143.539C78.0227 145.722 82.1806 146.657 81.557 150.711C81.453 151.439 72.5133 151.335 72.5133 151.335C72.5133 151.335 64.821 151.959 63.5736 151.127C62.4302 150.295 60.1433 145.826 59.3117 143.539C58.4801 141.252 55.9853 137.925 56.5051 134.495C57.0248 131.065 55.0497 126.907 54.53 124.1C54.0102 121.293 52.0352 119.942 54.53 118.175C57.0248 116.408 68.1475 108.612 70.0185 104.973C71.8896 101.335 74.5923 91.4598 74.5923 91.4598L68.4593 82.4161C68.4593 82.4161 63.9895 84.703 58.0643 94.4743C52.1392 104.246 38.7296 135.223 37.4822 139.692C36.2348 144.162 30.1018 151.647 26.0477 151.023C21.8897 150.399 20.1226 151.647 16.3804 145.618C12.6382 139.485 7.54467 135.742 3.59458 134.807C-0.355514 133.871 -1.49895 126.595 3.28274 124.828C8.06443 123.061 18.4594 129.921 21.9937 137.198C26.7754 147.593 45.4864 93.6427 49.8523 85.9505C58.4801 70.5659 68.2514 66.6158 68.2514 66.6158C68.2514 66.6158 76.1515 62.6657 77.5029 61.8341C78.8542 61.0025 93.3033 53.4141 101.723 51.8549C110.143 50.1917 134.156 50.7114 139.041 51.3351C143.927 51.9588 149.748 52.6865 150.892 51.8549C152.035 51.0233 153.698 50.1917 153.698 50.1917L151.203 47.9048C151.203 47.9048 150.372 46.4495 151.203 46.1377C152.035 45.8258 155.777 46.3456 155.777 46.3456L156.713 43.8508C156.713 43.8508 155.361 38.4454 150.995 39.5888L150.58 42.8113Z" fill="#F38218"/>
</svg>
