<svg width="546" height="380" viewBox="0 0 546 380" fill="none" xmlns="http://www.w3.org/2000/svg">
<mask id="mask0_1_1273" style="mask-type:alpha" maskUnits="userSpaceOnUse" x="4" y="1" width="542" height="376">
<path d="M7.63637 3.08904C9.4167 3.08904 11.3505 3.31183 13.1001 3.23757C16.3845 3.08904 19.3927 1.15815 22.4008 1.00962C26.7903 0.786821 30.1667 4.50008 34.5869 5.41601C38.6694 6.25768 42.6904 7.81725 46.8957 8.08955C48.0928 8.16382 49.0137 7.89151 50.1801 8.26284C52.2674 8.90647 52.3595 10.6146 55.1834 10.7136C57.1786 10.7879 58.6827 9.37682 60.3096 8.75794C62.9187 7.76774 64.9446 7.94102 67.8606 8.26284C72.0352 8.73318 76.1484 10.7631 80.1081 10.268C81.7963 10.07 85.6025 9.67388 87.1987 9.35206C89.0711 8.95598 89.1325 8.21333 90.6672 7.54494C93.9516 6.10915 98.955 6.82705 102.823 6.82705C105.309 6.82705 105.186 6.87656 107.488 7.47068C109.269 7.94102 111.049 7.79249 112.768 8.21333C114.487 8.63416 115.868 10.2928 117.925 9.84716C119.367 9.52535 118.968 8.90647 119.889 8.26284C121.363 7.17362 122.191 7.22313 124.34 7.19837C127.931 7.14886 131.431 7.17362 134.93 7.69347C138.153 8.18858 137.815 6.48048 140.609 5.68832C143.156 4.97042 146.502 5.63881 149.265 5.16846C151.26 4.82189 153.163 4.40106 155.22 4.8714C155.833 5.88636 154.667 6.01013 154.084 6.75278C153.316 7.79249 153.286 8.46088 153.623 9.67388C153.992 10.9364 155.404 11.7038 155.434 13.0653C155.465 14.5754 154.084 15.5656 153.654 16.9766C152.795 19.8729 153.439 23.1406 153.501 25.9627C153.04 23.5614 154.36 20.3433 157.46 19.4026C157.522 17.9668 155.926 16.7786 156.447 15.1942C156.816 13.9813 157.767 14.0308 158.412 13.0406C159.179 11.8771 158.105 10.5651 158.473 9.37682C159.087 7.49543 160.039 8.31235 162.034 7.54494C163.661 6.92607 165.349 5.71307 166.853 4.89616C167.927 4.30204 168.173 3.60889 169.002 3.01477C170.567 1.87604 171.734 2.56918 173.698 2.86624C175.847 3.21281 177.903 3.03953 180.052 3.06428C183.889 3.11379 186.805 3.21281 190.581 3.53463C194.049 3.83169 197.947 3.80693 201.17 5.06944C204.915 6.55474 208.23 9.10451 212.65 9.00549C216.886 8.90647 219.373 5.81209 223.148 5.46552C226.218 5.19322 228.796 6.03489 231.743 6.30719C240.829 7.12411 250.436 6.3567 259.154 4.47532C261.425 3.98022 263.758 3.58414 266.091 4.02973C270.48 4.89616 275.914 7.19837 280.303 4.72287C284.447 4.72287 287.639 4.104 291.752 4.25253C296.572 4.42581 301.268 5.51503 306.118 5.5893C310.569 5.66356 315.112 5.21797 319.532 5.51503C322.11 5.68832 322.663 5.93587 325.886 5.66356C333.13 4.89616 340.404 4.15351 347.649 3.43561C349.797 2.96526 351.915 2.84149 354.064 3.01477C355.936 3.11379 357.686 3.68316 359.528 3.73267C360.663 3.75742 362.505 2.91575 363.395 3.21281C361.922 4.57434 358.545 6.20817 358.116 8.11431C359.558 9.42633 361.308 7.02509 362.198 6.40621C363.365 5.61405 364.378 5.63881 365.82 5.3665C367.324 5.06944 368.828 4.64861 370.394 4.42581C373.801 3.93071 377.3 4.22777 380.769 3.68316C382.518 3.41085 383.838 2.56918 385.527 2.3959C386.939 2.24737 388.504 2.3959 389.947 2.3959C394.029 2.3959 398.112 5.0942 401.488 6.77754C409.684 10.8869 419.66 9.15402 428.101 6.77754C433.473 5.26748 439.121 4.54959 444.83 4.92091C449.864 5.24273 454.652 5.53979 459.748 5.53979C463.124 5.53979 466.102 4.40106 469.356 4.20302C471.136 4.07924 472.548 4.72287 474.236 4.8714C477.091 5.14371 479.147 5.44077 482.002 4.74763C484.151 4.20302 485.716 2.07408 487.926 1.80178C489.43 1.60374 489.921 2.54443 491.119 2.91575C491.947 3.1633 493.482 3.3861 494.342 3.50988C497.626 4.05449 501.309 3.75743 504.195 2.76722C509.229 1.05913 511.224 6.77754 511.869 9.89667C512.206 11.5057 512.237 13.1891 512.605 14.7982C512.728 15.3675 513.066 15.7884 513.189 16.2587C513.434 17.2737 513.311 18.2639 513.526 19.2788C513.741 20.2443 514.263 21.0364 514.14 22.1009C513.925 18.0163 512.789 11.8523 516.596 8.85696C517.639 8.04004 519.481 6.92607 519.481 5.63881C519.481 4.45057 518.1 3.75743 517.946 2.56918C519.205 2.12359 521.691 3.3861 522.98 3.65841C524.853 4.05449 525.804 4.15351 527.83 3.80694C532.465 3.01477 537.775 3.65841 542.503 3.65841C542.533 8.68368 544.866 14.9219 544.835 19.9225C544.835 21.6553 545.204 23.611 544.713 25.2943C544.221 27.0272 542.81 28.3392 542.472 30.171C541.919 33.4635 543.454 36.6569 544.866 39.6522C546.002 42.0287 546.217 43.2417 545.787 45.7667C544.958 50.4206 545.633 55.3221 545.603 60.0256C545.572 63.5656 546.339 66.7837 545.818 70.3484C545.818 70.9178 545.756 71.4624 545.541 72.007C545.541 72.3041 545.296 72.4279 544.866 72.3784C544.191 73.9627 543.669 75.4232 543.485 77.1808C543.209 79.7554 543.608 82.5527 542.748 85.0777C542.625 85.4738 542.226 86.7858 541.612 87.0829C539.525 88.0978 535.964 86.6868 533.57 87.6522C535.811 88.3206 541.121 86.5135 542.441 88.3701C542.717 88.7662 542.503 89.4593 542.595 89.8554C542.81 90.8951 543.27 91.8606 543.331 93.0241C543.546 98.6682 541.183 104.51 543.239 110.031C543.516 110.031 543.792 110.031 544.068 110.056C542.779 117.234 532.404 123.497 535.627 131.023C535.719 131.246 536.21 131.667 536.241 131.741C536.609 133.078 536.302 134.34 535.995 135.702C535.504 137.93 534.706 140.059 533.908 142.237C533.355 143.797 532.895 147.386 531.391 148.426C529.979 149.416 528.628 149.614 528.076 151.248C527.308 153.575 527.83 156.644 527.922 159.021C528.014 161.472 528.291 163.353 530.439 165.135C532.649 166.992 535.903 168.527 536.394 171.324C538.082 172.686 537.407 172.512 537.898 174.369C538.052 174.988 537.898 175.384 537.806 176.003C537.438 178.652 536.578 181.35 535.964 183.974C535.136 187.564 533.325 193.505 535.903 196.772C536.548 197.589 537.683 198.084 538.236 198.926C538.973 200.04 538.85 201.525 539.065 202.738C539.28 203.902 539.801 205.041 540.047 206.179C540.507 208.184 539.709 210.313 540.323 212.244C541.091 214.621 541.919 217.22 543.178 219.473C543.853 220.686 544.528 221.181 543.423 222.394C541.551 224.498 538.236 225.711 536.456 227.914C534.276 230.613 535.903 234.672 536.67 237.692C537.407 240.688 537.591 244.005 537.868 247.075C538.082 249.674 537.069 252.174 537.069 254.749C537.069 256.655 537.99 257.917 539.249 259.477C539.955 260.368 541.95 262.101 540.906 263.116C540.569 263.438 538.359 263.908 537.776 264.106C535.258 264.948 532.557 265.765 530.01 266.631C527.83 267.374 527.799 267.423 527.493 269.602C527.124 272.424 527.216 275.271 527.247 278.117C523.318 276.112 518.744 274.949 514.048 275.122C510.671 275.246 506.988 276.929 503.826 277.746C500.082 278.736 496.398 279.702 492.93 281.212C490.136 282.425 487.251 283.365 484.151 284.034C488.571 284.207 491.579 283.068 495.447 281.732C496.766 281.459 498.025 281.063 499.222 280.568C500.204 279.924 501.064 279.182 501.862 278.39C503.335 277.944 505.791 278.365 507.387 278.34C509.505 278.34 511.347 278.588 513.373 278.984C517.025 279.677 520.647 281.162 524.024 282.573C525.927 283.365 526.602 283.96 528.536 282.4C531.145 280.321 531.882 276.236 531.053 273.463C533.294 272.82 534.491 271.582 536.885 271.557C538.113 271.557 539.433 271.434 540.661 271.681C541.858 271.929 542.84 272.696 544.068 272.82C546.401 275.32 542.533 277.721 542.503 280.741C542.503 284.727 541.367 288.762 540.354 292.649C539.801 294.728 539.433 296.609 539.464 298.763C539.617 304.828 537.868 310.769 537.806 316.785C537.806 319.235 538.574 321.414 539.433 323.716C540.599 326.835 541.029 329.732 540.998 332.999C540.937 337.381 540.998 341.119 542.073 345.476C542.564 347.481 542.503 348.149 541.674 350.08C540.692 352.432 540.108 354.511 540.17 356.962C540.323 361.393 538.85 365.775 539.494 370.206C539.648 371.295 539.801 372.508 540.323 373.523C540.814 374.489 542.564 375.677 542.533 376.717C539.126 377.311 534.921 376.89 531.575 376.197C529.396 375.751 527.769 374.885 525.835 374.439C523.072 373.796 519.358 375.479 516.504 375.603C514.723 375.677 512.882 375.553 511.07 375.553C509.29 375.553 505.791 376.123 504.103 375.627C502.476 375.157 500.45 373.276 499.652 372.087C499.867 372.211 500.112 372.335 500.327 372.459C498.946 373.82 494.833 373.3 492.93 374.192C492.531 374.365 487.619 376.915 485.931 376.816C484.458 376.717 483.506 375.627 481.879 375.528C478.779 375.38 475.617 375.776 472.517 375.578C469.478 375.405 466.593 374.538 463.523 374.365C459.226 374.093 454.806 374.86 450.662 373.721C447.93 372.979 445.444 372.459 442.559 372.434C439.029 372.434 435.499 372.434 431.999 372.409C430.127 372.409 428.531 372.682 426.72 373.078C424.111 373.672 421.686 373.573 419.015 373.697C416.253 373.82 413.736 374.464 410.881 374.39C408.21 374.315 406.522 373.127 404.067 373.053C398.265 372.88 392.372 373.449 386.57 372.954C376.871 372.087 367.017 372.484 357.256 372.484H338.379C334.941 372.484 335.217 373.325 331.933 373.87C328.249 374.489 324.781 375.009 321.005 374.959C312.533 374.91 303.969 374.612 295.528 375.182C285.951 375.826 276.006 377.707 266.367 376.717C253.721 375.429 241.412 371.939 228.581 371.815C219.127 371.716 210.072 374.142 200.741 374.91C197.057 375.207 193.067 374.216 189.445 373.697C180.789 372.409 171.089 372.731 162.525 374.142C156.969 375.058 151.997 376.667 146.349 375.603C136.986 373.845 127.747 375.033 118.354 374.216C115.254 373.944 112.215 373.3 109.084 373.102C106.506 372.954 103.958 373.152 101.411 373.102C93.9823 372.954 86.5541 371.914 79.0951 371.815C73.8462 371.741 68.5973 371.988 63.3484 371.815C61.1076 371.741 60.6472 371.914 59.9412 370.528C59.4194 369.513 60.0333 368.052 59.9412 366.988C57.3628 367.334 54.3854 368.176 52.2674 369.364C52.0218 370.033 51.4693 370.454 50.5791 370.652C49.2285 371.097 47.8473 371.295 46.3739 371.271C44.5322 371.32 41.6775 371.568 39.8051 371.271C38.3624 371.023 37.6871 370.33 36.1523 371.048C35.5077 371.097 35.2315 371.345 35.3236 371.815C34.8938 372.533 34.1571 373.003 33.1749 373.251C31.4559 374.192 31.0262 374.612 29.3073 374.934C23.0454 376.123 15.6172 375.578 9.17114 375.578C10.1227 375.38 9.35531 372.087 9.32461 371.667C9.32461 370.602 9.20183 369.538 8.89488 368.498C8.71071 368.275 8.64932 368.052 8.68001 367.805C8.68001 367.434 8.7414 367.062 8.92557 366.716C9.17114 365.453 9.26322 364.166 9.20183 362.879C9.07905 361.393 8.7414 359.958 8.21958 358.546C7.85124 357.73 7.66707 356.888 7.63637 356.021C7.63637 355.229 7.48289 354.511 7.4215 353.719C7.4215 353.125 7.57498 352.581 7.91263 352.036C8.28097 350.996 8.49584 349.932 8.49584 348.842C8.71071 346.738 9.17114 344.733 9.17114 342.629C9.17114 342.01 9.17114 341.441 9.04836 340.822C8.95627 340.277 8.61862 339.733 8.86418 339.213C9.47809 337.926 10.8594 337.653 12.3941 337.43C14.021 337.208 15.6785 337.307 17.3054 337.109C19.1164 336.886 20.8047 336.44 22.6464 336.292C28.2943 335.821 34.0344 336.49 39.6823 335.896C39.5902 335.673 38.0861 335.45 37.7792 335.376C36.6435 335.153 35.385 334.93 34.2185 334.905C33.5125 334.905 32.8065 334.905 32.1006 334.905C31.4559 334.856 30.842 334.905 30.2281 335.004C29.9519 335.103 29.6449 335.227 29.3687 335.351C28.5706 335.45 27.5269 335.351 26.7289 335.376C24.4881 335.475 22.2473 335.475 20.0066 335.574C17.3054 335.698 14.4507 336.044 11.8109 335.302C11.1049 335.103 10.491 334.93 10.4296 334.287C10.3683 333.395 10.0306 332.529 10.2455 331.638C10.4603 330.747 10.491 330.128 10.1841 329.162C9.90782 328.37 9.47809 327.603 9.04836 326.86C8.95627 326.687 8.83349 326.563 8.80279 326.365C8.68001 325.796 8.98696 325.177 8.89488 324.583C8.7414 323.741 8.7721 322.899 8.64932 322.058C8.55723 321.439 8.34236 320.869 8.21958 320.25C8.00471 319.087 8.1275 317.824 8.43445 316.686C8.92558 314.755 8.37306 312.972 8.00471 311.042C7.88193 310.324 7.60568 309.581 7.63637 308.863C7.63637 307.799 7.88193 306.734 8.03541 305.67C8.15819 304.853 8.34236 303.887 8.1275 303.07C8.0661 302.798 7.88193 302.526 7.78985 302.254C7.54429 301.511 8.0968 300.768 8.31167 300.026C8.52653 299.308 8.61862 298.59 8.83349 297.872C8.98696 297.303 9.23253 296.733 9.23253 296.139C9.66226 295.991 10.1534 296.09 10.6138 296.065C11.1049 296.04 11.5654 295.916 12.0565 295.867C12.5783 295.817 12.8853 295.718 13.315 295.421C13.0387 294.901 11.6575 294.901 11.0742 294.703C10.6752 294.555 10.3376 294.381 10.1227 294.06C9.84644 293.688 9.99991 293.094 9.93852 292.624C9.78504 291.436 9.60087 290.247 9.47809 289.059C9.47809 288.762 8.28097 288.316 8.15819 288.019C7.97402 287.524 8.18889 286.806 8.18889 286.287C8.18889 285.569 8.0968 284.925 7.94332 284.232C7.57498 282.771 7.4215 281.261 7.39081 279.776C7.36011 277.672 8.03541 275.642 8.1275 273.538C8.25028 271.359 8.1275 269.206 8.68001 267.052C9.29392 264.552 8.92557 261.754 8.92557 259.229C8.92557 258.165 9.10975 256.952 8.7414 255.937C8.58793 255.566 8.43445 255.244 8.40375 254.823C8.28097 253.61 8.40375 252.323 8.40375 251.085C8.40375 250.54 8.25028 250.169 8.18889 249.624C8.1275 249.104 8.31167 248.659 8.49584 248.164C9.10975 246.48 10.1534 244.896 10.491 243.163C10.5831 242.619 10.9208 242.124 10.9515 241.579C10.9822 241.133 10.8901 240.737 10.7673 240.292C10.6138 239.698 10.399 239.004 10.4603 238.386C10.5524 237.692 10.8901 236.975 11.0742 236.306C11.3198 235.464 11.504 234.623 11.4119 233.756C11.3505 233.088 11.0742 232.345 10.9208 231.677C10.7673 231.033 10.6752 230.439 10.6752 229.771C10.6752 229.276 10.5217 228.657 10.6752 228.187C10.9208 227.073 13.1308 226.553 14.1131 225.884C13.8675 225.587 13.5299 225.389 13.1308 225.265C12.5169 224.869 11.9644 224.424 11.504 223.904C11.0129 223.434 10.6752 223.211 10.5217 222.592C10.3376 221.651 10.3376 220.686 10.1534 219.72C9.96921 218.73 9.53948 217.789 9.4474 216.799C9.4167 216.279 9.35531 215.834 9.23253 215.314C9.04836 214.546 9.29392 213.779 9.10975 213.012C8.89488 212.071 8.83349 211.18 8.95627 210.239C9.04836 209.546 9.35531 208.853 9.4167 208.16C11.903 206.105 14.5735 203.332 18.0728 202.417C19.6382 201.996 21.173 201.872 22.6771 201.303C23.4138 201.03 23.997 200.585 24.6723 200.312C25.2862 200.065 25.9922 200.114 26.6368 199.892C27.5269 199.594 28.4478 199.372 29.338 199.075C30.1974 198.778 30.9034 198.357 31.6401 197.886C32.0392 197.639 32.6224 197.391 32.8986 197.069C32.1619 196.871 30.8727 197.168 30.136 197.292C29.4608 197.416 28.8468 197.639 28.2022 197.862C27.619 198.06 27.3121 198.159 26.8823 198.48C26.3298 198.877 25.7466 199.05 25.0099 199.297C22.6771 200.139 20.2522 200.783 17.8886 201.575C16.7529 201.946 15.6785 202.194 14.4507 202.392C13.2843 202.59 12.0872 202.912 10.9208 203.011C10.2455 202.565 9.23253 202.144 9.07905 201.426C8.98696 200.906 9.20183 200.263 9.17114 199.718C9.10975 198.852 8.7721 198.01 8.46514 197.168C7.91263 195.683 7.39081 194.049 7.82054 192.515C8.37306 190.559 9.53948 188.752 10.2148 186.821C10.6445 185.657 10.9515 184.469 10.8901 183.231C10.8594 182.216 11.2891 181.251 11.5347 180.261C12.1179 178.033 12.1179 175.434 11.9337 173.156C11.8723 172.413 11.6575 171.77 11.6575 171.027C11.6575 170.557 11.7802 169.963 11.6575 169.517C11.5347 168.923 10.798 168.7 10.5217 168.156C10.2148 167.586 10.399 166.893 10.3376 166.274C10.2455 165.482 10.0613 164.69 9.90782 163.922C9.66226 162.784 10.8594 162.214 11.1356 161.15C11.2891 160.581 10.9208 160.184 10.7059 159.64C10.3376 158.699 9.93852 157.734 9.66226 156.793C9.60087 156.595 9.60087 156.347 9.50879 156.149C9.26322 155.605 8.52653 155.283 8.31167 154.738C9.14044 154.218 10.6752 152.585 11.1663 151.842C11.4426 151.421 11.1663 150.703 11.1663 150.258C11.1663 149.837 10.9208 149.069 11.1663 148.649C11.5961 147.955 13.5913 147.386 14.2666 146.891C15.126 146.247 17.1519 145.183 17.2133 144.168C17.244 143.673 16.845 143.252 16.7529 142.757C16.6301 142.163 16.7529 141.074 16.845 140.603C17.3668 138.029 19.0857 135.726 19.761 133.152C20.3442 130.899 20.4363 130.132 23.3217 129.686C25.102 129.414 26.0536 128.597 27.4349 127.706C28.7855 126.839 30.842 124.735 31.149 123.349C29.6756 123.448 28.3557 124.76 26.9437 125.131C25.102 125.626 23.9049 125.676 22.4315 126.666C21.5107 127.31 20.8047 127.78 20.068 128.523C19.2699 129.34 18.2877 130.082 17.1826 130.627C16.4459 130.974 14.6349 131.345 14.2359 131.988C13.9903 132.409 14.2359 133.201 14.2359 133.647C14.2359 134.588 14.1745 135.528 14.2666 136.469C14.328 137.237 15.0339 138.4 14.7884 139.118C14.5121 140.009 13.2229 140.677 12.3021 141.074C11.197 141.544 9.99991 141.841 8.86418 142.311C7.17594 143.004 5.88674 144.069 4.04502 144.44C3.76876 143.797 4.84309 142.608 5.11935 141.965C5.54909 140.999 6.04021 140.083 6.53134 139.143C7.57498 137.187 9.53948 134.835 8.86418 132.657C8.31167 130.924 8.00471 129.315 8.03541 127.533C8.06611 125.923 8.21958 124.29 7.94332 122.681C7.82054 121.963 7.51359 121.245 7.51359 120.502C7.51359 119.388 8.21958 118.299 8.0661 117.16C7.72846 114.586 8.40375 112.036 8.55723 109.486C8.61862 108.372 9.04836 107.456 9.07905 106.342C9.07905 104.387 9.63157 102.48 9.63157 100.5C9.63157 99.2128 9.63157 97.9503 9.63157 96.663C9.63157 95.0292 9.63157 93.5439 10.0306 91.9348C10.3069 90.7713 10.2148 90.0535 9.26322 89.0633C8.37306 88.1226 8.21958 88.4196 8.1275 87.3304C8.03541 86.1422 7.4215 84.9292 7.60567 83.7409C8.21958 79.7306 8.58793 75.5222 8.00471 71.4624C7.82054 70.1256 7.4215 69.5068 8.0661 68.3433C8.58793 67.4026 9.20183 66.9075 9.04836 65.9173C8.92557 65.0756 8.37306 64.234 8.21958 63.3675C8.03541 62.4516 7.60567 58.8869 8.7721 58.2185C9.72365 57.6986 11.6575 58.1195 12.7932 58.1442C14.727 58.1442 16.6301 58.1442 18.5639 58.1442C21.5414 58.1442 24.5188 58.1442 27.4963 58.1442C30.1974 58.1442 32.9907 58.3423 35.3236 59.6295C36.0909 60.0504 36.7355 60.6692 37.4108 61.1396C37.8713 61.4614 38.4852 62.0555 39.0377 62.2536C39.8051 62.5506 41.9845 62.2783 42.7825 62.3526C44.1945 62.5011 45.5144 62.6496 46.9264 62.7239C45.6679 62.2783 43.5192 61.7337 42.537 60.9415C41.7696 60.2979 41.6161 59.5057 40.6032 58.9859C39.314 58.2927 37.8406 58.3918 36.4286 58.169C35.6612 58.0452 35.0473 57.8224 34.2492 57.7481C32.1926 57.5749 29.7677 57.6739 27.7111 57.7481C24.9178 57.8472 22.3394 58.6393 19.4848 57.8719C18.2877 57.5501 16.9064 57.154 15.8013 56.6342C14.9726 56.2381 14.2052 55.5202 13.622 54.8766C12.2407 53.3417 11.0129 51.7079 9.50879 50.1979C8.34236 49.0591 8.46514 49.0096 9.29392 47.6481C10.491 45.6429 11.6268 44.0091 11.1663 41.7564C10.9208 40.4939 10.2455 39.2066 10.1534 37.9194C10.0613 36.7311 10.2455 35.5924 10.092 34.3794C9.93852 33.3397 9.47809 32.4237 9.26322 31.4335C9.01766 30.2948 9.23253 29.1808 8.89488 28.0669C8.49584 26.6806 8.98696 25.5418 9.14044 24.1556C9.32461 22.2742 10.092 20.4918 10.1841 18.6104C10.2762 16.7786 9.63157 15.0457 9.66226 13.2138C9.69296 11.7533 9.57018 10.0452 9.04836 8.63416C8.83349 8.11431 8.37306 7.64396 8.21958 7.0746C7.97402 6.23293 7.60567 3.68316 7.60567 2.84149L7.63637 3.08904Z" fill="#FCEED4"/>
</mask>
<g mask="url(#mask0_1_1273)">
<g filter="url(#filter0_b_1_1273)">
<path d="M-2 -3H546V380H-2V-3Z" fill="#F8E6D3" fill-opacity="0.4"/>
</g>
</g>
<defs>
<filter id="filter0_b_1_1273" x="-14" y="-15" width="572" height="407" filterUnits="userSpaceOnUse" color-interpolation-filters="sRGB">
<feFlood flood-opacity="0" result="BackgroundImageFix"/>
<feGaussianBlur in="BackgroundImageFix" stdDeviation="6"/>
<feComposite in2="SourceAlpha" operator="in" result="effect1_backgroundBlur_1_1273"/>
<feBlend mode="normal" in="SourceGraphic" in2="effect1_backgroundBlur_1_1273" result="shape"/>
</filter>
</defs>
</svg>
