<svg width="197" height="162" viewBox="0 0 197 162" fill="none" xmlns="http://www.w3.org/2000/svg">
<path d="M200.382 87.1703C195.942 88.8143 192.526 87.9375 190.022 86.5127C189.339 75.8815 183.988 65.4695 182.963 57.4687C181.939 49.2487 179.32 49.5775 176.474 41.9055C173.628 34.2335 170.326 28.5343 164.065 26.5615C157.917 24.5887 149.265 10.1215 143.572 8.91586C137.994 7.71026 130.252 13.0807 121.941 17.7935C113.63 22.6159 107.141 15.6015 97.5779 13.9575C88.0148 12.3135 74.467 1.46306 64.3346 0.586259C54.2022 -0.290541 46.6883 0.586263 37.1251 3.65506C27.562 6.72386 16.6327 14.8343 11.6234 22.5063C9.0049 26.4519 7.75259 32.4799 7.2972 38.7271C7.2972 39.0559 7.18335 39.2751 7.18335 39.6039C6.50026 43.9879 5.81718 48.2623 5.58949 52.6463C5.47564 55.2767 5.47564 57.9071 4.90641 60.4279C4.45102 62.2911 3.65409 64.1543 3.08485 66.0175C2.62947 67.6615 2.28792 69.4151 2.28792 71.1687C2.28792 72.9223 1.83253 74.1279 1.14945 75.6623C0.580217 76.9775 0.0109836 78.6215 0.694066 79.9367C1.03561 80.5943 1.49099 81.1423 1.94638 81.5807C3.1987 83.0055 4.33717 84.6495 5.24795 86.4031C5.70334 84.1015 6.04488 81.6903 6.04488 79.2791C6.04488 78.1831 6.04488 77.1967 5.70334 76.1007C5.47564 75.4431 5.1341 74.7855 4.79256 74.1279C3.88178 71.9359 3.31255 68.3191 4.45102 66.1271C5.70334 63.7159 7.2972 61.5239 8.77721 59.2223C11.0542 68.3191 16.1773 75.4431 17.7711 77.9639C19.4788 80.8135 20.9588 87.2799 22.6666 93.8559C24.3743 100.432 28.5866 110.953 28.5866 110.953C28.5866 110.953 29.1558 125.311 29.2697 126.407C29.3835 127.503 27.9035 130.243 26.6512 132.654C25.285 135.065 25.3989 140.545 26.6512 141.532C27.9035 142.518 32.5713 143.724 34.8482 143.833C37.239 144.053 43.3867 144.162 44.1837 143.943C44.9806 143.724 48.9652 143.395 49.3068 140.436C49.6483 137.477 48.0545 135.723 46.8021 133.969C45.436 132.216 43.6144 122.681 42.9313 120.16C42.2483 117.639 42.9313 114.132 43.3867 110.734C43.8421 107.446 42.9313 102.514 42.9313 102.514L48.9652 93.8559H51.5837C51.5837 93.8559 51.8114 114.241 52.0391 118.735C52.2668 123.229 50.2176 133.531 50.7868 136.6C51.356 139.669 57.1622 142.189 57.1622 142.189C57.1622 142.189 66.6115 142.518 68.3192 142.628C70.027 142.847 72.6454 140.984 72.6454 140.984C72.6454 140.984 75.8332 141.313 75.947 140.545C76.1747 139.888 76.1747 137.367 75.7193 135.504C75.2639 133.531 67.4085 124.873 67.4085 124.873L68.7746 115.557L81.0701 134.189C81.0701 134.189 80.7286 153.04 80.5009 155.232C80.1593 157.533 82.4363 160.383 84.9409 161.479C87.4456 162.575 100.424 161.479 101.563 160.821C102.701 160.164 103.612 155.889 103.498 153.917C103.384 151.834 99.058 137.038 97.1226 128.38C95.1872 119.612 88.9256 112.269 88.9256 112.269L87.4456 99.0071L107.141 94.6231C107.141 94.6231 107.824 104.487 107.824 110.515C107.824 116.433 106.116 131.668 105.661 133.969C105.206 136.271 102.473 146.245 102.36 148.108C102.246 149.971 106.003 153.369 108.393 154.903C110.784 156.328 117.273 157.095 122.852 155.999C128.431 154.903 129.683 153.04 129.683 153.04C129.683 153.04 127.634 150.848 127.064 148.765C126.495 146.573 121.827 141.532 121.486 138.901C121.258 136.271 123.763 124.982 127.064 114.022C130.366 103.062 137.88 71.3879 137.88 71.3879C137.88 71.3879 146.988 74.0183 153.363 74.2375C154.615 79.2791 159.397 93.1983 176.132 97.4727C178.523 103.829 178.637 108.542 178.409 115.776C178.068 123.557 176.132 131.449 176.132 131.449L170.782 134.737C170.782 134.737 168.96 132.216 167.822 132.106C166.683 131.997 163.495 134.956 162.471 136.49C161.332 138.025 160.649 142.737 167.935 144.053C175.222 145.368 180.231 140.326 184.671 135.394C189.111 130.462 187.403 129.147 190.022 123.009C191.957 118.625 191.388 109.857 190.819 100.213C193.096 99.9935 195.373 99.6647 197.763 97.5823C196.283 97.2535 193.665 96.9247 190.591 96.3767C190.477 94.8423 190.363 93.3079 190.249 91.7735C193.665 91.4447 197.877 90.3487 200.382 87.1703ZM163.951 76.5391C166.228 77.5255 167.366 77.5255 167.366 77.5255C167.366 77.5255 170.099 83.4439 172.717 89.4719C168.846 86.5127 165.545 82.4575 163.951 76.5391Z" fill="#F38218"/>
</svg>
